solid OpenSCAD_Model
  facet normal -1 0 0
    outer loop
      vertex -20 55 -26
      vertex -20 63 -25
      vertex -20 63 -26
    endloop
  endfacet
  facet normal -1 -0 0
    outer loop
      vertex -20 63 -25
      vertex -20 55 -26
      vertex -20 55 -25
    endloop
  endfacet
  facet normal -1 0 0
    outer loop
      vertex -20 71 -26
      vertex -20 80 -25
      vertex -20 80 -26
    endloop
  endfacet
  facet normal -1 -0 0
    outer loop
      vertex -20 80 -25
      vertex -20 71 -26
      vertex -20 71 -25
    endloop
  endfacet
  facet normal 1 -0 0
    outer loop
      vertex -28 55 -25
      vertex -28 63 -26
      vertex -28 63 -25
    endloop
  endfacet
  facet normal 1 0 0
    outer loop
      vertex -28 63 -26
      vertex -28 55 -25
      vertex -28 55 -26
    endloop
  endfacet
  facet normal 1 -0 0
    outer loop
      vertex -28 71 -25
      vertex -28 80 -26
      vertex -28 80 -25
    endloop
  endfacet
  facet normal 1 0 0
    outer loop
      vertex -28 80 -26
      vertex -28 71 -25
      vertex -28 71 -26
    endloop
  endfacet
  facet normal 0 -1 0
    outer loop
      vertex -28 80 -26
      vertex -20 80 -25
      vertex -28 80 -25
    endloop
  endfacet
  facet normal 0 -1 -0
    outer loop
      vertex -20 80 -25
      vertex -28 80 -26
      vertex -20 80 -26
    endloop
  endfacet
  facet normal 0 0 1
    outer loop
      vertex -2.38197 96.6756 -25
      vertex -2.38197 94.3244 -25
      vertex -2 95.5 -25
    endloop
  endfacet
  facet normal 0 0 1
    outer loop
      vertex -3.38197 97.4021 -25
      vertex -2.38197 94.3244 -25
      vertex -2.38197 96.6756 -25
    endloop
  endfacet
  facet normal 0 0 1
    outer loop
      vertex -3.38197 97.4021 -25
      vertex -3.38197 93.5979 -25
      vertex -2.38197 94.3244 -25
    endloop
  endfacet
  facet normal -0 0 1
    outer loop
      vertex -4.61803 97.4021 -25
      vertex -3.38197 93.5979 -25
      vertex -3.38197 97.4021 -25
    endloop
  endfacet
  facet normal 0 0 1
    outer loop
      vertex -4.61803 97.4021 -25
      vertex -4.61803 93.5979 -25
      vertex -3.38197 93.5979 -25
    endloop
  endfacet
  facet normal -0 0 1
    outer loop
      vertex -5.61803 96.6756 -25
      vertex -4.61803 93.5979 -25
      vertex -4.61803 97.4021 -25
    endloop
  endfacet
  facet normal 0 0 1
    outer loop
      vertex -5.61803 96.6756 -25
      vertex -5.61803 94.3244 -25
      vertex -4.61803 93.5979 -25
    endloop
  endfacet
  facet normal 0 -0 1
    outer loop
      vertex -5.61803 94.3244 -25
      vertex -5.61803 96.6756 -25
      vertex -6 95.5 -25
    endloop
  endfacet
  facet normal -0 0 1
    outer loop
      vertex -36.5 63 -25
      vertex -28 55 -25
      vertex -28 63 -25
    endloop
  endfacet
  facet normal 0 0 1
    outer loop
      vertex -28 55 -25
      vertex -41 55 -25
      vertex -34 42 -25
    endloop
  endfacet
  facet normal 0 0 1
    outer loop
      vertex -28 55 -25
      vertex -36.5 63 -25
      vertex -41 55 -25
    endloop
  endfacet
  facet normal 0 0 1
    outer loop
      vertex -8 99 -25
      vertex -22 92.5 -25
      vertex -8 92.5 -25
    endloop
  endfacet
  facet normal 0 0 1
    outer loop
      vertex -22 92.5 -25
      vertex -34 82 -25
      vertex -22 91.5 -25
    endloop
  endfacet
  facet normal 0 0 1
    outer loop
      vertex -41 75 -25
      vertex -34 81 -25
      vertex -34 82 -25
    endloop
  endfacet
  facet normal 0 0 1
    outer loop
      vertex -36.5 71 -25
      vertex -41 75 -25
      vertex -36.5 63 -25
    endloop
  endfacet
  facet normal 0 0 1
    outer loop
      vertex -34 81 -25
      vertex -41 75 -25
      vertex -36.5 71 -25
    endloop
  endfacet
  facet normal 0 0 1
    outer loop
      vertex -34 82 -25
      vertex -42 75 -25
      vertex -41 75 -25
    endloop
  endfacet
  facet normal 0 0 1
    outer loop
      vertex -60 99 -25
      vertex -34 82 -25
      vertex -22 92.5 -25
    endloop
  endfacet
  facet normal 0 0 1
    outer loop
      vertex -42 75 -25
      vertex -60 99 -25
      vertex -42 55 -25
    endloop
  endfacet
  facet normal 0 0 1
    outer loop
      vertex -34 82 -25
      vertex -60 99 -25
      vertex -42 75 -25
    endloop
  endfacet
  facet normal -0 0 1
    outer loop
      vertex -60 99 -25
      vertex -22 92.5 -25
      vertex -8 99 -25
    endloop
  endfacet
  facet normal 0 0 1
    outer loop
      vertex -14 81 -25
      vertex -28 80 -25
      vertex -20 80 -25
    endloop
  endfacet
  facet normal -0 0 1
    outer loop
      vertex -34 81 -25
      vertex -28 80 -25
      vertex -14 81 -25
    endloop
  endfacet
  facet normal 0 0 1
    outer loop
      vertex -34 81 -25
      vertex -28 71 -25
      vertex -28 80 -25
    endloop
  endfacet
  facet normal 0 0 1
    outer loop
      vertex -28 71 -25
      vertex -34 81 -25
      vertex -36.5 71 -25
    endloop
  endfacet
  facet normal 0 0 1
    outer loop
      vertex -11.5 63 -25
      vertex -20 55 -25
      vertex -10 55 -25
    endloop
  endfacet
  facet normal 0 0 1
    outer loop
      vertex -10 55 -25
      vertex -20 55 -25
      vertex -14 42 -25
    endloop
  endfacet
  facet normal -0 0 1
    outer loop
      vertex -28 55 -25
      vertex -14 42 -25
      vertex -20 55 -25
    endloop
  endfacet
  facet normal 0 0 1
    outer loop
      vertex -14 42 -25
      vertex -28 55 -25
      vertex -34 42 -25
    endloop
  endfacet
  facet normal -0 0 1
    outer loop
      vertex -9 55 -25
      vertex -1 8 -25
      vertex -1 91.5 -25
    endloop
  endfacet
  facet normal -0 0 1
    outer loop
      vertex -14 41 -25
      vertex -1 8 -25
      vertex -9 55 -25
    endloop
  endfacet
  facet normal 0 0 1
    outer loop
      vertex -9 55 -25
      vertex -1 91.5 -25
      vertex -9 75 -25
    endloop
  endfacet
  facet normal -0 0 1
    outer loop
      vertex -14 82 -25
      vertex -9 75 -25
      vertex -1 91.5 -25
    endloop
  endfacet
  facet normal 0 0 1
    outer loop
      vertex -11.5 63 -25
      vertex -10 75 -25
      vertex -11.5 71 -25
    endloop
  endfacet
  facet normal 0 0 1
    outer loop
      vertex -9 75 -25
      vertex -14 81 -25
      vertex -10 75 -25
    endloop
  endfacet
  facet normal -0 0 1
    outer loop
      vertex -14 81 -25
      vertex -9 75 -25
      vertex -14 82 -25
    endloop
  endfacet
  facet normal -0 0 1
    outer loop
      vertex -22 91.5 -25
      vertex -14 82 -25
      vertex -1 91.5 -25
    endloop
  endfacet
  facet normal 0 0 1
    outer loop
      vertex -14 82 -25
      vertex -22 91.5 -25
      vertex -34 82 -25
    endloop
  endfacet
  facet normal 0 0 1
    outer loop
      vertex -1 8 -25
      vertex -14 41 -25
      vertex -8 8 -25
    endloop
  endfacet
  facet normal 0 0 1
    outer loop
      vertex -14 42 -25
      vertex -9 55 -25
      vertex -10 55 -25
    endloop
  endfacet
  facet normal 0 0 1
    outer loop
      vertex -10 75 -25
      vertex -11.5 63 -25
      vertex -10 55 -25
    endloop
  endfacet
  facet normal 0 0 1
    outer loop
      vertex -20 55 -25
      vertex -11.5 63 -25
      vertex -20 63 -25
    endloop
  endfacet
  facet normal 0 0 1
    outer loop
      vertex -9 55 -25
      vertex -14 42 -25
      vertex -14 41 -25
    endloop
  endfacet
  facet normal -0 0 1
    outer loop
      vertex -34 41 -25
      vertex -8 8 -25
      vertex -14 41 -25
    endloop
  endfacet
  facet normal 0 0 1
    outer loop
      vertex -60 1 -25
      vertex -8 8 -25
      vertex -34 41 -25
    endloop
  endfacet
  facet normal 0 0 1
    outer loop
      vertex -41 55 -25
      vertex -36.5 63 -25
      vertex -41 75 -25
    endloop
  endfacet
  facet normal -0 0 1
    outer loop
      vertex -42 55 -25
      vertex -34 42 -25
      vertex -41 55 -25
    endloop
  endfacet
  facet normal 0 0 1
    outer loop
      vertex -34 42 -25
      vertex -42 55 -25
      vertex -34 41 -25
    endloop
  endfacet
  facet normal 0 0 1
    outer loop
      vertex -8 8 -25
      vertex -60 1 -25
      vertex -8 1 -25
    endloop
  endfacet
  facet normal 0 0 1
    outer loop
      vertex -42 55 -25
      vertex -60 1 -25
      vertex -34 41 -25
    endloop
  endfacet
  facet normal 0 0 1
    outer loop
      vertex -60 1 -25
      vertex -42 55 -25
      vertex -60 99 -25
    endloop
  endfacet
  facet normal 0 0 1
    outer loop
      vertex -20 71 -25
      vertex -10 75 -25
      vertex -14 81 -25
    endloop
  endfacet
  facet normal 0 0 1
    outer loop
      vertex -20 71 -25
      vertex -14 81 -25
      vertex -20 80 -25
    endloop
  endfacet
  facet normal 0 0 1
    outer loop
      vertex -10 75 -25
      vertex -20 71 -25
      vertex -11.5 71 -25
    endloop
  endfacet
  facet normal 0 0 1
    outer loop
      vertex -2.38197 5.17557 -25
      vertex -2.38197 2.82443 -25
      vertex -2 4 -25
    endloop
  endfacet
  facet normal 0 0 1
    outer loop
      vertex -3.38197 5.90211 -25
      vertex -2.38197 2.82443 -25
      vertex -2.38197 5.17557 -25
    endloop
  endfacet
  facet normal 0 0 1
    outer loop
      vertex -3.38197 5.90211 -25
      vertex -3.38197 2.09789 -25
      vertex -2.38197 2.82443 -25
    endloop
  endfacet
  facet normal -0 0 1
    outer loop
      vertex -4.61803 5.90211 -25
      vertex -3.38197 2.09789 -25
      vertex -3.38197 5.90211 -25
    endloop
  endfacet
  facet normal 0 0 1
    outer loop
      vertex -4.61803 5.90211 -25
      vertex -4.61803 2.09789 -25
      vertex -3.38197 2.09789 -25
    endloop
  endfacet
  facet normal -0 0 1
    outer loop
      vertex -5.61803 5.17557 -25
      vertex -4.61803 2.09789 -25
      vertex -4.61803 5.90211 -25
    endloop
  endfacet
  facet normal 0 0 1
    outer loop
      vertex -5.61803 5.17557 -25
      vertex -5.61803 2.82443 -25
      vertex -4.61803 2.09789 -25
    endloop
  endfacet
  facet normal 0 -0 1
    outer loop
      vertex -5.61803 2.82443 -25
      vertex -5.61803 5.17557 -25
      vertex -6 4 -25
    endloop
  endfacet
  facet normal 0 1 -0
    outer loop
      vertex -20 55 -26
      vertex -28 55 -25
      vertex -20 55 -25
    endloop
  endfacet
  facet normal 0 1 0
    outer loop
      vertex -28 55 -25
      vertex -20 55 -26
      vertex -28 55 -26
    endloop
  endfacet
  facet normal -1 0 0
    outer loop
      vertex -11.5 63 -26
      vertex -11.5 71 -25
      vertex -11.5 71 -26
    endloop
  endfacet
  facet normal -1 -0 0
    outer loop
      vertex -11.5 71 -25
      vertex -11.5 63 -26
      vertex -11.5 63 -25
    endloop
  endfacet
  facet normal 1 -0 0
    outer loop
      vertex -36.5 63 -25
      vertex -36.5 71 -26
      vertex -36.5 71 -25
    endloop
  endfacet
  facet normal 1 0 0
    outer loop
      vertex -36.5 71 -26
      vertex -36.5 63 -25
      vertex -36.5 63 -26
    endloop
  endfacet
  facet normal 0 -1 0
    outer loop
      vertex -36.5 71 -26
      vertex -28 71 -25
      vertex -36.5 71 -25
    endloop
  endfacet
  facet normal 0 -1 -0
    outer loop
      vertex -28 71 -25
      vertex -36.5 71 -26
      vertex -28 71 -26
    endloop
  endfacet
  facet normal 0 -1 0
    outer loop
      vertex -20 71 -26
      vertex -11.5 71 -25
      vertex -20 71 -25
    endloop
  endfacet
  facet normal 0 -1 -0
    outer loop
      vertex -11.5 71 -25
      vertex -20 71 -26
      vertex -11.5 71 -26
    endloop
  endfacet
  facet normal 0 1 -0
    outer loop
      vertex -11.5 63 -26
      vertex -20 63 -25
      vertex -11.5 63 -25
    endloop
  endfacet
  facet normal 0 1 0
    outer loop
      vertex -20 63 -25
      vertex -11.5 63 -26
      vertex -20 63 -26
    endloop
  endfacet
  facet normal 0 1 -0
    outer loop
      vertex -28 63 -26
      vertex -36.5 63 -25
      vertex -28 63 -25
    endloop
  endfacet
  facet normal 0 1 0
    outer loop
      vertex -36.5 63 -25
      vertex -28 63 -26
      vertex -36.5 63 -26
    endloop
  endfacet
  facet normal 1 -0 1.22465e-16
    outer loop
      vertex 0 0 0
      vertex 3.18408e-15 100 -26
      vertex 0 100 0
    endloop
  endfacet
  facet normal 1 0 1.22465e-16
    outer loop
      vertex 3.18408e-15 100 -26
      vertex 0 0 0
      vertex 3.18408e-15 0 -26
    endloop
  endfacet
  facet normal 0 0 -1
    outer loop
      vertex -28 71 -26
      vertex -36.5 71 -26
      vertex -28 80 -26
    endloop
  endfacet
  facet normal 0 0 -1
    outer loop
      vertex 3.18408e-15 0 -26
      vertex -11.5 63 -26
      vertex 3.18408e-15 100 -26
    endloop
  endfacet
  facet normal 0 0 -1
    outer loop
      vertex 3.18408e-15 0 -26
      vertex -20 55 -26
      vertex -11.5 63 -26
    endloop
  endfacet
  facet normal 0 0 -1
    outer loop
      vertex 3.18408e-15 0 -26
      vertex -28 55 -26
      vertex -20 55 -26
    endloop
  endfacet
  facet normal 0 0 -1
    outer loop
      vertex -28 55 -26
      vertex -36.5 63 -26
      vertex -28 63 -26
    endloop
  endfacet
  facet normal 0 0 -1
    outer loop
      vertex -60 0 -26
      vertex -28 55 -26
      vertex 3.18408e-15 0 -26
    endloop
  endfacet
  facet normal 0 0 -1
    outer loop
      vertex -60 100 -26
      vertex -36.5 63 -26
      vertex -60 0 -26
    endloop
  endfacet
  facet normal -0 0 -1
    outer loop
      vertex -28 55 -26
      vertex -60 0 -26
      vertex -36.5 63 -26
    endloop
  endfacet
  facet normal 0 0 -1
    outer loop
      vertex -11.5 71 -26
      vertex 3.18408e-15 100 -26
      vertex -11.5 63 -26
    endloop
  endfacet
  facet normal 0 0 -1
    outer loop
      vertex -20 80 -26
      vertex -11.5 71 -26
      vertex -20 71 -26
    endloop
  endfacet
  facet normal 0 0 -1
    outer loop
      vertex -11.5 71 -26
      vertex -20 80 -26
      vertex 3.18408e-15 100 -26
    endloop
  endfacet
  facet normal 0 0 -1
    outer loop
      vertex -28 80 -26
      vertex 3.18408e-15 100 -26
      vertex -20 80 -26
    endloop
  endfacet
  facet normal 0 0 -1
    outer loop
      vertex -28 80 -26
      vertex -60 100 -26
      vertex 3.18408e-15 100 -26
    endloop
  endfacet
  facet normal 0 0 -1
    outer loop
      vertex -36.5 71 -26
      vertex -60 100 -26
      vertex -28 80 -26
    endloop
  endfacet
  facet normal 0 0 -1
    outer loop
      vertex -36.5 63 -26
      vertex -60 100 -26
      vertex -36.5 71 -26
    endloop
  endfacet
  facet normal -0 0 -1
    outer loop
      vertex -11.5 63 -26
      vertex -20 55 -26
      vertex -20 63 -26
    endloop
  endfacet
  facet normal -1 0 0
    outer loop
      vertex -60 100 -26
      vertex -60 99 -25
      vertex -60 100 -7.34788e-15
    endloop
  endfacet
  facet normal -1 0 0
    outer loop
      vertex -60 100 -26
      vertex -60 1 -25
      vertex -60 99 -25
    endloop
  endfacet
  facet normal -1 0 0
    outer loop
      vertex -60 0 -26
      vertex -60 1 -25
      vertex -60 100 -26
    endloop
  endfacet
  facet normal -1 0 0
    outer loop
      vertex -60 0 -7.34788e-15
      vertex -60 1 -25
      vertex -60 0 -26
    endloop
  endfacet
  facet normal -1 0 0
    outer loop
      vertex -60 1 -25
      vertex -60 0 -7.34788e-15
      vertex -60 1 -7.34788e-15
    endloop
  endfacet
  facet normal -1 -0 0
    outer loop
      vertex -60 100 -7.34788e-15
      vertex -60 99 -25
      vertex -60 99 -7.34788e-15
    endloop
  endfacet
  facet normal -1.22465e-16 -4.77435e-24 1
    outer loop
      vertex -1 8 -1.22465e-16
      vertex -2.38197 5.17557 -2.91707e-16
      vertex -2 4 -2.44929e-16
    endloop
  endfacet
  facet normal -1.22465e-16 3.37134e-24 1
    outer loop
      vertex -1 8 -1.22465e-16
      vertex -3.38197 5.90211 -4.14171e-16
      vertex -2.38197 5.17557 -2.91707e-16
    endloop
  endfacet
  facet normal -1.22465e-16 1.5574e-23 1
    outer loop
      vertex -1 8 -1.22465e-16
      vertex -4.61803 5.90211 -5.65546e-16
      vertex -3.38197 5.90211 -4.14171e-16
    endloop
  endfacet
  facet normal -1.22465e-16 1.74942e-23 1
    outer loop
      vertex -5.61803 5.17557 -6.88011e-16
      vertex -8 8 -9.79717e-16
      vertex -6 4 -7.34788e-16
    endloop
  endfacet
  facet normal -1.22465e-16 2.02348e-23 1
    outer loop
      vertex -4.61803 5.90211 -5.65546e-16
      vertex -8 8 -9.79717e-16
      vertex -5.61803 5.17557 -6.88011e-16
    endloop
  endfacet
  facet normal -1.22465e-16 1.26334e-24 1
    outer loop
      vertex -8 8 -9.79717e-16
      vertex -4.61803 5.90211 -5.65546e-16
      vertex -1 8 -1.22465e-16
    endloop
  endfacet
  facet normal -1.22465e-16 0 1
    outer loop
      vertex 0 100 0
      vertex -1 91.5 -1.22465e-16
      vertex 0 0 0
    endloop
  endfacet
  facet normal -1.22465e-16 0 1
    outer loop
      vertex 0 100 0
      vertex -2 95.5 -2.44929e-16
      vertex -1 91.5 -1.22465e-16
    endloop
  endfacet
  facet normal -1.22465e-16 -6.3426e-24 1
    outer loop
      vertex 0 100 0
      vertex -2.38197 96.6756 -2.91707e-16
      vertex -2 95.5 -2.44929e-16
    endloop
  endfacet
  facet normal -1.22465e-16 2.55332e-24 1
    outer loop
      vertex 0 100 0
      vertex -3.38197 97.4021 -4.14171e-16
      vertex -2.38197 96.6756 -2.91707e-16
    endloop
  endfacet
  facet normal -1.22465e-16 1.57707e-23 1
    outer loop
      vertex 0 100 0
      vertex -4.61803 97.4021 -5.65546e-16
      vertex -3.38197 97.4021 -4.14171e-16
    endloop
  endfacet
  facet normal -1.22465e-16 1.84001e-23 1
    outer loop
      vertex -5.61803 96.6756 -6.88011e-16
      vertex -8 99 -9.79717e-16
      vertex -6 95.5 -7.34788e-16
    endloop
  endfacet
  facet normal -1.22465e-16 2.27298e-23 1
    outer loop
      vertex -4.61803 97.4021 -5.65546e-16
      vertex -8 99 -9.79717e-16
      vertex -5.61803 96.6756 -6.88011e-16
    endloop
  endfacet
  facet normal -1.22465e-16 1.31164e-24 1
    outer loop
      vertex 0 100 0
      vertex -8 99 -9.79717e-16
      vertex -4.61803 97.4021 -5.65546e-16
    endloop
  endfacet
  facet normal -1.22465e-16 -9.88205e-23 1
    outer loop
      vertex -60 100 -7.34788e-15
      vertex -8 99 -9.79717e-16
      vertex 0 100 0
    endloop
  endfacet
  facet normal -1.22465e-16 0 1
    outer loop
      vertex -8 99 -9.79717e-16
      vertex -60 100 -7.34788e-15
      vertex -60 99 -7.34788e-15
    endloop
  endfacet
  facet normal -1.22465e-16 0 1
    outer loop
      vertex -1 8 -1.22465e-16
      vertex 0 0 0
      vertex -1 91.5 -1.22465e-16
    endloop
  endfacet
  facet normal -1.22465e-16 0 1
    outer loop
      vertex -2 4 -2.44929e-16
      vertex 0 0 0
      vertex -1 8 -1.22465e-16
    endloop
  endfacet
  facet normal -1.22465e-16 6.65486e-24 1
    outer loop
      vertex -2.38197 2.82443 -2.91707e-16
      vertex 0 0 0
      vertex -2 4 -2.44929e-16
    endloop
  endfacet
  facet normal -1.22465e-16 -2.8336e-24 1
    outer loop
      vertex -3.38197 2.09789 -4.14171e-16
      vertex 0 0 0
      vertex -2.38197 2.82443 -2.91707e-16
    endloop
  endfacet
  facet normal -1.22465e-16 -1.95294e-23 1
    outer loop
      vertex -4.61803 2.09789 -5.65546e-16
      vertex 0 0 0
      vertex -3.38197 2.09789 -4.14171e-16
    endloop
  endfacet
  facet normal -1.22465e-16 0 1
    outer loop
      vertex -8 1 -9.79717e-16
      vertex -6 4 -7.34788e-16
      vertex -8 8 -9.79717e-16
    endloop
  endfacet
  facet normal -1.22465e-16 -1.9405e-23 1
    outer loop
      vertex -6 4 -7.34788e-16
      vertex -8 1 -9.79717e-16
      vertex -5.61803 2.82443 -6.88011e-16
    endloop
  endfacet
  facet normal -1.22465e-16 -2.59267e-23 1
    outer loop
      vertex -8 1 -9.79717e-16
      vertex -4.61803 2.09789 -5.65546e-16
      vertex -5.61803 2.82443 -6.88011e-16
    endloop
  endfacet
  facet normal -1.22465e-16 -1.74292e-24 1
    outer loop
      vertex -8 1 -9.79717e-16
      vertex 0 0 0
      vertex -4.61803 2.09789 -5.65546e-16
    endloop
  endfacet
  facet normal -1.22465e-16 0 1
    outer loop
      vertex -60 0 -7.34788e-15
      vertex -8 1 -9.79717e-16
      vertex -60 1 -7.34788e-15
    endloop
  endfacet
  facet normal -1.22465e-16 9.88205e-23 1
    outer loop
      vertex -8 1 -9.79717e-16
      vertex -60 0 -7.34788e-15
      vertex 0 0 0
    endloop
  endfacet
  facet normal -1.22465e-16 4.77435e-24 1
    outer loop
      vertex -2.38197 94.3244 -2.91707e-16
      vertex -1 91.5 -1.22465e-16
      vertex -2 95.5 -2.44929e-16
    endloop
  endfacet
  facet normal -1.22465e-16 -3.37133e-24 1
    outer loop
      vertex -3.38197 93.5979 -4.14171e-16
      vertex -1 91.5 -1.22465e-16
      vertex -2.38197 94.3244 -2.91707e-16
    endloop
  endfacet
  facet normal -1.22465e-16 -1.5574e-23 1
    outer loop
      vertex -4.61803 93.5979 -5.65546e-16
      vertex -1 91.5 -1.22465e-16
      vertex -3.38197 93.5979 -4.14171e-16
    endloop
  endfacet
  facet normal -1.22465e-16 0 1
    outer loop
      vertex -8 91.5 -9.79717e-16
      vertex -6 95.5 -7.34788e-16
      vertex -8 99 -9.79717e-16
    endloop
  endfacet
  facet normal -1.22465e-16 -1.26334e-24 1
    outer loop
      vertex -4.61803 93.5979 -5.65546e-16
      vertex -8 91.5 -9.79717e-16
      vertex -1 91.5 -1.22465e-16
    endloop
  endfacet
  facet normal -1.22465e-16 -2.02348e-23 1
    outer loop
      vertex -5.61803 94.3244 -6.88011e-16
      vertex -8 91.5 -9.79717e-16
      vertex -4.61803 93.5979 -5.65546e-16
    endloop
  endfacet
  facet normal -1.22465e-16 -1.74942e-23 1
    outer loop
      vertex -6 95.5 -7.34788e-16
      vertex -8 91.5 -9.79717e-16
      vertex -5.61803 94.3244 -6.88011e-16
    endloop
  endfacet
  facet normal 0 -1 0
    outer loop
      vertex -60 0 -26
      vertex 0 0 0
      vertex -60 0 -7.34788e-15
    endloop
  endfacet
  facet normal 0 -1 -0
    outer loop
      vertex 0 0 0
      vertex -60 0 -26
      vertex 3.18408e-15 0 -26
    endloop
  endfacet
  facet normal 0 1 0
    outer loop
      vertex -17.9134 100 -10.3806
      vertex 0 100 0
      vertex -16 100 -10
    endloop
  endfacet
  facet normal 0 1 0
    outer loop
      vertex 0 100 0
      vertex -14.0866 100 -10.3806
      vertex -16 100 -10
    endloop
  endfacet
  facet normal 0 1 0
    outer loop
      vertex 0 100 0
      vertex -12.4645 100 -11.4645
      vertex -14.0866 100 -10.3806
    endloop
  endfacet
  facet normal 0 1 0
    outer loop
      vertex 0 100 0
      vertex -11.3806 100 -13.0866
      vertex -12.4645 100 -11.4645
    endloop
  endfacet
  facet normal 0 1 0
    outer loop
      vertex 0 100 0
      vertex -11 100 -15
      vertex -11.3806 100 -13.0866
    endloop
  endfacet
  facet normal 0 1 0
    outer loop
      vertex 3.18408e-15 100 -26
      vertex -11 100 -15
      vertex 0 100 0
    endloop
  endfacet
  facet normal 0 1 0
    outer loop
      vertex -11 100 -15
      vertex 3.18408e-15 100 -26
      vertex -11.3806 100 -16.9134
    endloop
  endfacet
  facet normal 0 1 0
    outer loop
      vertex -14.0866 100 -19.6194
      vertex 3.18408e-15 100 -26
      vertex -16 100 -20
    endloop
  endfacet
  facet normal 0 1 0
    outer loop
      vertex -12.4645 100 -18.5355
      vertex 3.18408e-15 100 -26
      vertex -14.0866 100 -19.6194
    endloop
  endfacet
  facet normal 0 1 0
    outer loop
      vertex -11.3806 100 -16.9134
      vertex 3.18408e-15 100 -26
      vertex -12.4645 100 -18.5355
    endloop
  endfacet
  facet normal 0 1 0
    outer loop
      vertex 0 100 0
      vertex -17.9134 100 -10.3806
      vertex -60 100 -7.34788e-15
    endloop
  endfacet
  facet normal 0 1 -0
    outer loop
      vertex -19.5355 100 -11.4645
      vertex -60 100 -7.34788e-15
      vertex -17.9134 100 -10.3806
    endloop
  endfacet
  facet normal 0 1 -0
    outer loop
      vertex -20.6194 100 -13.0866
      vertex -60 100 -7.34788e-15
      vertex -19.5355 100 -11.4645
    endloop
  endfacet
  facet normal 0 1 -0
    outer loop
      vertex -21 100 -15
      vertex -60 100 -7.34788e-15
      vertex -20.6194 100 -13.0866
    endloop
  endfacet
  facet normal 0 1 0
    outer loop
      vertex -60 100 -26
      vertex -21 100 -15
      vertex -20.6194 100 -16.9134
    endloop
  endfacet
  facet normal 0 1 0
    outer loop
      vertex -60 100 -26
      vertex -20.6194 100 -16.9134
      vertex -19.5355 100 -18.5355
    endloop
  endfacet
  facet normal 0 1 0
    outer loop
      vertex -60 100 -26
      vertex -19.5355 100 -18.5355
      vertex -17.9134 100 -19.6194
    endloop
  endfacet
  facet normal 0 1 0
    outer loop
      vertex 3.18408e-15 100 -26
      vertex -17.9134 100 -19.6194
      vertex -16 100 -20
    endloop
  endfacet
  facet normal 0 1 0
    outer loop
      vertex -21 100 -15
      vertex -60 100 -26
      vertex -60 100 -7.34788e-15
    endloop
  endfacet
  facet normal 0 1 0
    outer loop
      vertex -60 100 -26
      vertex -17.9134 100 -19.6194
      vertex 3.18408e-15 100 -26
    endloop
  endfacet
  facet normal -1 0 0
    outer loop
      vertex -1 8 -25
      vertex -1 91.5 -1.22465e-16
      vertex -1 91.5 -25
    endloop
  endfacet
  facet normal -1 -0 0
    outer loop
      vertex -1 91.5 -1.22465e-16
      vertex -1 8 -25
      vertex -1 8 -1.22465e-16
    endloop
  endfacet
  facet normal 0 -1 0
    outer loop
      vertex -8 99 -9.79717e-16
      vertex -17.9134 99 -10.3806
      vertex -16 99 -10
    endloop
  endfacet
  facet normal 0 -1 0
    outer loop
      vertex -60 99 -7.34788e-15
      vertex -19.5355 99 -11.4645
      vertex -17.9134 99 -10.3806
    endloop
  endfacet
  facet normal 0 -1 0
    outer loop
      vertex -60 99 -7.34788e-15
      vertex -20.6194 99 -13.0866
      vertex -19.5355 99 -11.4645
    endloop
  endfacet
  facet normal 0 -1 0
    outer loop
      vertex -60 99 -7.34788e-15
      vertex -21 99 -15
      vertex -20.6194 99 -13.0866
    endloop
  endfacet
  facet normal 0 -1 0
    outer loop
      vertex -60 99 -25
      vertex -21 99 -15
      vertex -60 99 -7.34788e-15
    endloop
  endfacet
  facet normal 0 -1 -0
    outer loop
      vertex -21 99 -15
      vertex -60 99 -25
      vertex -20.6194 99 -16.9134
    endloop
  endfacet
  facet normal 0 -1 -0
    outer loop
      vertex -20.6194 99 -16.9134
      vertex -60 99 -25
      vertex -19.5355 99 -18.5355
    endloop
  endfacet
  facet normal 0 -1 0
    outer loop
      vertex -8 99 -25
      vertex -17.9134 99 -19.6194
      vertex -60 99 -25
    endloop
  endfacet
  facet normal 0 -1 -0
    outer loop
      vertex -19.5355 99 -18.5355
      vertex -60 99 -25
      vertex -17.9134 99 -19.6194
    endloop
  endfacet
  facet normal 0 -1 0
    outer loop
      vertex -17.9134 99 -10.3806
      vertex -8 99 -9.79717e-16
      vertex -60 99 -7.34788e-15
    endloop
  endfacet
  facet normal 0 -1 0
    outer loop
      vertex -14.0866 99 -10.3806
      vertex -8 99 -9.79717e-16
      vertex -16 99 -10
    endloop
  endfacet
  facet normal 0 -1 0
    outer loop
      vertex -12.4645 99 -11.4645
      vertex -8 99 -9.79717e-16
      vertex -14.0866 99 -10.3806
    endloop
  endfacet
  facet normal 0 -1 0
    outer loop
      vertex -11.3806 99 -13.0866
      vertex -8 99 -9.79717e-16
      vertex -12.4645 99 -11.4645
    endloop
  endfacet
  facet normal 0 -1 0
    outer loop
      vertex -11 99 -15
      vertex -8 99 -9.79717e-16
      vertex -11.3806 99 -13.0866
    endloop
  endfacet
  facet normal 0 -1 0
    outer loop
      vertex -8 99 -25
      vertex -11 99 -15
      vertex -11.3806 99 -16.9134
    endloop
  endfacet
  facet normal 0 -1 0
    outer loop
      vertex -11 99 -15
      vertex -8 99 -25
      vertex -8 99 -9.79717e-16
    endloop
  endfacet
  facet normal 0 -1 0
    outer loop
      vertex -12.4645 99 -18.5355
      vertex -8 99 -25
      vertex -11.3806 99 -16.9134
    endloop
  endfacet
  facet normal 0 -1 0
    outer loop
      vertex -14.0866 99 -19.6194
      vertex -8 99 -25
      vertex -12.4645 99 -18.5355
    endloop
  endfacet
  facet normal 0 -1 0
    outer loop
      vertex -16 99 -20
      vertex -8 99 -25
      vertex -14.0866 99 -19.6194
    endloop
  endfacet
  facet normal 0 -1 0
    outer loop
      vertex -17.9134 99 -19.6194
      vertex -8 99 -25
      vertex -16 99 -20
    endloop
  endfacet
  facet normal 0 1 -0
    outer loop
      vertex -8 1 -25
      vertex -60 1 -7.34788e-15
      vertex -8 1 -9.79717e-16
    endloop
  endfacet
  facet normal 0 1 0
    outer loop
      vertex -60 1 -7.34788e-15
      vertex -8 1 -25
      vertex -60 1 -25
    endloop
  endfacet
  facet normal 0.980785 -0 0.195091
    outer loop
      vertex -21 99 -15
      vertex -20.6194 100 -16.9134
      vertex -21 100 -15
    endloop
  endfacet
  facet normal 0.980785 0 0.195091
    outer loop
      vertex -20.6194 100 -16.9134
      vertex -21 99 -15
      vertex -20.6194 99 -16.9134
    endloop
  endfacet
  facet normal -0.980785 0 -0.19509
    outer loop
      vertex -11 99 -15
      vertex -11.3806 100 -13.0866
      vertex -11 100 -15
    endloop
  endfacet
  facet normal -0.980785 -0 -0.19509
    outer loop
      vertex -11.3806 100 -13.0866
      vertex -11 99 -15
      vertex -11.3806 99 -13.0866
    endloop
  endfacet
  facet normal 0.19509 0 -0.980785
    outer loop
      vertex -17.9134 99 -10.3806
      vertex -16 100 -10
      vertex -16 99 -10
    endloop
  endfacet
  facet normal 0.19509 0 -0.980785
    outer loop
      vertex -16 100 -10
      vertex -17.9134 99 -10.3806
      vertex -17.9134 100 -10.3806
    endloop
  endfacet
  facet normal 0.555569 0 0.83147
    outer loop
      vertex -19.5355 100 -18.5355
      vertex -17.9134 99 -19.6194
      vertex -17.9134 100 -19.6194
    endloop
  endfacet
  facet normal 0.555569 0 0.83147
    outer loop
      vertex -17.9134 99 -19.6194
      vertex -19.5355 100 -18.5355
      vertex -19.5355 99 -18.5355
    endloop
  endfacet
  facet normal -0.195091 0 0.980785
    outer loop
      vertex -16 100 -20
      vertex -14.0866 99 -19.6194
      vertex -14.0866 100 -19.6194
    endloop
  endfacet
  facet normal -0.195091 0 0.980785
    outer loop
      vertex -14.0866 99 -19.6194
      vertex -16 100 -20
      vertex -16 99 -20
    endloop
  endfacet
  facet normal 0.195091 0 0.980785
    outer loop
      vertex -17.9134 100 -19.6194
      vertex -16 99 -20
      vertex -16 100 -20
    endloop
  endfacet
  facet normal 0.195091 0 0.980785
    outer loop
      vertex -16 99 -20
      vertex -17.9134 100 -19.6194
      vertex -17.9134 99 -19.6194
    endloop
  endfacet
  facet normal 0.83147 0 -0.55557
    outer loop
      vertex -19.5355 99 -11.4645
      vertex -20.6194 100 -13.0866
      vertex -19.5355 100 -11.4645
    endloop
  endfacet
  facet normal 0.83147 0 -0.55557
    outer loop
      vertex -20.6194 100 -13.0866
      vertex -19.5355 99 -11.4645
      vertex -20.6194 99 -13.0866
    endloop
  endfacet
  facet normal -0.19509 0 -0.980785
    outer loop
      vertex -16 99 -10
      vertex -14.0866 100 -10.3806
      vertex -14.0866 99 -10.3806
    endloop
  endfacet
  facet normal -0.19509 0 -0.980785
    outer loop
      vertex -14.0866 100 -10.3806
      vertex -16 99 -10
      vertex -16 100 -10
    endloop
  endfacet
  facet normal 0.83147 -0 0.55557
    outer loop
      vertex -20.6194 99 -16.9134
      vertex -19.5355 100 -18.5355
      vertex -20.6194 100 -16.9134
    endloop
  endfacet
  facet normal 0.83147 0 0.55557
    outer loop
      vertex -19.5355 100 -18.5355
      vertex -20.6194 99 -16.9134
      vertex -19.5355 99 -18.5355
    endloop
  endfacet
  facet normal -0.980785 0 0.19509
    outer loop
      vertex -11.3806 99 -16.9134
      vertex -11 100 -15
      vertex -11.3806 100 -16.9134
    endloop
  endfacet
  facet normal -0.980785 0 0.19509
    outer loop
      vertex -11 100 -15
      vertex -11.3806 99 -16.9134
      vertex -11 99 -15
    endloop
  endfacet
  facet normal -0.55557 0 0.83147
    outer loop
      vertex -14.0866 100 -19.6194
      vertex -12.4645 99 -18.5355
      vertex -12.4645 100 -18.5355
    endloop
  endfacet
  facet normal -0.55557 0 0.83147
    outer loop
      vertex -12.4645 99 -18.5355
      vertex -14.0866 100 -19.6194
      vertex -14.0866 99 -19.6194
    endloop
  endfacet
  facet normal -0.83147 0 0.55557
    outer loop
      vertex -12.4645 99 -18.5355
      vertex -11.3806 100 -16.9134
      vertex -12.4645 100 -18.5355
    endloop
  endfacet
  facet normal -0.83147 0 0.55557
    outer loop
      vertex -11.3806 100 -16.9134
      vertex -12.4645 99 -18.5355
      vertex -11.3806 99 -16.9134
    endloop
  endfacet
  facet normal 0.55557 0 -0.83147
    outer loop
      vertex -19.5355 99 -11.4645
      vertex -17.9134 100 -10.3806
      vertex -17.9134 99 -10.3806
    endloop
  endfacet
  facet normal 0.55557 0 -0.83147
    outer loop
      vertex -17.9134 100 -10.3806
      vertex -19.5355 99 -11.4645
      vertex -19.5355 100 -11.4645
    endloop
  endfacet
  facet normal -0.83147 0 -0.55557
    outer loop
      vertex -11.3806 99 -13.0866
      vertex -12.4645 100 -11.4645
      vertex -11.3806 100 -13.0866
    endloop
  endfacet
  facet normal -0.83147 -0 -0.55557
    outer loop
      vertex -12.4645 100 -11.4645
      vertex -11.3806 99 -13.0866
      vertex -12.4645 99 -11.4645
    endloop
  endfacet
  facet normal -0.55557 0 -0.83147
    outer loop
      vertex -14.0866 99 -10.3806
      vertex -12.4645 100 -11.4645
      vertex -12.4645 99 -11.4645
    endloop
  endfacet
  facet normal -0.55557 0 -0.83147
    outer loop
      vertex -12.4645 100 -11.4645
      vertex -14.0866 99 -10.3806
      vertex -14.0866 100 -10.3806
    endloop
  endfacet
  facet normal 0.980785 0 -0.195091
    outer loop
      vertex -20.6194 99 -13.0866
      vertex -21 100 -15
      vertex -20.6194 100 -13.0866
    endloop
  endfacet
  facet normal 0.980785 0 -0.195091
    outer loop
      vertex -21 100 -15
      vertex -20.6194 99 -13.0866
      vertex -21 99 -15
    endloop
  endfacet
  facet normal -1 0 0
    outer loop
      vertex -8 1 -25
      vertex -8 8 -9.79717e-16
      vertex -8 8 -25
    endloop
  endfacet
  facet normal -1 -0 0
    outer loop
      vertex -8 8 -9.79717e-16
      vertex -8 1 -25
      vertex -8 1 -9.79717e-16
    endloop
  endfacet
  facet normal 0 1 -0
    outer loop
      vertex -1 8 -25
      vertex -8 8 -9.79717e-16
      vertex -1 8 -1.22465e-16
    endloop
  endfacet
  facet normal 0 1 0
    outer loop
      vertex -8 8 -9.79717e-16
      vertex -1 8 -25
      vertex -8 8 -25
    endloop
  endfacet
  facet normal 0.951056 -0.309017 0
    outer loop
      vertex -6 4 -7.34788e-16
      vertex -5.61803 5.17557 -25
      vertex -5.61803 5.17557 -6.88011e-16
    endloop
  endfacet
  facet normal 0.951056 -0.309017 0
    outer loop
      vertex -5.61803 5.17557 -25
      vertex -6 4 -7.34788e-16
      vertex -6 4 -25
    endloop
  endfacet
  facet normal -0.587785 -0.809017 0
    outer loop
      vertex -3.38197 5.90211 -25
      vertex -2.38197 5.17557 -2.91707e-16
      vertex -3.38197 5.90211 -4.14171e-16
    endloop
  endfacet
  facet normal -0.587785 -0.809017 -0
    outer loop
      vertex -2.38197 5.17557 -2.91707e-16
      vertex -3.38197 5.90211 -25
      vertex -2.38197 5.17557 -25
    endloop
  endfacet
  facet normal 0.587785 -0.809017 0
    outer loop
      vertex -5.61803 5.17557 -25
      vertex -4.61803 5.90211 -5.65546e-16
      vertex -5.61803 5.17557 -6.88011e-16
    endloop
  endfacet
  facet normal 0.587785 -0.809017 0
    outer loop
      vertex -4.61803 5.90211 -5.65546e-16
      vertex -5.61803 5.17557 -25
      vertex -4.61803 5.90211 -25
    endloop
  endfacet
  facet normal -0.951057 -0.309017 0
    outer loop
      vertex -2 4 -25
      vertex -2.38197 5.17557 -2.91707e-16
      vertex -2.38197 5.17557 -25
    endloop
  endfacet
  facet normal -0.951057 -0.309017 0
    outer loop
      vertex -2.38197 5.17557 -2.91707e-16
      vertex -2 4 -25
      vertex -2 4 -2.44929e-16
    endloop
  endfacet
  facet normal 0 -1 0
    outer loop
      vertex -4.61803 5.90211 -25
      vertex -3.38197 5.90211 -4.14171e-16
      vertex -4.61803 5.90211 -5.65546e-16
    endloop
  endfacet
  facet normal 0 -1 -0
    outer loop
      vertex -3.38197 5.90211 -4.14171e-16
      vertex -4.61803 5.90211 -25
      vertex -3.38197 5.90211 -25
    endloop
  endfacet
  facet normal -0.951057 0.309016 0
    outer loop
      vertex -2.38197 2.82443 -25
      vertex -2 4 -2.44929e-16
      vertex -2 4 -25
    endloop
  endfacet
  facet normal -0.951057 0.309016 0
    outer loop
      vertex -2 4 -2.44929e-16
      vertex -2.38197 2.82443 -25
      vertex -2.38197 2.82443 -2.91707e-16
    endloop
  endfacet
  facet normal -0.587785 0.809017 0
    outer loop
      vertex -2.38197 2.82443 -25
      vertex -3.38197 2.09789 -4.14171e-16
      vertex -2.38197 2.82443 -2.91707e-16
    endloop
  endfacet
  facet normal -0.587785 0.809017 0
    outer loop
      vertex -3.38197 2.09789 -4.14171e-16
      vertex -2.38197 2.82443 -25
      vertex -3.38197 2.09789 -25
    endloop
  endfacet
  facet normal 0.587785 0.809017 -0
    outer loop
      vertex -4.61803 2.09789 -25
      vertex -5.61803 2.82443 -6.88011e-16
      vertex -4.61803 2.09789 -5.65546e-16
    endloop
  endfacet
  facet normal 0.587785 0.809017 0
    outer loop
      vertex -5.61803 2.82443 -6.88011e-16
      vertex -4.61803 2.09789 -25
      vertex -5.61803 2.82443 -25
    endloop
  endfacet
  facet normal 0.951056 0.309017 0
    outer loop
      vertex -5.61803 2.82443 -6.88011e-16
      vertex -6 4 -25
      vertex -6 4 -7.34788e-16
    endloop
  endfacet
  facet normal 0.951056 0.309017 0
    outer loop
      vertex -6 4 -25
      vertex -5.61803 2.82443 -6.88011e-16
      vertex -5.61803 2.82443 -25
    endloop
  endfacet
  facet normal 0 1 -0
    outer loop
      vertex -3.38197 2.09789 -25
      vertex -4.61803 2.09789 -5.65546e-16
      vertex -3.38197 2.09789 -4.14171e-16
    endloop
  endfacet
  facet normal 0 1 0
    outer loop
      vertex -4.61803 2.09789 -5.65546e-16
      vertex -3.38197 2.09789 -25
      vertex -4.61803 2.09789 -25
    endloop
  endfacet
  facet normal -1 0 0
    outer loop
      vertex -8 92.5 -9
      vertex -8 99 -25
      vertex -8 92.5 -25
    endloop
  endfacet
  facet normal -1 0 0
    outer loop
      vertex -8 99 -25
      vertex -8 92.5 -9
      vertex -8 99 -9.79717e-16
    endloop
  endfacet
  facet normal -1 0 0
    outer loop
      vertex -8 91.5 -9.79717e-16
      vertex -8 92.5 -9
      vertex -8 91.5 -9
    endloop
  endfacet
  facet normal -1 0 0
    outer loop
      vertex -8 92.5 -9
      vertex -8 91.5 -9.79717e-16
      vertex -8 99 -9.79717e-16
    endloop
  endfacet
  facet normal 0 -1 0
    outer loop
      vertex -22 91.5 -9
      vertex -22 91.5 -25
      vertex -8 91.5 -9
    endloop
  endfacet
  facet normal 0 -1 0
    outer loop
      vertex -8 91.5 -9
      vertex -1 91.5 -1.22465e-16
      vertex -8 91.5 -9.79717e-16
    endloop
  endfacet
  facet normal 0 -1 0
    outer loop
      vertex -8 91.5 -9
      vertex -1 91.5 -25
      vertex -1 91.5 -1.22465e-16
    endloop
  endfacet
  facet normal 0 -1 0
    outer loop
      vertex -1 91.5 -25
      vertex -8 91.5 -9
      vertex -22 91.5 -25
    endloop
  endfacet
  facet normal 0.951056 -0.309018 0
    outer loop
      vertex -6 95.5 -7.34788e-16
      vertex -5.61803 96.6756 -25
      vertex -5.61803 96.6756 -6.88011e-16
    endloop
  endfacet
  facet normal 0.951056 -0.309018 0
    outer loop
      vertex -5.61803 96.6756 -25
      vertex -6 95.5 -7.34788e-16
      vertex -6 95.5 -25
    endloop
  endfacet
  facet normal 0.587788 0.809015 -0
    outer loop
      vertex -4.61803 93.5979 -25
      vertex -5.61803 94.3244 -6.88011e-16
      vertex -4.61803 93.5979 -5.65546e-16
    endloop
  endfacet
  facet normal 0.587788 0.809015 0
    outer loop
      vertex -5.61803 94.3244 -6.88011e-16
      vertex -4.61803 93.5979 -25
      vertex -5.61803 94.3244 -25
    endloop
  endfacet
  facet normal -0.587788 -0.809015 0
    outer loop
      vertex -3.38197 97.4021 -25
      vertex -2.38197 96.6756 -2.91707e-16
      vertex -3.38197 97.4021 -4.14171e-16
    endloop
  endfacet
  facet normal -0.587788 -0.809015 -0
    outer loop
      vertex -2.38197 96.6756 -2.91707e-16
      vertex -3.38197 97.4021 -25
      vertex -2.38197 96.6756 -25
    endloop
  endfacet
  facet normal 0.587788 -0.809015 0
    outer loop
      vertex -5.61803 96.6756 -25
      vertex -4.61803 97.4021 -5.65546e-16
      vertex -5.61803 96.6756 -6.88011e-16
    endloop
  endfacet
  facet normal 0.587788 -0.809015 0
    outer loop
      vertex -4.61803 97.4021 -5.65546e-16
      vertex -5.61803 96.6756 -25
      vertex -4.61803 97.4021 -25
    endloop
  endfacet
  facet normal -0.951056 -0.309017 0
    outer loop
      vertex -2 95.5 -25
      vertex -2.38197 96.6756 -2.91707e-16
      vertex -2.38197 96.6756 -25
    endloop
  endfacet
  facet normal -0.951056 -0.309017 0
    outer loop
      vertex -2.38197 96.6756 -2.91707e-16
      vertex -2 95.5 -25
      vertex -2 95.5 -2.44929e-16
    endloop
  endfacet
  facet normal 0.951056 0.309018 0
    outer loop
      vertex -5.61803 94.3244 -6.88011e-16
      vertex -6 95.5 -25
      vertex -6 95.5 -7.34788e-16
    endloop
  endfacet
  facet normal 0.951056 0.309018 0
    outer loop
      vertex -6 95.5 -25
      vertex -5.61803 94.3244 -6.88011e-16
      vertex -5.61803 94.3244 -25
    endloop
  endfacet
  facet normal 0 -1 0
    outer loop
      vertex -4.61803 97.4021 -25
      vertex -3.38197 97.4021 -4.14171e-16
      vertex -4.61803 97.4021 -5.65546e-16
    endloop
  endfacet
  facet normal 0 -1 -0
    outer loop
      vertex -3.38197 97.4021 -4.14171e-16
      vertex -4.61803 97.4021 -25
      vertex -3.38197 97.4021 -25
    endloop
  endfacet
  facet normal -0.951056 0.309017 0
    outer loop
      vertex -2.38197 94.3244 -25
      vertex -2 95.5 -2.44929e-16
      vertex -2 95.5 -25
    endloop
  endfacet
  facet normal -0.951056 0.309017 0
    outer loop
      vertex -2 95.5 -2.44929e-16
      vertex -2.38197 94.3244 -25
      vertex -2.38197 94.3244 -2.91707e-16
    endloop
  endfacet
  facet normal 0 1 -0
    outer loop
      vertex -3.38197 93.5979 -25
      vertex -4.61803 93.5979 -5.65546e-16
      vertex -3.38197 93.5979 -4.14171e-16
    endloop
  endfacet
  facet normal 0 1 0
    outer loop
      vertex -4.61803 93.5979 -5.65546e-16
      vertex -3.38197 93.5979 -25
      vertex -4.61803 93.5979 -25
    endloop
  endfacet
  facet normal -0.587788 0.809015 0
    outer loop
      vertex -2.38197 94.3244 -25
      vertex -3.38197 93.5979 -4.14171e-16
      vertex -2.38197 94.3244 -2.91707e-16
    endloop
  endfacet
  facet normal -0.587788 0.809015 0
    outer loop
      vertex -3.38197 93.5979 -4.14171e-16
      vertex -2.38197 94.3244 -25
      vertex -3.38197 93.5979 -25
    endloop
  endfacet
  facet normal 1 -0 0
    outer loop
      vertex -14 41 -14
      vertex -14 42 -25
      vertex -14 42 -14
    endloop
  endfacet
  facet normal 1 0 0
    outer loop
      vertex -14 42 -25
      vertex -14 41 -14
      vertex -14 41 -25
    endloop
  endfacet
  facet normal -1 0 0
    outer loop
      vertex -34 41 -25
      vertex -34 42 -14
      vertex -34 42 -25
    endloop
  endfacet
  facet normal -1 -0 0
    outer loop
      vertex -34 42 -14
      vertex -34 41 -25
      vertex -34 41 -14
    endloop
  endfacet
  facet normal 0 1 -0
    outer loop
      vertex -14 42 -25
      vertex -34 42 -14
      vertex -14 42 -14
    endloop
  endfacet
  facet normal 0 1 0
    outer loop
      vertex -34 42 -14
      vertex -14 42 -25
      vertex -34 42 -25
    endloop
  endfacet
  facet normal -0 0 1
    outer loop
      vertex -34 42 -14
      vertex -14 41 -14
      vertex -14 42 -14
    endloop
  endfacet
  facet normal 0 0 1
    outer loop
      vertex -14 41 -14
      vertex -34 42 -14
      vertex -34 41 -14
    endloop
  endfacet
  facet normal 0 -1 0
    outer loop
      vertex -34 41 -25
      vertex -14 41 -14
      vertex -34 41 -14
    endloop
  endfacet
  facet normal 0 -1 -0
    outer loop
      vertex -14 41 -14
      vertex -34 41 -25
      vertex -14 41 -25
    endloop
  endfacet
  facet normal 1 -0 0
    outer loop
      vertex -14 81 -14
      vertex -14 82 -25
      vertex -14 82 -14
    endloop
  endfacet
  facet normal 1 0 0
    outer loop
      vertex -14 82 -25
      vertex -14 81 -14
      vertex -14 81 -25
    endloop
  endfacet
  facet normal -1 0 0
    outer loop
      vertex -34 81 -25
      vertex -34 82 -14
      vertex -34 82 -25
    endloop
  endfacet
  facet normal -1 -0 0
    outer loop
      vertex -34 82 -14
      vertex -34 81 -25
      vertex -34 81 -14
    endloop
  endfacet
  facet normal -0 0 1
    outer loop
      vertex -34 82 -14
      vertex -14 81 -14
      vertex -14 82 -14
    endloop
  endfacet
  facet normal 0 0 1
    outer loop
      vertex -14 81 -14
      vertex -34 82 -14
      vertex -34 81 -14
    endloop
  endfacet
  facet normal 0 -1 0
    outer loop
      vertex -34 81 -25
      vertex -14 81 -14
      vertex -34 81 -14
    endloop
  endfacet
  facet normal 0 -1 -0
    outer loop
      vertex -14 81 -14
      vertex -34 81 -25
      vertex -14 81 -25
    endloop
  endfacet
  facet normal 0 1 -0
    outer loop
      vertex -14 82 -25
      vertex -34 82 -14
      vertex -14 82 -14
    endloop
  endfacet
  facet normal 0 1 0
    outer loop
      vertex -34 82 -14
      vertex -14 82 -25
      vertex -34 82 -25
    endloop
  endfacet
  facet normal 1 0 0
    outer loop
      vertex -9 72.9511 -16.309
      vertex -9 75 -14
      vertex -9 72.9511 -15.691
    endloop
  endfacet
  facet normal 1 0 0
    outer loop
      vertex -9 75 -14
      vertex -9 72.5878 -15.191
      vertex -9 72.9511 -15.691
    endloop
  endfacet
  facet normal 1 0 0
    outer loop
      vertex -9 75 -14
      vertex -9 72 -15
      vertex -9 72.5878 -15.191
    endloop
  endfacet
  facet normal 1 0 0
    outer loop
      vertex -9 58 -15
      vertex -9 72 -15
      vertex -9 75 -14
    endloop
  endfacet
  facet normal 1 0 0
    outer loop
      vertex -9 71.0489 -15.691
      vertex -9 58.9511 -15.691
      vertex -9 71.0489 -16.309
    endloop
  endfacet
  facet normal 1 0 0
    outer loop
      vertex -9 71.4122 -15.191
      vertex -9 58.9511 -15.691
      vertex -9 71.0489 -15.691
    endloop
  endfacet
  facet normal 1 0 0
    outer loop
      vertex -9 72 -15
      vertex -9 58 -15
      vertex -9 71.4122 -15.191
    endloop
  endfacet
  facet normal 1 0 0
    outer loop
      vertex -9 71.4122 -15.191
      vertex -9 58.5878 -15.191
      vertex -9 58.9511 -15.691
    endloop
  endfacet
  facet normal 1 0 0
    outer loop
      vertex -9 71.4122 -15.191
      vertex -9 58 -15
      vertex -9 58.5878 -15.191
    endloop
  endfacet
  facet normal 1 0 0
    outer loop
      vertex -9 57.0489 -15.691
      vertex -9 55 -14
      vertex -9 57.0489 -16.309
    endloop
  endfacet
  facet normal 1 0 0
    outer loop
      vertex -9 57.4122 -15.191
      vertex -9 55 -14
      vertex -9 57.0489 -15.691
    endloop
  endfacet
  facet normal 1 0 0
    outer loop
      vertex -9 58 -15
      vertex -9 55 -14
      vertex -9 57.4122 -15.191
    endloop
  endfacet
  facet normal 1 -0 0
    outer loop
      vertex -9 55 -14
      vertex -9 58 -15
      vertex -9 75 -14
    endloop
  endfacet
  facet normal 1 0 0
    outer loop
      vertex -9 75 -14
      vertex -9 72.9511 -16.309
      vertex -9 75 -25
    endloop
  endfacet
  facet normal 1 -0 0
    outer loop
      vertex -9 72.5878 -16.809
      vertex -9 75 -25
      vertex -9 72.9511 -16.309
    endloop
  endfacet
  facet normal 1 -0 0
    outer loop
      vertex -9 72 -17
      vertex -9 75 -25
      vertex -9 72.5878 -16.809
    endloop
  endfacet
  facet normal 1 0 0
    outer loop
      vertex -9 71.4122 -16.809
      vertex -9 75 -25
      vertex -9 72 -17
    endloop
  endfacet
  facet normal 1 0 0
    outer loop
      vertex -9 58.5878 -16.809
      vertex -9 71.4122 -16.809
      vertex -9 71.0489 -16.309
    endloop
  endfacet
  facet normal 1 0 0
    outer loop
      vertex -9 58.9511 -16.309
      vertex -9 71.0489 -16.309
      vertex -9 58.9511 -15.691
    endloop
  endfacet
  facet normal 1 0 0
    outer loop
      vertex -9 58.5878 -16.809
      vertex -9 71.0489 -16.309
      vertex -9 58.9511 -16.309
    endloop
  endfacet
  facet normal 1 0 0
    outer loop
      vertex -9 71.4122 -16.809
      vertex -9 58.5878 -16.809
      vertex -9 75 -25
    endloop
  endfacet
  facet normal 1 0 0
    outer loop
      vertex -9 55 -25
      vertex -9 58.5878 -16.809
      vertex -9 58 -17
    endloop
  endfacet
  facet normal 1 0 0
    outer loop
      vertex -9 55 -25
      vertex -9 58 -17
      vertex -9 57.4122 -16.809
    endloop
  endfacet
  facet normal 1 0 0
    outer loop
      vertex -9 55 -25
      vertex -9 57.0489 -16.309
      vertex -9 55 -14
    endloop
  endfacet
  facet normal 1 0 0
    outer loop
      vertex -9 58.5878 -16.809
      vertex -9 55 -25
      vertex -9 75 -25
    endloop
  endfacet
  facet normal 1 0 0
    outer loop
      vertex -9 57.0489 -16.309
      vertex -9 55 -25
      vertex -9 57.4122 -16.809
    endloop
  endfacet
  facet normal -1 0 0
    outer loop
      vertex -10 75 -25
      vertex -10 72.9511 -16.309
      vertex -10 75 -14
    endloop
  endfacet
  facet normal -1 0 0
    outer loop
      vertex -10 75 -25
      vertex -10 72.5878 -16.809
      vertex -10 72.9511 -16.309
    endloop
  endfacet
  facet normal -1 0 0
    outer loop
      vertex -10 75 -25
      vertex -10 72 -17
      vertex -10 72.5878 -16.809
    endloop
  endfacet
  facet normal -1 0 0
    outer loop
      vertex -10 75 -25
      vertex -10 71.4122 -16.809
      vertex -10 72 -17
    endloop
  endfacet
  facet normal -1 0 0
    outer loop
      vertex -10 58.5878 -16.809
      vertex -10 71.4122 -16.809
      vertex -10 75 -25
    endloop
  endfacet
  facet normal -1 0 0
    outer loop
      vertex -10 71.0489 -16.309
      vertex -10 58.9511 -16.309
      vertex -10 71.0489 -15.691
    endloop
  endfacet
  facet normal -1 0 0
    outer loop
      vertex -10 71.4122 -16.809
      vertex -10 58.5878 -16.809
      vertex -10 71.0489 -16.309
    endloop
  endfacet
  facet normal -1 -0 0
    outer loop
      vertex -10 71.0489 -16.309
      vertex -10 58.5878 -16.809
      vertex -10 58.9511 -16.309
    endloop
  endfacet
  facet normal -1 0 0
    outer loop
      vertex -10 55 -25
      vertex -10 58.5878 -16.809
      vertex -10 75 -25
    endloop
  endfacet
  facet normal -1 0 0
    outer loop
      vertex -10 58.5878 -16.809
      vertex -10 55 -25
      vertex -10 58 -17
    endloop
  endfacet
  facet normal -1 0 0
    outer loop
      vertex -10 55 -14
      vertex -10 57.0489 -16.309
      vertex -10 55 -25
    endloop
  endfacet
  facet normal -1 -0 0
    outer loop
      vertex -10 57.4122 -16.809
      vertex -10 55 -25
      vertex -10 57.0489 -16.309
    endloop
  endfacet
  facet normal -1 -0 0
    outer loop
      vertex -10 58 -17
      vertex -10 55 -25
      vertex -10 57.4122 -16.809
    endloop
  endfacet
  facet normal -1 0 0
    outer loop
      vertex -10 72.9511 -15.691
      vertex -10 75 -14
      vertex -10 72.9511 -16.309
    endloop
  endfacet
  facet normal -1 0 0
    outer loop
      vertex -10 72.5878 -15.191
      vertex -10 75 -14
      vertex -10 72.9511 -15.691
    endloop
  endfacet
  facet normal -1 0 0
    outer loop
      vertex -10 72 -15
      vertex -10 75 -14
      vertex -10 72.5878 -15.191
    endloop
  endfacet
  facet normal -1 0 0
    outer loop
      vertex -10 58 -15
      vertex -10 72 -15
      vertex -10 71.4122 -15.191
    endloop
  endfacet
  facet normal -1 0 0
    outer loop
      vertex -10 58.9511 -15.691
      vertex -10 71.0489 -15.691
      vertex -10 58.9511 -16.309
    endloop
  endfacet
  facet normal -1 0 0
    outer loop
      vertex -10 71.0489 -15.691
      vertex -10 58.9511 -15.691
      vertex -10 71.4122 -15.191
    endloop
  endfacet
  facet normal -1 0 0
    outer loop
      vertex -10 58.5878 -15.191
      vertex -10 71.4122 -15.191
      vertex -10 58.9511 -15.691
    endloop
  endfacet
  facet normal -1 0 0
    outer loop
      vertex -10 58 -15
      vertex -10 71.4122 -15.191
      vertex -10 58.5878 -15.191
    endloop
  endfacet
  facet normal -1 0 0
    outer loop
      vertex -10 72 -15
      vertex -10 58 -15
      vertex -10 75 -14
    endloop
  endfacet
  facet normal -1 0 0
    outer loop
      vertex -10 58 -15
      vertex -10 55 -14
      vertex -10 75 -14
    endloop
  endfacet
  facet normal -1 0 0
    outer loop
      vertex -10 57.4122 -15.191
      vertex -10 55 -14
      vertex -10 58 -15
    endloop
  endfacet
  facet normal -1 0 0
    outer loop
      vertex -10 57.0489 -15.691
      vertex -10 55 -14
      vertex -10 57.4122 -15.191
    endloop
  endfacet
  facet normal -1 0 0
    outer loop
      vertex -10 57.0489 -16.309
      vertex -10 55 -14
      vertex -10 57.0489 -15.691
    endloop
  endfacet
  facet normal 0 1 -0
    outer loop
      vertex -9 75 -25
      vertex -10 75 -14
      vertex -9 75 -14
    endloop
  endfacet
  facet normal 0 1 0
    outer loop
      vertex -10 75 -14
      vertex -9 75 -25
      vertex -10 75 -25
    endloop
  endfacet
  facet normal -0 0 1
    outer loop
      vertex -10 75 -14
      vertex -9 55 -14
      vertex -9 75 -14
    endloop
  endfacet
  facet normal 0 0 1
    outer loop
      vertex -9 55 -14
      vertex -10 75 -14
      vertex -10 55 -14
    endloop
  endfacet
  facet normal 0 -1 0
    outer loop
      vertex -10 55 -25
      vertex -9 55 -14
      vertex -10 55 -14
    endloop
  endfacet
  facet normal 0 -1 -0
    outer loop
      vertex -9 55 -14
      vertex -10 55 -25
      vertex -9 55 -25
    endloop
  endfacet
  facet normal 1 0 0
    outer loop
      vertex -41 72.9511 -16.309
      vertex -41 75 -14
      vertex -41 72.9511 -15.691
    endloop
  endfacet
  facet normal 1 0 0
    outer loop
      vertex -41 75 -14
      vertex -41 72.5878 -15.191
      vertex -41 72.9511 -15.691
    endloop
  endfacet
  facet normal 1 0 0
    outer loop
      vertex -41 75 -14
      vertex -41 72 -15
      vertex -41 72.5878 -15.191
    endloop
  endfacet
  facet normal 1 0 0
    outer loop
      vertex -41 58 -15
      vertex -41 72 -15
      vertex -41 75 -14
    endloop
  endfacet
  facet normal 1 0 0
    outer loop
      vertex -41 71.0489 -15.691
      vertex -41 58.9511 -15.691
      vertex -41 71.0489 -16.309
    endloop
  endfacet
  facet normal 1 0 0
    outer loop
      vertex -41 71.4122 -15.191
      vertex -41 58.9511 -15.691
      vertex -41 71.0489 -15.691
    endloop
  endfacet
  facet normal 1 0 0
    outer loop
      vertex -41 72 -15
      vertex -41 58 -15
      vertex -41 71.4122 -15.191
    endloop
  endfacet
  facet normal 1 0 0
    outer loop
      vertex -41 71.4122 -15.191
      vertex -41 58.5878 -15.191
      vertex -41 58.9511 -15.691
    endloop
  endfacet
  facet normal 1 0 0
    outer loop
      vertex -41 71.4122 -15.191
      vertex -41 58 -15
      vertex -41 58.5878 -15.191
    endloop
  endfacet
  facet normal 1 0 0
    outer loop
      vertex -41 57.0489 -15.691
      vertex -41 55 -14
      vertex -41 57.0489 -16.309
    endloop
  endfacet
  facet normal 1 0 0
    outer loop
      vertex -41 57.4122 -15.191
      vertex -41 55 -14
      vertex -41 57.0489 -15.691
    endloop
  endfacet
  facet normal 1 0 0
    outer loop
      vertex -41 58 -15
      vertex -41 55 -14
      vertex -41 57.4122 -15.191
    endloop
  endfacet
  facet normal 1 -0 0
    outer loop
      vertex -41 55 -14
      vertex -41 58 -15
      vertex -41 75 -14
    endloop
  endfacet
  facet normal 1 0 0
    outer loop
      vertex -41 75 -14
      vertex -41 72.9511 -16.309
      vertex -41 75 -25
    endloop
  endfacet
  facet normal 1 -0 0
    outer loop
      vertex -41 72.5878 -16.809
      vertex -41 75 -25
      vertex -41 72.9511 -16.309
    endloop
  endfacet
  facet normal 1 -0 0
    outer loop
      vertex -41 72 -17
      vertex -41 75 -25
      vertex -41 72.5878 -16.809
    endloop
  endfacet
  facet normal 1 0 0
    outer loop
      vertex -41 71.4122 -16.809
      vertex -41 75 -25
      vertex -41 72 -17
    endloop
  endfacet
  facet normal 1 0 0
    outer loop
      vertex -41 58.5878 -16.809
      vertex -41 71.4122 -16.809
      vertex -41 71.0489 -16.309
    endloop
  endfacet
  facet normal 1 0 0
    outer loop
      vertex -41 58.9511 -16.309
      vertex -41 71.0489 -16.309
      vertex -41 58.9511 -15.691
    endloop
  endfacet
  facet normal 1 0 0
    outer loop
      vertex -41 58.5878 -16.809
      vertex -41 71.0489 -16.309
      vertex -41 58.9511 -16.309
    endloop
  endfacet
  facet normal 1 0 0
    outer loop
      vertex -41 71.4122 -16.809
      vertex -41 58.5878 -16.809
      vertex -41 75 -25
    endloop
  endfacet
  facet normal 1 0 0
    outer loop
      vertex -41 55 -25
      vertex -41 58.5878 -16.809
      vertex -41 58 -17
    endloop
  endfacet
  facet normal 1 0 0
    outer loop
      vertex -41 55 -25
      vertex -41 58 -17
      vertex -41 57.4122 -16.809
    endloop
  endfacet
  facet normal 1 0 0
    outer loop
      vertex -41 55 -25
      vertex -41 57.0489 -16.309
      vertex -41 55 -14
    endloop
  endfacet
  facet normal 1 0 0
    outer loop
      vertex -41 58.5878 -16.809
      vertex -41 55 -25
      vertex -41 75 -25
    endloop
  endfacet
  facet normal 1 0 0
    outer loop
      vertex -41 57.0489 -16.309
      vertex -41 55 -25
      vertex -41 57.4122 -16.809
    endloop
  endfacet
  facet normal -1 0 0
    outer loop
      vertex -42 75 -25
      vertex -42 72.9511 -16.309
      vertex -42 75 -14
    endloop
  endfacet
  facet normal -1 0 0
    outer loop
      vertex -42 75 -25
      vertex -42 72.5878 -16.809
      vertex -42 72.9511 -16.309
    endloop
  endfacet
  facet normal -1 0 0
    outer loop
      vertex -42 75 -25
      vertex -42 72 -17
      vertex -42 72.5878 -16.809
    endloop
  endfacet
  facet normal -1 0 0
    outer loop
      vertex -42 75 -25
      vertex -42 71.4122 -16.809
      vertex -42 72 -17
    endloop
  endfacet
  facet normal -1 0 0
    outer loop
      vertex -42 58.5878 -16.809
      vertex -42 71.4122 -16.809
      vertex -42 75 -25
    endloop
  endfacet
  facet normal -1 0 0
    outer loop
      vertex -42 71.0489 -16.309
      vertex -42 58.9511 -16.309
      vertex -42 71.0489 -15.691
    endloop
  endfacet
  facet normal -1 0 0
    outer loop
      vertex -42 71.4122 -16.809
      vertex -42 58.5878 -16.809
      vertex -42 71.0489 -16.309
    endloop
  endfacet
  facet normal -1 -0 0
    outer loop
      vertex -42 71.0489 -16.309
      vertex -42 58.5878 -16.809
      vertex -42 58.9511 -16.309
    endloop
  endfacet
  facet normal -1 0 0
    outer loop
      vertex -42 55 -25
      vertex -42 58.5878 -16.809
      vertex -42 75 -25
    endloop
  endfacet
  facet normal -1 0 0
    outer loop
      vertex -42 58.5878 -16.809
      vertex -42 55 -25
      vertex -42 58 -17
    endloop
  endfacet
  facet normal -1 0 0
    outer loop
      vertex -42 55 -14
      vertex -42 57.0489 -16.309
      vertex -42 55 -25
    endloop
  endfacet
  facet normal -1 -0 0
    outer loop
      vertex -42 57.4122 -16.809
      vertex -42 55 -25
      vertex -42 57.0489 -16.309
    endloop
  endfacet
  facet normal -1 -0 0
    outer loop
      vertex -42 58 -17
      vertex -42 55 -25
      vertex -42 57.4122 -16.809
    endloop
  endfacet
  facet normal -1 0 0
    outer loop
      vertex -42 72.9511 -15.691
      vertex -42 75 -14
      vertex -42 72.9511 -16.309
    endloop
  endfacet
  facet normal -1 0 0
    outer loop
      vertex -42 72.5878 -15.191
      vertex -42 75 -14
      vertex -42 72.9511 -15.691
    endloop
  endfacet
  facet normal -1 0 0
    outer loop
      vertex -42 72 -15
      vertex -42 75 -14
      vertex -42 72.5878 -15.191
    endloop
  endfacet
  facet normal -1 0 0
    outer loop
      vertex -42 58 -15
      vertex -42 72 -15
      vertex -42 71.4122 -15.191
    endloop
  endfacet
  facet normal -1 0 0
    outer loop
      vertex -42 58.9511 -15.691
      vertex -42 71.0489 -15.691
      vertex -42 58.9511 -16.309
    endloop
  endfacet
  facet normal -1 0 0
    outer loop
      vertex -42 71.0489 -15.691
      vertex -42 58.9511 -15.691
      vertex -42 71.4122 -15.191
    endloop
  endfacet
  facet normal -1 0 0
    outer loop
      vertex -42 58.5878 -15.191
      vertex -42 71.4122 -15.191
      vertex -42 58.9511 -15.691
    endloop
  endfacet
  facet normal -1 0 0
    outer loop
      vertex -42 58 -15
      vertex -42 71.4122 -15.191
      vertex -42 58.5878 -15.191
    endloop
  endfacet
  facet normal -1 0 0
    outer loop
      vertex -42 72 -15
      vertex -42 58 -15
      vertex -42 75 -14
    endloop
  endfacet
  facet normal -1 0 0
    outer loop
      vertex -42 58 -15
      vertex -42 55 -14
      vertex -42 75 -14
    endloop
  endfacet
  facet normal -1 0 0
    outer loop
      vertex -42 57.4122 -15.191
      vertex -42 55 -14
      vertex -42 58 -15
    endloop
  endfacet
  facet normal -1 0 0
    outer loop
      vertex -42 57.0489 -15.691
      vertex -42 55 -14
      vertex -42 57.4122 -15.191
    endloop
  endfacet
  facet normal -1 0 0
    outer loop
      vertex -42 57.0489 -16.309
      vertex -42 55 -14
      vertex -42 57.0489 -15.691
    endloop
  endfacet
  facet normal -0 0 1
    outer loop
      vertex -42 75 -14
      vertex -41 55 -14
      vertex -41 75 -14
    endloop
  endfacet
  facet normal 0 0 1
    outer loop
      vertex -41 55 -14
      vertex -42 75 -14
      vertex -42 55 -14
    endloop
  endfacet
  facet normal 0 -1 0
    outer loop
      vertex -42 55 -25
      vertex -41 55 -14
      vertex -42 55 -14
    endloop
  endfacet
  facet normal 0 -1 -0
    outer loop
      vertex -41 55 -14
      vertex -42 55 -25
      vertex -41 55 -25
    endloop
  endfacet
  facet normal 0 1 -0
    outer loop
      vertex -41 75 -25
      vertex -42 75 -14
      vertex -41 75 -14
    endloop
  endfacet
  facet normal 0 1 0
    outer loop
      vertex -42 75 -14
      vertex -41 75 -25
      vertex -42 75 -25
    endloop
  endfacet
  facet normal 0 -0.309017 -0.951056
    outer loop
      vertex -10 58 -15
      vertex -9 58.5878 -15.191
      vertex -9 58 -15
    endloop
  endfacet
  facet normal -0 -0.309017 -0.951056
    outer loop
      vertex -9 58.5878 -15.191
      vertex -10 58 -15
      vertex -10 58.5878 -15.191
    endloop
  endfacet
  facet normal 0 -0.309017 -0.951056
    outer loop
      vertex -42 58 -15
      vertex -41 58.5878 -15.191
      vertex -41 58 -15
    endloop
  endfacet
  facet normal -0 -0.309017 -0.951056
    outer loop
      vertex -41 58.5878 -15.191
      vertex -42 58 -15
      vertex -42 58.5878 -15.191
    endloop
  endfacet
  facet normal 0 -0.309017 0.951056
    outer loop
      vertex -10 58.5878 -16.809
      vertex -9 58 -17
      vertex -9 58.5878 -16.809
    endloop
  endfacet
  facet normal 0 -0.309017 0.951056
    outer loop
      vertex -9 58 -17
      vertex -10 58.5878 -16.809
      vertex -10 58 -17
    endloop
  endfacet
  facet normal 0 -0.309017 0.951056
    outer loop
      vertex -42 58.5878 -16.809
      vertex -41 58 -17
      vertex -41 58.5878 -16.809
    endloop
  endfacet
  facet normal 0 -0.309017 0.951056
    outer loop
      vertex -41 58 -17
      vertex -42 58.5878 -16.809
      vertex -42 58 -17
    endloop
  endfacet
  facet normal 0 1 -0
    outer loop
      vertex -9 57.0489 -16.309
      vertex -10 57.0489 -15.691
      vertex -9 57.0489 -15.691
    endloop
  endfacet
  facet normal 0 1 0
    outer loop
      vertex -10 57.0489 -15.691
      vertex -9 57.0489 -16.309
      vertex -10 57.0489 -16.309
    endloop
  endfacet
  facet normal 0 1 -0
    outer loop
      vertex -41 57.0489 -16.309
      vertex -42 57.0489 -15.691
      vertex -41 57.0489 -15.691
    endloop
  endfacet
  facet normal 0 1 0
    outer loop
      vertex -42 57.0489 -15.691
      vertex -41 57.0489 -16.309
      vertex -42 57.0489 -16.309
    endloop
  endfacet
  facet normal 0 -0.809015 -0.587788
    outer loop
      vertex -10 58.9511 -15.691
      vertex -9 58.5878 -15.191
      vertex -10 58.5878 -15.191
    endloop
  endfacet
  facet normal 0 -0.809015 -0.587788
    outer loop
      vertex -9 58.5878 -15.191
      vertex -10 58.9511 -15.691
      vertex -9 58.9511 -15.691
    endloop
  endfacet
  facet normal 0 -0.809015 -0.587788
    outer loop
      vertex -42 58.9511 -15.691
      vertex -41 58.5878 -15.191
      vertex -42 58.5878 -15.191
    endloop
  endfacet
  facet normal 0 -0.809015 -0.587788
    outer loop
      vertex -41 58.5878 -15.191
      vertex -42 58.9511 -15.691
      vertex -41 58.9511 -15.691
    endloop
  endfacet
  facet normal 0 -0.809015 0.587788
    outer loop
      vertex -10 58.5878 -16.809
      vertex -9 58.9511 -16.309
      vertex -10 58.9511 -16.309
    endloop
  endfacet
  facet normal 0 -0.809015 0.587788
    outer loop
      vertex -9 58.9511 -16.309
      vertex -10 58.5878 -16.809
      vertex -9 58.5878 -16.809
    endloop
  endfacet
  facet normal 0 -0.809015 0.587788
    outer loop
      vertex -42 58.5878 -16.809
      vertex -41 58.9511 -16.309
      vertex -42 58.9511 -16.309
    endloop
  endfacet
  facet normal 0 -0.809015 0.587788
    outer loop
      vertex -41 58.9511 -16.309
      vertex -42 58.5878 -16.809
      vertex -41 58.5878 -16.809
    endloop
  endfacet
  facet normal 0 -1 0
    outer loop
      vertex -10 58.9511 -16.309
      vertex -9 58.9511 -15.691
      vertex -10 58.9511 -15.691
    endloop
  endfacet
  facet normal 0 -1 -0
    outer loop
      vertex -9 58.9511 -15.691
      vertex -10 58.9511 -16.309
      vertex -9 58.9511 -16.309
    endloop
  endfacet
  facet normal 0 -1 0
    outer loop
      vertex -42 58.9511 -16.309
      vertex -41 58.9511 -15.691
      vertex -42 58.9511 -15.691
    endloop
  endfacet
  facet normal 0 -1 -0
    outer loop
      vertex -41 58.9511 -15.691
      vertex -42 58.9511 -16.309
      vertex -41 58.9511 -16.309
    endloop
  endfacet
  facet normal 0 0.309017 -0.951056
    outer loop
      vertex -10 57.4122 -15.191
      vertex -9 58 -15
      vertex -9 57.4122 -15.191
    endloop
  endfacet
  facet normal 0 0.309017 -0.951056
    outer loop
      vertex -9 58 -15
      vertex -10 57.4122 -15.191
      vertex -10 58 -15
    endloop
  endfacet
  facet normal 0 0.309017 -0.951056
    outer loop
      vertex -42 57.4122 -15.191
      vertex -41 58 -15
      vertex -41 57.4122 -15.191
    endloop
  endfacet
  facet normal 0 0.309017 -0.951056
    outer loop
      vertex -41 58 -15
      vertex -42 57.4122 -15.191
      vertex -42 58 -15
    endloop
  endfacet
  facet normal 0 0.809015 -0.587788
    outer loop
      vertex -9 57.0489 -15.691
      vertex -10 57.4122 -15.191
      vertex -9 57.4122 -15.191
    endloop
  endfacet
  facet normal 0 0.809015 -0.587788
    outer loop
      vertex -10 57.4122 -15.191
      vertex -9 57.0489 -15.691
      vertex -10 57.0489 -15.691
    endloop
  endfacet
  facet normal 0 0.809015 -0.587788
    outer loop
      vertex -41 57.0489 -15.691
      vertex -42 57.4122 -15.191
      vertex -41 57.4122 -15.191
    endloop
  endfacet
  facet normal 0 0.809015 -0.587788
    outer loop
      vertex -42 57.4122 -15.191
      vertex -41 57.0489 -15.691
      vertex -42 57.0489 -15.691
    endloop
  endfacet
  facet normal 0 0.809015 0.587788
    outer loop
      vertex -9 57.4122 -16.809
      vertex -10 57.0489 -16.309
      vertex -9 57.0489 -16.309
    endloop
  endfacet
  facet normal 0 0.809015 0.587788
    outer loop
      vertex -10 57.0489 -16.309
      vertex -9 57.4122 -16.809
      vertex -10 57.4122 -16.809
    endloop
  endfacet
  facet normal 0 0.809015 0.587788
    outer loop
      vertex -41 57.4122 -16.809
      vertex -42 57.0489 -16.309
      vertex -41 57.0489 -16.309
    endloop
  endfacet
  facet normal 0 0.809015 0.587788
    outer loop
      vertex -42 57.0489 -16.309
      vertex -41 57.4122 -16.809
      vertex -42 57.4122 -16.809
    endloop
  endfacet
  facet normal -0 0.309017 0.951056
    outer loop
      vertex -10 58 -17
      vertex -9 57.4122 -16.809
      vertex -9 58 -17
    endloop
  endfacet
  facet normal 0 0.309017 0.951056
    outer loop
      vertex -9 57.4122 -16.809
      vertex -10 58 -17
      vertex -10 57.4122 -16.809
    endloop
  endfacet
  facet normal -0 0.309017 0.951056
    outer loop
      vertex -42 58 -17
      vertex -41 57.4122 -16.809
      vertex -41 58 -17
    endloop
  endfacet
  facet normal 0 0.309017 0.951056
    outer loop
      vertex -41 57.4122 -16.809
      vertex -42 58 -17
      vertex -42 57.4122 -16.809
    endloop
  endfacet
  facet normal 0 -0.309017 -0.951056
    outer loop
      vertex -10 72 -15
      vertex -9 72.5878 -15.191
      vertex -9 72 -15
    endloop
  endfacet
  facet normal -0 -0.309017 -0.951056
    outer loop
      vertex -9 72.5878 -15.191
      vertex -10 72 -15
      vertex -10 72.5878 -15.191
    endloop
  endfacet
  facet normal 0 -0.309017 -0.951056
    outer loop
      vertex -42 72 -15
      vertex -41 72.5878 -15.191
      vertex -41 72 -15
    endloop
  endfacet
  facet normal -0 -0.309017 -0.951056
    outer loop
      vertex -41 72.5878 -15.191
      vertex -42 72 -15
      vertex -42 72.5878 -15.191
    endloop
  endfacet
  facet normal 0 -0.309017 0.951056
    outer loop
      vertex -10 72.5878 -16.809
      vertex -9 72 -17
      vertex -9 72.5878 -16.809
    endloop
  endfacet
  facet normal 0 -0.309017 0.951056
    outer loop
      vertex -9 72 -17
      vertex -10 72.5878 -16.809
      vertex -10 72 -17
    endloop
  endfacet
  facet normal 0 -0.309017 0.951056
    outer loop
      vertex -42 72.5878 -16.809
      vertex -41 72 -17
      vertex -41 72.5878 -16.809
    endloop
  endfacet
  facet normal 0 -0.309017 0.951056
    outer loop
      vertex -41 72 -17
      vertex -42 72.5878 -16.809
      vertex -42 72 -17
    endloop
  endfacet
  facet normal 0 -0.809015 -0.587788
    outer loop
      vertex -10 72.9511 -15.691
      vertex -9 72.5878 -15.191
      vertex -10 72.5878 -15.191
    endloop
  endfacet
  facet normal 0 -0.809015 -0.587788
    outer loop
      vertex -9 72.5878 -15.191
      vertex -10 72.9511 -15.691
      vertex -9 72.9511 -15.691
    endloop
  endfacet
  facet normal 0 -0.809015 -0.587788
    outer loop
      vertex -42 72.9511 -15.691
      vertex -41 72.5878 -15.191
      vertex -42 72.5878 -15.191
    endloop
  endfacet
  facet normal 0 -0.809015 -0.587788
    outer loop
      vertex -41 72.5878 -15.191
      vertex -42 72.9511 -15.691
      vertex -41 72.9511 -15.691
    endloop
  endfacet
  facet normal 0 -0.809015 0.587788
    outer loop
      vertex -10 72.5878 -16.809
      vertex -9 72.9511 -16.309
      vertex -10 72.9511 -16.309
    endloop
  endfacet
  facet normal 0 -0.809015 0.587788
    outer loop
      vertex -9 72.9511 -16.309
      vertex -10 72.5878 -16.809
      vertex -9 72.5878 -16.809
    endloop
  endfacet
  facet normal 0 -0.809015 0.587788
    outer loop
      vertex -42 72.5878 -16.809
      vertex -41 72.9511 -16.309
      vertex -42 72.9511 -16.309
    endloop
  endfacet
  facet normal 0 -0.809015 0.587788
    outer loop
      vertex -41 72.9511 -16.309
      vertex -42 72.5878 -16.809
      vertex -41 72.5878 -16.809
    endloop
  endfacet
  facet normal -0 0.309017 0.951056
    outer loop
      vertex -10 72 -17
      vertex -9 71.4122 -16.809
      vertex -9 72 -17
    endloop
  endfacet
  facet normal 0 0.309017 0.951056
    outer loop
      vertex -9 71.4122 -16.809
      vertex -10 72 -17
      vertex -10 71.4122 -16.809
    endloop
  endfacet
  facet normal -0 0.309017 0.951056
    outer loop
      vertex -42 72 -17
      vertex -41 71.4122 -16.809
      vertex -41 72 -17
    endloop
  endfacet
  facet normal 0 0.309017 0.951056
    outer loop
      vertex -41 71.4122 -16.809
      vertex -42 72 -17
      vertex -42 71.4122 -16.809
    endloop
  endfacet
  facet normal 0 -1 0
    outer loop
      vertex -10 72.9511 -16.309
      vertex -9 72.9511 -15.691
      vertex -10 72.9511 -15.691
    endloop
  endfacet
  facet normal 0 -1 -0
    outer loop
      vertex -9 72.9511 -15.691
      vertex -10 72.9511 -16.309
      vertex -9 72.9511 -16.309
    endloop
  endfacet
  facet normal 0 -1 0
    outer loop
      vertex -42 72.9511 -16.309
      vertex -41 72.9511 -15.691
      vertex -42 72.9511 -15.691
    endloop
  endfacet
  facet normal 0 -1 -0
    outer loop
      vertex -41 72.9511 -15.691
      vertex -42 72.9511 -16.309
      vertex -41 72.9511 -16.309
    endloop
  endfacet
  facet normal 0 1 -0
    outer loop
      vertex -9 71.0489 -16.309
      vertex -10 71.0489 -15.691
      vertex -9 71.0489 -15.691
    endloop
  endfacet
  facet normal 0 1 0
    outer loop
      vertex -10 71.0489 -15.691
      vertex -9 71.0489 -16.309
      vertex -10 71.0489 -16.309
    endloop
  endfacet
  facet normal 0 1 -0
    outer loop
      vertex -41 71.0489 -16.309
      vertex -42 71.0489 -15.691
      vertex -41 71.0489 -15.691
    endloop
  endfacet
  facet normal 0 1 0
    outer loop
      vertex -42 71.0489 -15.691
      vertex -41 71.0489 -16.309
      vertex -42 71.0489 -16.309
    endloop
  endfacet
  facet normal 0 0.809015 -0.587788
    outer loop
      vertex -9 71.0489 -15.691
      vertex -10 71.4122 -15.191
      vertex -9 71.4122 -15.191
    endloop
  endfacet
  facet normal 0 0.809015 -0.587788
    outer loop
      vertex -10 71.4122 -15.191
      vertex -9 71.0489 -15.691
      vertex -10 71.0489 -15.691
    endloop
  endfacet
  facet normal 0 0.809015 -0.587788
    outer loop
      vertex -41 71.0489 -15.691
      vertex -42 71.4122 -15.191
      vertex -41 71.4122 -15.191
    endloop
  endfacet
  facet normal 0 0.809015 -0.587788
    outer loop
      vertex -42 71.4122 -15.191
      vertex -41 71.0489 -15.691
      vertex -42 71.0489 -15.691
    endloop
  endfacet
  facet normal 0 0.809015 0.587788
    outer loop
      vertex -9 71.4122 -16.809
      vertex -10 71.0489 -16.309
      vertex -9 71.0489 -16.309
    endloop
  endfacet
  facet normal 0 0.809015 0.587788
    outer loop
      vertex -10 71.0489 -16.309
      vertex -9 71.4122 -16.809
      vertex -10 71.4122 -16.809
    endloop
  endfacet
  facet normal 0 0.809015 0.587788
    outer loop
      vertex -41 71.4122 -16.809
      vertex -42 71.0489 -16.309
      vertex -41 71.0489 -16.309
    endloop
  endfacet
  facet normal 0 0.809015 0.587788
    outer loop
      vertex -42 71.0489 -16.309
      vertex -41 71.4122 -16.809
      vertex -42 71.4122 -16.809
    endloop
  endfacet
  facet normal 0 0.309017 -0.951056
    outer loop
      vertex -10 71.4122 -15.191
      vertex -9 72 -15
      vertex -9 71.4122 -15.191
    endloop
  endfacet
  facet normal 0 0.309017 -0.951056
    outer loop
      vertex -9 72 -15
      vertex -10 71.4122 -15.191
      vertex -10 72 -15
    endloop
  endfacet
  facet normal 0 0.309017 -0.951056
    outer loop
      vertex -42 71.4122 -15.191
      vertex -41 72 -15
      vertex -41 71.4122 -15.191
    endloop
  endfacet
  facet normal 0 0.309017 -0.951056
    outer loop
      vertex -41 72 -15
      vertex -42 71.4122 -15.191
      vertex -42 72 -15
    endloop
  endfacet
  facet normal -1 0 0
    outer loop
      vertex -22 91.5 -25
      vertex -22 92.5 -9
      vertex -22 92.5 -25
    endloop
  endfacet
  facet normal -1 -0 0
    outer loop
      vertex -22 92.5 -9
      vertex -22 91.5 -25
      vertex -22 91.5 -9
    endloop
  endfacet
  facet normal 0 1 -0
    outer loop
      vertex -8 92.5 -25
      vertex -22 92.5 -9
      vertex -8 92.5 -9
    endloop
  endfacet
  facet normal 0 1 0
    outer loop
      vertex -22 92.5 -9
      vertex -8 92.5 -25
      vertex -22 92.5 -25
    endloop
  endfacet
  facet normal -0 0 1
    outer loop
      vertex -22 92.5 -9
      vertex -8 91.5 -9
      vertex -8 92.5 -9
    endloop
  endfacet
  facet normal 0 0 1
    outer loop
      vertex -8 91.5 -9
      vertex -22 92.5 -9
      vertex -22 91.5 -9
    endloop
  endfacet
endsolid OpenSCAD_Model
