solid OpenSCAD_Model
  facet normal 1 -0 0
    outer loop
      vertex 20 55 27
      vertex 20 63 25
      vertex 20 63 27
    endloop
  endfacet
  facet normal 1 0 0
    outer loop
      vertex 20 63 25
      vertex 20 55 27
      vertex 20 55 25
    endloop
  endfacet
  facet normal 1 -0 0
    outer loop
      vertex 20 71 27
      vertex 20 80 25
      vertex 20 80 27
    endloop
  endfacet
  facet normal 1 0 0
    outer loop
      vertex 20 80 25
      vertex 20 71 27
      vertex 20 71 25
    endloop
  endfacet
  facet normal 0 0 1
    outer loop
      vertex 20 63 27
      vertex 11.5 63 27
      vertex 20 55 27
    endloop
  endfacet
  facet normal 0 0 1
    outer loop
      vertex 210.309 100.951 27
      vertex 211 100 27
      vertex 210.809 100.588 27
    endloop
  endfacet
  facet normal 0 0 1
    outer loop
      vertex 211 100 27
      vertex 160 26 27
      vertex 211 0 27
    endloop
  endfacet
  facet normal 0 0 1
    outer loop
      vertex 211 100 27
      vertex 210.309 100.951 27
      vertex 160 93 27
    endloop
  endfacet
  facet normal 0 -0 1
    outer loop
      vertex 210.309 -0.951056 27
      vertex 211 0 27
      vertex 160 26 27
    endloop
  endfacet
  facet normal 0 0 1
    outer loop
      vertex 211 100 27
      vertex 160 93 27
      vertex 160 26 27
    endloop
  endfacet
  facet normal 0 0 1
    outer loop
      vertex 210.309 100.951 27
      vertex 50 93 27
      vertex 160 93 27
    endloop
  endfacet
  facet normal 0 0 1
    outer loop
      vertex 36.5 63 27
      vertex 50 93 27
      vertex 36.5 71 27
    endloop
  endfacet
  facet normal 0 0 1
    outer loop
      vertex 50 93 27
      vertex 28 80 27
      vertex 36.5 71 27
    endloop
  endfacet
  facet normal 0 0 1
    outer loop
      vertex -0.309016 100.951 27
      vertex 28 80 27
      vertex 50 93 27
    endloop
  endfacet
  facet normal 0 0 1
    outer loop
      vertex 20 80 27
      vertex 11.5 71 27
      vertex 20 71 27
    endloop
  endfacet
  facet normal 0 0 1
    outer loop
      vertex 20 80 27
      vertex -1 100 27
      vertex 11.5 71 27
    endloop
  endfacet
  facet normal -0 0 1
    outer loop
      vertex -1 100 27
      vertex 20 80 27
      vertex -0.309016 100.951 27
    endloop
  endfacet
  facet normal 0 0 1
    outer loop
      vertex 28 80 27
      vertex -0.309016 100.951 27
      vertex 20 80 27
    endloop
  endfacet
  facet normal -0 0 1
    outer loop
      vertex -0.309016 100.951 27
      vertex 50 93 27
      vertex 210.309 100.951 27
    endloop
  endfacet
  facet normal 0 0 1
    outer loop
      vertex 211 0 27
      vertex 210.309 -0.951056 27
      vertex 210.809 -0.587785 27
    endloop
  endfacet
  facet normal -0 0 1
    outer loop
      vertex 50 26 27
      vertex 210.309 -0.951056 27
      vertex 160 26 27
    endloop
  endfacet
  facet normal 0 0 1
    outer loop
      vertex 50 93 27
      vertex 36.5 63 27
      vertex 50 26 27
    endloop
  endfacet
  facet normal 0 0 1
    outer loop
      vertex 28 55 27
      vertex 36.5 63 27
      vertex 28 63 27
    endloop
  endfacet
  facet normal 0 0 1
    outer loop
      vertex 36.5 63 27
      vertex 28 55 27
      vertex 50 26 27
    endloop
  endfacet
  facet normal -0 0 1
    outer loop
      vertex 20 55 27
      vertex 50 26 27
      vertex 28 55 27
    endloop
  endfacet
  facet normal 0 0 1
    outer loop
      vertex -1 0 27
      vertex 20 55 27
      vertex 11.5 63 27
    endloop
  endfacet
  facet normal 0 0 1
    outer loop
      vertex 50 26 27
      vertex -0.309016 -0.951056 27
      vertex 210.309 -0.951056 27
    endloop
  endfacet
  facet normal 0 0 1
    outer loop
      vertex 20 55 27
      vertex -1 0 27
      vertex 50 26 27
    endloop
  endfacet
  facet normal 0 0 1
    outer loop
      vertex 11.5 71 27
      vertex -1 100 27
      vertex 11.5 63 27
    endloop
  endfacet
  facet normal 0 0 1
    outer loop
      vertex -1 100 27
      vertex -0.309016 100.951 27
      vertex -0.809016 100.588 27
    endloop
  endfacet
  facet normal 0 0 1
    outer loop
      vertex -1 0 27
      vertex 11.5 63 27
      vertex -1 100 27
    endloop
  endfacet
  facet normal 0 0 1
    outer loop
      vertex 50 26 27
      vertex -1 0 27
      vertex -0.309016 -0.951056 27
    endloop
  endfacet
  facet normal 0 0 1
    outer loop
      vertex -0.309016 -0.951056 27
      vertex -1 0 27
      vertex -0.809016 -0.587785 27
    endloop
  endfacet
  facet normal 0 0 1
    outer loop
      vertex 36.5 71 27
      vertex 28 80 27
      vertex 28 71 27
    endloop
  endfacet
  facet normal -1 0 0
    outer loop
      vertex 28 55 25
      vertex 28 63 27
      vertex 28 63 25
    endloop
  endfacet
  facet normal -1 -0 0
    outer loop
      vertex 28 63 27
      vertex 28 55 25
      vertex 28 55 27
    endloop
  endfacet
  facet normal -1 0 0
    outer loop
      vertex 28 71 25
      vertex 28 80 27
      vertex 28 80 25
    endloop
  endfacet
  facet normal -1 -0 0
    outer loop
      vertex 28 80 27
      vertex 28 71 25
      vertex 28 71 27
    endloop
  endfacet
  facet normal 0 -1 0
    outer loop
      vertex 20 80 25
      vertex 28 80 27
      vertex 20 80 27
    endloop
  endfacet
  facet normal 0 -1 -0
    outer loop
      vertex 28 80 27
      vertex 20 80 25
      vertex 28 80 25
    endloop
  endfacet
  facet normal 0 0 -1
    outer loop
      vertex 5.61803 94.3244 25
      vertex 5.61803 96.6756 25
      vertex 6 95.5 25
    endloop
  endfacet
  facet normal 0 0 -1
    outer loop
      vertex 4.61803 93.5979 25
      vertex 5.61803 96.6756 25
      vertex 5.61803 94.3244 25
    endloop
  endfacet
  facet normal 0 0 -1
    outer loop
      vertex 4.61803 93.5979 25
      vertex 4.61803 97.4021 25
      vertex 5.61803 96.6756 25
    endloop
  endfacet
  facet normal 0 0 -1
    outer loop
      vertex 3.38197 93.5979 25
      vertex 4.61803 97.4021 25
      vertex 4.61803 93.5979 25
    endloop
  endfacet
  facet normal 0 0 -1
    outer loop
      vertex 3.38197 93.5979 25
      vertex 3.38197 97.4021 25
      vertex 4.61803 97.4021 25
    endloop
  endfacet
  facet normal 0 0 -1
    outer loop
      vertex 2.38197 94.3244 25
      vertex 3.38197 97.4021 25
      vertex 3.38197 93.5979 25
    endloop
  endfacet
  facet normal 0 0 -1
    outer loop
      vertex 2.38197 94.3244 25
      vertex 2.38197 96.6756 25
      vertex 3.38197 97.4021 25
    endloop
  endfacet
  facet normal 0 -0 -1
    outer loop
      vertex 2.38197 96.6756 25
      vertex 2.38197 94.3244 25
      vertex 2 95.5 25
    endloop
  endfacet
  facet normal 0 0 -1
    outer loop
      vertex 20 71 25
      vertex 15 81 25
      vertex 20 80 25
    endloop
  endfacet
  facet normal 0 0 -1
    outer loop
      vertex 20 71 25
      vertex 10 75 25
      vertex 15 81 25
    endloop
  endfacet
  facet normal 0 0 -1
    outer loop
      vertex 10 75 25
      vertex 20 71 25
      vertex 11.5 71 25
    endloop
  endfacet
  facet normal 0 0 -1
    outer loop
      vertex 15 82 25
      vertex 22 91.5 25
      vertex 35 82 25
    endloop
  endfacet
  facet normal 0 0 -1
    outer loop
      vertex 11.5 63 25
      vertex 10 75 25
      vertex 11.5 71 25
    endloop
  endfacet
  facet normal 0 0 -1
    outer loop
      vertex 9 75 25
      vertex 15 81 25
      vertex 10 75 25
    endloop
  endfacet
  facet normal -0 0 -1
    outer loop
      vertex 15 81 25
      vertex 9 75 25
      vertex 15 82 25
    endloop
  endfacet
  facet normal 0 0 -1
    outer loop
      vertex 1 91.5 25
      vertex 15 82 25
      vertex 9 75 25
    endloop
  endfacet
  facet normal -0 0 -1
    outer loop
      vertex 15 41 25
      vertex 1 8 25
      vertex 9 55 25
    endloop
  endfacet
  facet normal 0 0 -1
    outer loop
      vertex 1 91.5 25
      vertex 9 55 25
      vertex 1 8 25
    endloop
  endfacet
  facet normal 0 0 -1
    outer loop
      vertex 15 82 25
      vertex 1 91.5 25
      vertex 22 91.5 25
    endloop
  endfacet
  facet normal 0 0 -1
    outer loop
      vertex 9 55 25
      vertex 1 91.5 25
      vertex 9 75 25
    endloop
  endfacet
  facet normal 0 0 -1
    outer loop
      vertex 15 42 25
      vertex 28 55 25
      vertex 35 42 25
    endloop
  endfacet
  facet normal -0 0 -1
    outer loop
      vertex 28 55 25
      vertex 15 42 25
      vertex 20 55 25
    endloop
  endfacet
  facet normal 0 0 -1
    outer loop
      vertex 10 55 25
      vertex 20 55 25
      vertex 15 42 25
    endloop
  endfacet
  facet normal 0 -0 -1
    outer loop
      vertex 11.5 63 25
      vertex 20 55 25
      vertex 10 55 25
    endloop
  endfacet
  facet normal 0 0 -1
    outer loop
      vertex 28 71 25
      vertex 35 81 25
      vertex 36.5 71 25
    endloop
  endfacet
  facet normal 0 0 -1
    outer loop
      vertex 28 80 25
      vertex 35 81 25
      vertex 28 71 25
    endloop
  endfacet
  facet normal 0 0 -1
    outer loop
      vertex 15 81 25
      vertex 28 80 25
      vertex 20 80 25
    endloop
  endfacet
  facet normal 0 0 -1
    outer loop
      vertex 28 80 25
      vertex 15 81 25
      vertex 35 81 25
    endloop
  endfacet
  facet normal 0 0 -1
    outer loop
      vertex 209 1 25
      vertex 160 26 25
      vertex 209 99 25
    endloop
  endfacet
  facet normal 0 0 -1
    outer loop
      vertex 8 1 25
      vertex 160 26 25
      vertex 209 1 25
    endloop
  endfacet
  facet normal 0 0 -1
    outer loop
      vertex 50 26 25
      vertex 42 55 25
      vertex 50 93 25
    endloop
  endfacet
  facet normal 0 0 -1
    outer loop
      vertex 35 42 25
      vertex 42 55 25
      vertex 50 26 25
    endloop
  endfacet
  facet normal 0 0 -1
    outer loop
      vertex 41 55 25
      vertex 36.5 63 25
      vertex 41 75 25
    endloop
  endfacet
  facet normal -0 0 -1
    outer loop
      vertex 42 55 25
      vertex 35 42 25
      vertex 41 55 25
    endloop
  endfacet
  facet normal 0 0 -1
    outer loop
      vertex 35 42 25
      vertex 50 26 25
      vertex 35 41 25
    endloop
  endfacet
  facet normal 0 0 -1
    outer loop
      vertex 8 8 25
      vertex 50 26 25
      vertex 8 1 25
    endloop
  endfacet
  facet normal 0 0 -1
    outer loop
      vertex 9 55 25
      vertex 15 42 25
      vertex 15 41 25
    endloop
  endfacet
  facet normal 0 0 -1
    outer loop
      vertex 10 75 25
      vertex 11.5 63 25
      vertex 10 55 25
    endloop
  endfacet
  facet normal 0 0 -1
    outer loop
      vertex 20 55 25
      vertex 11.5 63 25
      vertex 20 63 25
    endloop
  endfacet
  facet normal 0 0 -1
    outer loop
      vertex 15 42 25
      vertex 9 55 25
      vertex 10 55 25
    endloop
  endfacet
  facet normal 0 0 -1
    outer loop
      vertex 1 8 25
      vertex 15 41 25
      vertex 8 8 25
    endloop
  endfacet
  facet normal -0 0 -1
    outer loop
      vertex 35 41 25
      vertex 8 8 25
      vertex 15 41 25
    endloop
  endfacet
  facet normal -0 0 -1
    outer loop
      vertex 50 26 25
      vertex 8 8 25
      vertex 35 41 25
    endloop
  endfacet
  facet normal -0 0 -1
    outer loop
      vertex 160 26 25
      vertex 8 1 25
      vertex 50 26 25
    endloop
  endfacet
  facet normal 0 0 -1
    outer loop
      vertex 160 93 25
      vertex 209 99 25
      vertex 160 26 25
    endloop
  endfacet
  facet normal 0 0 -1
    outer loop
      vertex 8 99 25
      vertex 160 93 25
      vertex 50 93 25
    endloop
  endfacet
  facet normal 0 0 -1
    outer loop
      vertex 42 75 25
      vertex 50 93 25
      vertex 42 55 25
    endloop
  endfacet
  facet normal 0 0 -1
    outer loop
      vertex 35 82 25
      vertex 42 75 25
      vertex 41 75 25
    endloop
  endfacet
  facet normal 0 0 -1
    outer loop
      vertex 36.5 71 25
      vertex 41 75 25
      vertex 36.5 63 25
    endloop
  endfacet
  facet normal 0 0 -1
    outer loop
      vertex 35 81 25
      vertex 41 75 25
      vertex 36.5 71 25
    endloop
  endfacet
  facet normal 0 0 -1
    outer loop
      vertex 35 82 25
      vertex 41 75 25
      vertex 35 81 25
    endloop
  endfacet
  facet normal 0 0 -1
    outer loop
      vertex 42 75 25
      vertex 35 82 25
      vertex 50 93 25
    endloop
  endfacet
  facet normal 0 0 -1
    outer loop
      vertex 22 92.5 25
      vertex 35 82 25
      vertex 22 91.5 25
    endloop
  endfacet
  facet normal 0 0 -1
    outer loop
      vertex 35 82 25
      vertex 22 92.5 25
      vertex 50 93 25
    endloop
  endfacet
  facet normal 0 0 -1
    outer loop
      vertex 8 99 25
      vertex 50 93 25
      vertex 22 92.5 25
    endloop
  endfacet
  facet normal 0 0 -1
    outer loop
      vertex 8 99 25
      vertex 22 92.5 25
      vertex 8 92.5 25
    endloop
  endfacet
  facet normal 0 0 -1
    outer loop
      vertex 160 93 25
      vertex 8 99 25
      vertex 209 99 25
    endloop
  endfacet
  facet normal 0 0 -1
    outer loop
      vertex 28 55 25
      vertex 41 55 25
      vertex 35 42 25
    endloop
  endfacet
  facet normal 0 0 -1
    outer loop
      vertex 41 55 25
      vertex 28 55 25
      vertex 36.5 63 25
    endloop
  endfacet
  facet normal -0 0 -1
    outer loop
      vertex 36.5 63 25
      vertex 28 55 25
      vertex 28 63 25
    endloop
  endfacet
  facet normal 0 0 -1
    outer loop
      vertex 5.61803 2.82443 25
      vertex 5.61803 5.17557 25
      vertex 6 4 25
    endloop
  endfacet
  facet normal 0 0 -1
    outer loop
      vertex 4.61803 2.09789 25
      vertex 5.61803 5.17557 25
      vertex 5.61803 2.82443 25
    endloop
  endfacet
  facet normal 0 0 -1
    outer loop
      vertex 4.61803 2.09789 25
      vertex 4.61803 5.90211 25
      vertex 5.61803 5.17557 25
    endloop
  endfacet
  facet normal 0 0 -1
    outer loop
      vertex 3.38197 2.09789 25
      vertex 4.61803 5.90211 25
      vertex 4.61803 2.09789 25
    endloop
  endfacet
  facet normal 0 0 -1
    outer loop
      vertex 3.38197 2.09789 25
      vertex 3.38197 5.90211 25
      vertex 4.61803 5.90211 25
    endloop
  endfacet
  facet normal 0 0 -1
    outer loop
      vertex 2.38197 2.82443 25
      vertex 3.38197 5.90211 25
      vertex 3.38197 2.09789 25
    endloop
  endfacet
  facet normal 0 0 -1
    outer loop
      vertex 2.38197 2.82443 25
      vertex 2.38197 5.17557 25
      vertex 3.38197 5.90211 25
    endloop
  endfacet
  facet normal 0 -0 -1
    outer loop
      vertex 2.38197 5.17557 25
      vertex 2.38197 2.82443 25
      vertex 2 4 25
    endloop
  endfacet
  facet normal 0 1 -0
    outer loop
      vertex 28 55 25
      vertex 20 55 27
      vertex 28 55 27
    endloop
  endfacet
  facet normal 0 1 0
    outer loop
      vertex 20 55 27
      vertex 28 55 25
      vertex 20 55 25
    endloop
  endfacet
  facet normal 1 -0 0
    outer loop
      vertex 11.5 63 27
      vertex 11.5 71 25
      vertex 11.5 71 27
    endloop
  endfacet
  facet normal 1 0 0
    outer loop
      vertex 11.5 71 25
      vertex 11.5 63 27
      vertex 11.5 63 25
    endloop
  endfacet
  facet normal -1 0 0
    outer loop
      vertex 36.5 63 25
      vertex 36.5 71 27
      vertex 36.5 71 25
    endloop
  endfacet
  facet normal -1 -0 0
    outer loop
      vertex 36.5 71 27
      vertex 36.5 63 25
      vertex 36.5 63 27
    endloop
  endfacet
  facet normal 0 -1 0
    outer loop
      vertex 28 71 25
      vertex 36.5 71 27
      vertex 28 71 27
    endloop
  endfacet
  facet normal 0 -1 -0
    outer loop
      vertex 36.5 71 27
      vertex 28 71 25
      vertex 36.5 71 25
    endloop
  endfacet
  facet normal 0 -1 0
    outer loop
      vertex 11.5 71 25
      vertex 20 71 27
      vertex 11.5 71 27
    endloop
  endfacet
  facet normal 0 -1 -0
    outer loop
      vertex 20 71 27
      vertex 11.5 71 25
      vertex 20 71 25
    endloop
  endfacet
  facet normal 0 1 -0
    outer loop
      vertex 20 63 25
      vertex 11.5 63 27
      vertex 20 63 27
    endloop
  endfacet
  facet normal 0 1 0
    outer loop
      vertex 11.5 63 27
      vertex 20 63 25
      vertex 11.5 63 25
    endloop
  endfacet
  facet normal 0 1 -0
    outer loop
      vertex 36.5 63 25
      vertex 28 63 27
      vertex 36.5 63 27
    endloop
  endfacet
  facet normal 0 1 0
    outer loop
      vertex 28 63 27
      vertex 36.5 63 25
      vertex 28 63 25
    endloop
  endfacet
  facet normal 1 -0 0
    outer loop
      vertex 8 1 25
      vertex 8 8 0
      vertex 8 8 25
    endloop
  endfacet
  facet normal 1 0 0
    outer loop
      vertex 8 8 0
      vertex 8 1 25
      vertex 8 1 0
    endloop
  endfacet
  facet normal 0 0 -1
    outer loop
      vertex 8 91.5 0
      vertex 6 95.5 0
      vertex 8 99 0
    endloop
  endfacet
  facet normal 0 0 -1
    outer loop
      vertex 8 91.5 0
      vertex 5.61803 94.3244 0
      vertex 6 95.5 0
    endloop
  endfacet
  facet normal 0 0 -1
    outer loop
      vertex 8 91.5 0
      vertex 4.61803 93.5979 0
      vertex 5.61803 94.3244 0
    endloop
  endfacet
  facet normal 0 0 -1
    outer loop
      vertex 1 91.5 0
      vertex 4.61803 93.5979 0
      vertex 8 91.5 0
    endloop
  endfacet
  facet normal -0 0 -1
    outer loop
      vertex 2.38197 94.3244 0
      vertex 1 91.5 0
      vertex 2 95.5 0
    endloop
  endfacet
  facet normal -0 0 -1
    outer loop
      vertex 3.38197 93.5979 0
      vertex 1 91.5 0
      vertex 2.38197 94.3244 0
    endloop
  endfacet
  facet normal -0 0 -1
    outer loop
      vertex 4.61803 93.5979 0
      vertex 1 91.5 0
      vertex 3.38197 93.5979 0
    endloop
  endfacet
  facet normal 0 0 -1
    outer loop
      vertex 210.309 -0.951056 0
      vertex 211 0 0
      vertex 210.809 -0.587785 0
    endloop
  endfacet
  facet normal 0 0 -1
    outer loop
      vertex 211 0 0
      vertex 209 1 0
      vertex 211 100 0
    endloop
  endfacet
  facet normal -0 0 -1
    outer loop
      vertex 211 0 0
      vertex 210.309 -0.951056 0
      vertex 209 1 0
    endloop
  endfacet
  facet normal 0 0 -1
    outer loop
      vertex 209 99 0
      vertex 211 100 0
      vertex 209 1 0
    endloop
  endfacet
  facet normal 0 -0 -1
    outer loop
      vertex 210.309 100.951 0
      vertex 211 100 0
      vertex 209 99 0
    endloop
  endfacet
  facet normal 0 0 -1
    outer loop
      vertex 210.309 -0.951056 0
      vertex 8 1 0
      vertex 209 1 0
    endloop
  endfacet
  facet normal 0 0 -1
    outer loop
      vertex 8 1 0
      vertex 6 4 0
      vertex 8 8 0
    endloop
  endfacet
  facet normal 0 0 -1
    outer loop
      vertex 8 1 0
      vertex 5.61803 2.82443 0
      vertex 6 4 0
    endloop
  endfacet
  facet normal 0 0 -1
    outer loop
      vertex 8 1 0
      vertex 4.61803 2.09789 0
      vertex 5.61803 2.82443 0
    endloop
  endfacet
  facet normal 0 0 -1
    outer loop
      vertex -0.309016 -0.951056 0
      vertex 4.61803 2.09789 0
      vertex 8 1 0
    endloop
  endfacet
  facet normal -0 0 -1
    outer loop
      vertex 2 4 0
      vertex -1 0 0
      vertex 1 8 0
    endloop
  endfacet
  facet normal -0 0 -1
    outer loop
      vertex 2.38197 2.82443 0
      vertex -1 0 0
      vertex 2 4 0
    endloop
  endfacet
  facet normal 0 0 -1
    outer loop
      vertex -1 0 0
      vertex 2.38197 2.82443 0
      vertex -0.309016 -0.951056 0
    endloop
  endfacet
  facet normal -0 0 -1
    outer loop
      vertex 3.38197 2.09789 0
      vertex -0.309016 -0.951056 0
      vertex 2.38197 2.82443 0
    endloop
  endfacet
  facet normal -0 0 -1
    outer loop
      vertex 4.61803 2.09789 0
      vertex -0.309016 -0.951056 0
      vertex 3.38197 2.09789 0
    endloop
  endfacet
  facet normal 0 0 -1
    outer loop
      vertex -0.309016 -0.951056 0
      vertex 8 1 0
      vertex 210.309 -0.951056 0
    endloop
  endfacet
  facet normal 0 0 -1
    outer loop
      vertex 211 100 0
      vertex 210.309 100.951 0
      vertex 210.809 100.588 0
    endloop
  endfacet
  facet normal 0 0 -1
    outer loop
      vertex 8 99 0
      vertex 210.309 100.951 0
      vertex 209 99 0
    endloop
  endfacet
  facet normal 0 0 -1
    outer loop
      vertex 5.61803 96.6756 0
      vertex 8 99 0
      vertex 6 95.5 0
    endloop
  endfacet
  facet normal 0 0 -1
    outer loop
      vertex 4.61803 97.4021 0
      vertex 8 99 0
      vertex 5.61803 96.6756 0
    endloop
  endfacet
  facet normal 0 0 -1
    outer loop
      vertex -0.309016 100.951 0
      vertex 4.61803 97.4021 0
      vertex 3.38197 97.4021 0
    endloop
  endfacet
  facet normal 0 0 -1
    outer loop
      vertex 8 99 0
      vertex -0.309016 100.951 0
      vertex 210.309 100.951 0
    endloop
  endfacet
  facet normal 0 0 -1
    outer loop
      vertex 4.61803 97.4021 0
      vertex -0.309016 100.951 0
      vertex 8 99 0
    endloop
  endfacet
  facet normal 0 0 -1
    outer loop
      vertex 2.38197 96.6756 0
      vertex -0.309016 100.951 0
      vertex 3.38197 97.4021 0
    endloop
  endfacet
  facet normal 0 0 -1
    outer loop
      vertex -1 100 0
      vertex 2.38197 96.6756 0
      vertex 2 95.5 0
    endloop
  endfacet
  facet normal 0 0 -1
    outer loop
      vertex -1 100 0
      vertex 2 95.5 0
      vertex 1 91.5 0
    endloop
  endfacet
  facet normal -0 0 -1
    outer loop
      vertex 1 8 0
      vertex -1 0 0
      vertex 1 91.5 0
    endloop
  endfacet
  facet normal 0 0 -1
    outer loop
      vertex -1 0 0
      vertex -0.309016 -0.951056 0
      vertex -0.809016 -0.587785 0
    endloop
  endfacet
  facet normal 0 0 -1
    outer loop
      vertex -1 100 0
      vertex 1 91.5 0
      vertex -1 0 0
    endloop
  endfacet
  facet normal 0 0 -1
    outer loop
      vertex 2.38197 96.6756 0
      vertex -1 100 0
      vertex -0.309016 100.951 0
    endloop
  endfacet
  facet normal 0 0 -1
    outer loop
      vertex -0.309016 100.951 0
      vertex -1 100 0
      vertex -0.809016 100.588 0
    endloop
  endfacet
  facet normal 0 0 -1
    outer loop
      vertex 5.61803 5.17557 0
      vertex 8 8 0
      vertex 6 4 0
    endloop
  endfacet
  facet normal 0 0 -1
    outer loop
      vertex 4.61803 5.90211 0
      vertex 8 8 0
      vertex 5.61803 5.17557 0
    endloop
  endfacet
  facet normal 0 0 -1
    outer loop
      vertex 1 8 0
      vertex 4.61803 5.90211 0
      vertex 3.38197 5.90211 0
    endloop
  endfacet
  facet normal 0 0 -1
    outer loop
      vertex 4.61803 5.90211 0
      vertex 1 8 0
      vertex 8 8 0
    endloop
  endfacet
  facet normal 0 0 -1
    outer loop
      vertex 2.38197 5.17557 0
      vertex 1 8 0
      vertex 3.38197 5.90211 0
    endloop
  endfacet
  facet normal 0 0 -1
    outer loop
      vertex 1 8 0
      vertex 2.38197 5.17557 0
      vertex 2 4 0
    endloop
  endfacet
  facet normal 0 1 -0
    outer loop
      vertex 8 8 0
      vertex 1 8 25
      vertex 8 8 25
    endloop
  endfacet
  facet normal 0 1 0
    outer loop
      vertex 1 8 25
      vertex 8 8 0
      vertex 1 8 0
    endloop
  endfacet
  facet normal -0.951056 -0.309017 0
    outer loop
      vertex 6 4 0
      vertex 5.61803 5.17557 25
      vertex 5.61803 5.17557 0
    endloop
  endfacet
  facet normal -0.951056 -0.309017 0
    outer loop
      vertex 5.61803 5.17557 25
      vertex 6 4 0
      vertex 6 4 25
    endloop
  endfacet
  facet normal -0.587785 0.809017 0
    outer loop
      vertex 5.61803 2.82443 0
      vertex 4.61803 2.09789 25
      vertex 5.61803 2.82443 25
    endloop
  endfacet
  facet normal -0.587785 0.809017 0
    outer loop
      vertex 4.61803 2.09789 25
      vertex 5.61803 2.82443 0
      vertex 4.61803 2.09789 0
    endloop
  endfacet
  facet normal 0.587785 -0.809017 0
    outer loop
      vertex 2.38197 5.17557 0
      vertex 3.38197 5.90211 25
      vertex 2.38197 5.17557 25
    endloop
  endfacet
  facet normal 0.587785 -0.809017 0
    outer loop
      vertex 3.38197 5.90211 25
      vertex 2.38197 5.17557 0
      vertex 3.38197 5.90211 0
    endloop
  endfacet
  facet normal -0.587785 -0.809017 0
    outer loop
      vertex 4.61803 5.90211 0
      vertex 5.61803 5.17557 25
      vertex 4.61803 5.90211 25
    endloop
  endfacet
  facet normal -0.587785 -0.809017 -0
    outer loop
      vertex 5.61803 5.17557 25
      vertex 4.61803 5.90211 0
      vertex 5.61803 5.17557 0
    endloop
  endfacet
  facet normal 0.951057 -0.309017 0
    outer loop
      vertex 2 4 25
      vertex 2.38197 5.17557 0
      vertex 2.38197 5.17557 25
    endloop
  endfacet
  facet normal 0.951057 -0.309017 0
    outer loop
      vertex 2.38197 5.17557 0
      vertex 2 4 25
      vertex 2 4 0
    endloop
  endfacet
  facet normal -0.951056 0.309017 0
    outer loop
      vertex 5.61803 2.82443 0
      vertex 6 4 25
      vertex 6 4 0
    endloop
  endfacet
  facet normal -0.951056 0.309017 0
    outer loop
      vertex 6 4 25
      vertex 5.61803 2.82443 0
      vertex 5.61803 2.82443 25
    endloop
  endfacet
  facet normal 0 -1 0
    outer loop
      vertex 3.38197 5.90211 0
      vertex 4.61803 5.90211 25
      vertex 3.38197 5.90211 25
    endloop
  endfacet
  facet normal 0 -1 -0
    outer loop
      vertex 4.61803 5.90211 25
      vertex 3.38197 5.90211 0
      vertex 4.61803 5.90211 0
    endloop
  endfacet
  facet normal 0.951057 0.309016 0
    outer loop
      vertex 2.38197 2.82443 25
      vertex 2 4 0
      vertex 2 4 25
    endloop
  endfacet
  facet normal 0.951057 0.309016 0
    outer loop
      vertex 2 4 0
      vertex 2.38197 2.82443 25
      vertex 2.38197 2.82443 0
    endloop
  endfacet
  facet normal 0 1 -0
    outer loop
      vertex 4.61803 2.09789 0
      vertex 3.38197 2.09789 25
      vertex 4.61803 2.09789 25
    endloop
  endfacet
  facet normal 0 1 0
    outer loop
      vertex 3.38197 2.09789 25
      vertex 4.61803 2.09789 0
      vertex 3.38197 2.09789 0
    endloop
  endfacet
  facet normal 0.587785 0.809017 -0
    outer loop
      vertex 3.38197 2.09789 0
      vertex 2.38197 2.82443 25
      vertex 3.38197 2.09789 25
    endloop
  endfacet
  facet normal 0.587785 0.809017 0
    outer loop
      vertex 2.38197 2.82443 25
      vertex 3.38197 2.09789 0
      vertex 2.38197 2.82443 0
    endloop
  endfacet
  facet normal 1 0 0
    outer loop
      vertex 8 92.5 9
      vertex 8 99 25
      vertex 8 92.5 25
    endloop
  endfacet
  facet normal 1 0 0
    outer loop
      vertex 8 99 25
      vertex 8 92.5 9
      vertex 8 99 0
    endloop
  endfacet
  facet normal 1 0 0
    outer loop
      vertex 8 91.5 0
      vertex 8 92.5 9
      vertex 8 91.5 9
    endloop
  endfacet
  facet normal 1 0 0
    outer loop
      vertex 8 92.5 9
      vertex 8 91.5 0
      vertex 8 99 0
    endloop
  endfacet
  facet normal 0 -1 0
    outer loop
      vertex 1 91.5 25
      vertex 8 91.5 9
      vertex 22 91.5 25
    endloop
  endfacet
  facet normal 0 -1 0
    outer loop
      vertex 1 91.5 0
      vertex 8 91.5 9
      vertex 1 91.5 25
    endloop
  endfacet
  facet normal 0 -1 -0
    outer loop
      vertex 8 91.5 9
      vertex 1 91.5 0
      vertex 8 91.5 0
    endloop
  endfacet
  facet normal 0 -1 -0
    outer loop
      vertex 22 91.5 25
      vertex 8 91.5 9
      vertex 22 91.5 9
    endloop
  endfacet
  facet normal -0.951056 -0.309018 0
    outer loop
      vertex 6 95.5 0
      vertex 5.61803 96.6756 25
      vertex 5.61803 96.6756 0
    endloop
  endfacet
  facet normal -0.951056 -0.309018 0
    outer loop
      vertex 5.61803 96.6756 25
      vertex 6 95.5 0
      vertex 6 95.5 25
    endloop
  endfacet
  facet normal -0.587788 0.809015 0
    outer loop
      vertex 5.61803 94.3244 0
      vertex 4.61803 93.5979 25
      vertex 5.61803 94.3244 25
    endloop
  endfacet
  facet normal -0.587788 0.809015 0
    outer loop
      vertex 4.61803 93.5979 25
      vertex 5.61803 94.3244 0
      vertex 4.61803 93.5979 0
    endloop
  endfacet
  facet normal 0.587788 -0.809015 0
    outer loop
      vertex 2.38197 96.6756 0
      vertex 3.38197 97.4021 25
      vertex 2.38197 96.6756 25
    endloop
  endfacet
  facet normal 0.587788 -0.809015 0
    outer loop
      vertex 3.38197 97.4021 25
      vertex 2.38197 96.6756 0
      vertex 3.38197 97.4021 0
    endloop
  endfacet
  facet normal -0.587788 -0.809015 0
    outer loop
      vertex 4.61803 97.4021 0
      vertex 5.61803 96.6756 25
      vertex 4.61803 97.4021 25
    endloop
  endfacet
  facet normal -0.587788 -0.809015 -0
    outer loop
      vertex 5.61803 96.6756 25
      vertex 4.61803 97.4021 0
      vertex 5.61803 96.6756 0
    endloop
  endfacet
  facet normal 0.951056 -0.309017 0
    outer loop
      vertex 2 95.5 25
      vertex 2.38197 96.6756 0
      vertex 2.38197 96.6756 25
    endloop
  endfacet
  facet normal 0.951056 -0.309017 0
    outer loop
      vertex 2.38197 96.6756 0
      vertex 2 95.5 25
      vertex 2 95.5 0
    endloop
  endfacet
  facet normal -0.951056 0.309018 0
    outer loop
      vertex 5.61803 94.3244 0
      vertex 6 95.5 25
      vertex 6 95.5 0
    endloop
  endfacet
  facet normal -0.951056 0.309018 0
    outer loop
      vertex 6 95.5 25
      vertex 5.61803 94.3244 0
      vertex 5.61803 94.3244 25
    endloop
  endfacet
  facet normal 0 -1 0
    outer loop
      vertex 3.38197 97.4021 0
      vertex 4.61803 97.4021 25
      vertex 3.38197 97.4021 25
    endloop
  endfacet
  facet normal 0 -1 -0
    outer loop
      vertex 4.61803 97.4021 25
      vertex 3.38197 97.4021 0
      vertex 4.61803 97.4021 0
    endloop
  endfacet
  facet normal 0.951056 0.309017 0
    outer loop
      vertex 2.38197 94.3244 25
      vertex 2 95.5 0
      vertex 2 95.5 25
    endloop
  endfacet
  facet normal 0.951056 0.309017 0
    outer loop
      vertex 2 95.5 0
      vertex 2.38197 94.3244 25
      vertex 2.38197 94.3244 0
    endloop
  endfacet
  facet normal 0 1 -0
    outer loop
      vertex 4.61803 93.5979 0
      vertex 3.38197 93.5979 25
      vertex 4.61803 93.5979 25
    endloop
  endfacet
  facet normal 0 1 0
    outer loop
      vertex 3.38197 93.5979 25
      vertex 4.61803 93.5979 0
      vertex 3.38197 93.5979 0
    endloop
  endfacet
  facet normal 0.587788 0.809015 -0
    outer loop
      vertex 3.38197 93.5979 0
      vertex 2.38197 94.3244 25
      vertex 3.38197 93.5979 25
    endloop
  endfacet
  facet normal 0.587788 0.809015 0
    outer loop
      vertex 2.38197 94.3244 25
      vertex 3.38197 93.5979 0
      vertex 2.38197 94.3244 0
    endloop
  endfacet
  facet normal -1 0 0
    outer loop
      vertex 15 41 13
      vertex 15 42 25
      vertex 15 42 13
    endloop
  endfacet
  facet normal -1 -0 0
    outer loop
      vertex 15 42 25
      vertex 15 41 13
      vertex 15 41 25
    endloop
  endfacet
  facet normal 1 -0 0
    outer loop
      vertex 35 41 25
      vertex 35 42 13
      vertex 35 42 25
    endloop
  endfacet
  facet normal 1 0 0
    outer loop
      vertex 35 42 13
      vertex 35 41 25
      vertex 35 41 13
    endloop
  endfacet
  facet normal 0 1 -0
    outer loop
      vertex 35 42 13
      vertex 15 42 25
      vertex 35 42 25
    endloop
  endfacet
  facet normal 0 1 0
    outer loop
      vertex 15 42 25
      vertex 35 42 13
      vertex 15 42 13
    endloop
  endfacet
  facet normal 0 0 -1
    outer loop
      vertex 15 41 13
      vertex 35 42 13
      vertex 35 41 13
    endloop
  endfacet
  facet normal -0 0 -1
    outer loop
      vertex 35 42 13
      vertex 15 41 13
      vertex 15 42 13
    endloop
  endfacet
  facet normal 0 -1 0
    outer loop
      vertex 15 41 13
      vertex 35 41 25
      vertex 15 41 25
    endloop
  endfacet
  facet normal 0 -1 -0
    outer loop
      vertex 35 41 25
      vertex 15 41 13
      vertex 35 41 13
    endloop
  endfacet
  facet normal -1 0 0
    outer loop
      vertex 15 81 13
      vertex 15 82 25
      vertex 15 82 13
    endloop
  endfacet
  facet normal -1 -0 0
    outer loop
      vertex 15 82 25
      vertex 15 81 13
      vertex 15 81 25
    endloop
  endfacet
  facet normal 1 -0 0
    outer loop
      vertex 35 81 25
      vertex 35 82 13
      vertex 35 82 25
    endloop
  endfacet
  facet normal 1 0 0
    outer loop
      vertex 35 82 13
      vertex 35 81 25
      vertex 35 81 13
    endloop
  endfacet
  facet normal 0 1 -0
    outer loop
      vertex 35 82 13
      vertex 15 82 25
      vertex 35 82 25
    endloop
  endfacet
  facet normal 0 1 0
    outer loop
      vertex 15 82 25
      vertex 35 82 13
      vertex 15 82 13
    endloop
  endfacet
  facet normal 0 0 -1
    outer loop
      vertex 15 81 13
      vertex 35 82 13
      vertex 35 81 13
    endloop
  endfacet
  facet normal -0 0 -1
    outer loop
      vertex 35 82 13
      vertex 15 81 13
      vertex 15 82 13
    endloop
  endfacet
  facet normal 0 -1 0
    outer loop
      vertex 15 81 13
      vertex 35 81 25
      vertex 15 81 25
    endloop
  endfacet
  facet normal 0 -1 -0
    outer loop
      vertex 35 81 25
      vertex 15 81 13
      vertex 35 81 13
    endloop
  endfacet
  facet normal -1 0 0
    outer loop
      vertex 9 55 13
      vertex 9 75 25
      vertex 9 75 13
    endloop
  endfacet
  facet normal -1 -0 0
    outer loop
      vertex 9 75 25
      vertex 9 55 13
      vertex 9 55 25
    endloop
  endfacet
  facet normal 1 -0 0
    outer loop
      vertex 10 55 25
      vertex 10 75 13
      vertex 10 75 25
    endloop
  endfacet
  facet normal 1 0 0
    outer loop
      vertex 10 75 13
      vertex 10 55 25
      vertex 10 55 13
    endloop
  endfacet
  facet normal 0 1 -0
    outer loop
      vertex 10 75 13
      vertex 9 75 25
      vertex 10 75 25
    endloop
  endfacet
  facet normal 0 1 0
    outer loop
      vertex 9 75 25
      vertex 10 75 13
      vertex 9 75 13
    endloop
  endfacet
  facet normal 0 0 -1
    outer loop
      vertex 9 55 13
      vertex 10 75 13
      vertex 10 55 13
    endloop
  endfacet
  facet normal -0 0 -1
    outer loop
      vertex 10 75 13
      vertex 9 55 13
      vertex 9 75 13
    endloop
  endfacet
  facet normal 0 -1 0
    outer loop
      vertex 9 55 13
      vertex 10 55 25
      vertex 9 55 25
    endloop
  endfacet
  facet normal 0 -1 -0
    outer loop
      vertex 10 55 25
      vertex 9 55 13
      vertex 10 55 13
    endloop
  endfacet
  facet normal -1 0 0
    outer loop
      vertex 41 55 13
      vertex 41 75 25
      vertex 41 75 13
    endloop
  endfacet
  facet normal -1 -0 0
    outer loop
      vertex 41 75 25
      vertex 41 55 13
      vertex 41 55 25
    endloop
  endfacet
  facet normal 1 -0 0
    outer loop
      vertex 42 55 25
      vertex 42 75 13
      vertex 42 75 25
    endloop
  endfacet
  facet normal 1 0 0
    outer loop
      vertex 42 75 13
      vertex 42 55 25
      vertex 42 55 13
    endloop
  endfacet
  facet normal 0 1 -0
    outer loop
      vertex 42 75 13
      vertex 41 75 25
      vertex 42 75 25
    endloop
  endfacet
  facet normal 0 1 0
    outer loop
      vertex 41 75 25
      vertex 42 75 13
      vertex 41 75 13
    endloop
  endfacet
  facet normal 0 0 -1
    outer loop
      vertex 41 55 13
      vertex 42 75 13
      vertex 42 55 13
    endloop
  endfacet
  facet normal -0 0 -1
    outer loop
      vertex 42 75 13
      vertex 41 55 13
      vertex 41 75 13
    endloop
  endfacet
  facet normal 0 -1 0
    outer loop
      vertex 41 55 13
      vertex 42 55 25
      vertex 41 55 25
    endloop
  endfacet
  facet normal 0 -1 -0
    outer loop
      vertex 42 55 25
      vertex 41 55 13
      vertex 42 55 13
    endloop
  endfacet
  facet normal 0.951058 0.309012 0
    outer loop
      vertex 211 100 27
      vertex 210.809 100.588 0
      vertex 210.809 100.588 27
    endloop
  endfacet
  facet normal 0.951058 0.309012 0
    outer loop
      vertex 210.809 100.588 0
      vertex 211 100 27
      vertex 211 100 0
    endloop
  endfacet
  facet normal 0 1 0
    outer loop
      vertex 210.309 100.951 27
      vertex 55 100.951 9
      vertex -0.309016 100.951 27
    endloop
  endfacet
  facet normal 0 1 -0
    outer loop
      vertex 210.309 100.951 0
      vertex 55 100.951 9
      vertex 210.309 100.951 27
    endloop
  endfacet
  facet normal 0 1 0
    outer loop
      vertex -0.309016 100.951 0
      vertex 55 100.951 5
      vertex 210.309 100.951 0
    endloop
  endfacet
  facet normal 0 1 0
    outer loop
      vertex 55 100.951 9
      vertex 210.309 100.951 0
      vertex 55 100.951 5
    endloop
  endfacet
  facet normal 0 1 -0
    outer loop
      vertex 45 100.951 9
      vertex -0.309016 100.951 27
      vertex 55 100.951 9
    endloop
  endfacet
  facet normal 0 1 0
    outer loop
      vertex -0.309016 100.951 0
      vertex 45 100.951 9
      vertex 45 100.951 5
    endloop
  endfacet
  facet normal 0 1 0
    outer loop
      vertex 45 100.951 9
      vertex -0.309016 100.951 0
      vertex -0.309016 100.951 27
    endloop
  endfacet
  facet normal 0 1 0
    outer loop
      vertex 55 100.951 5
      vertex -0.309016 100.951 0
      vertex 45 100.951 5
    endloop
  endfacet
  facet normal 1 -0 0
    outer loop
      vertex 211 0 27
      vertex 211 100 0
      vertex 211 100 27
    endloop
  endfacet
  facet normal 1 0 0
    outer loop
      vertex 211 100 0
      vertex 211 0 27
      vertex 211 0 0
    endloop
  endfacet
  facet normal 0.587788 0.809015 -0
    outer loop
      vertex 210.809 100.588 0
      vertex 210.309 100.951 27
      vertex 210.809 100.588 27
    endloop
  endfacet
  facet normal 0.587788 0.809015 0
    outer loop
      vertex 210.309 100.951 27
      vertex 210.809 100.588 0
      vertex 210.309 100.951 0
    endloop
  endfacet
  facet normal -1 0 0
    outer loop
      vertex -1 0 0
      vertex -1 100 27
      vertex -1 100 0
    endloop
  endfacet
  facet normal -1 -0 0
    outer loop
      vertex -1 100 27
      vertex -1 0 0
      vertex -1 0 27
    endloop
  endfacet
  facet normal 0 -1 0
    outer loop
      vertex -0.309016 -0.951056 0
      vertex 210.309 -0.951056 27
      vertex -0.309016 -0.951056 27
    endloop
  endfacet
  facet normal 0 -1 -0
    outer loop
      vertex 210.309 -0.951056 27
      vertex -0.309016 -0.951056 0
      vertex 210.309 -0.951056 0
    endloop
  endfacet
  facet normal 0.587786 -0.809017 0
    outer loop
      vertex 210.309 -0.951056 0
      vertex 210.809 -0.587785 27
      vertex 210.309 -0.951056 27
    endloop
  endfacet
  facet normal 0.587786 -0.809017 0
    outer loop
      vertex 210.809 -0.587785 27
      vertex 210.309 -0.951056 0
      vertex 210.809 -0.587785 0
    endloop
  endfacet
  facet normal 0.951058 -0.309011 0
    outer loop
      vertex 210.809 -0.587785 27
      vertex 211 0 0
      vertex 211 0 27
    endloop
  endfacet
  facet normal 0.951058 -0.309011 0
    outer loop
      vertex 211 0 0
      vertex 210.809 -0.587785 27
      vertex 210.809 -0.587785 0
    endloop
  endfacet
  facet normal -0.951056 -0.309018 0
    outer loop
      vertex -0.809016 -0.587785 0
      vertex -1 0 27
      vertex -1 0 0
    endloop
  endfacet
  facet normal -0.951056 -0.309018 0
    outer loop
      vertex -1 0 27
      vertex -0.809016 -0.587785 0
      vertex -0.809016 -0.587785 27
    endloop
  endfacet
  facet normal -0.587786 -0.809017 0
    outer loop
      vertex -0.809016 -0.587785 0
      vertex -0.309016 -0.951056 27
      vertex -0.809016 -0.587785 27
    endloop
  endfacet
  facet normal -0.587786 -0.809017 -0
    outer loop
      vertex -0.309016 -0.951056 27
      vertex -0.809016 -0.587785 0
      vertex -0.309016 -0.951056 0
    endloop
  endfacet
  facet normal -0.951056 0.309019 0
    outer loop
      vertex -1 100 0
      vertex -0.809016 100.588 27
      vertex -0.809016 100.588 0
    endloop
  endfacet
  facet normal -0.951056 0.309019 0
    outer loop
      vertex -0.809016 100.588 27
      vertex -1 100 0
      vertex -1 100 27
    endloop
  endfacet
  facet normal -0.587788 0.809015 0
    outer loop
      vertex -0.309016 100.951 0
      vertex -0.809016 100.588 27
      vertex -0.309016 100.951 27
    endloop
  endfacet
  facet normal -0.587788 0.809015 0
    outer loop
      vertex -0.809016 100.588 27
      vertex -0.309016 100.951 0
      vertex -0.809016 100.588 0
    endloop
  endfacet
  facet normal 1 -0 0
    outer loop
      vertex 1 8 25
      vertex 1 91.5 0
      vertex 1 91.5 25
    endloop
  endfacet
  facet normal 1 0 0
    outer loop
      vertex 1 91.5 0
      vertex 1 8 25
      vertex 1 8 0
    endloop
  endfacet
  facet normal -1 0 0
    outer loop
      vertex 209 1 0
      vertex 209 99 25
      vertex 209 99 0
    endloop
  endfacet
  facet normal -1 -0 0
    outer loop
      vertex 209 99 25
      vertex 209 1 0
      vertex 209 1 25
    endloop
  endfacet
  facet normal 0 -1 0
    outer loop
      vertex 17.9134 99 19.6194
      vertex 8 99 25
      vertex 16 99 20
    endloop
  endfacet
  facet normal 0 -1 0
    outer loop
      vertex 8 99 25
      vertex 14.0866 99 19.6194
      vertex 16 99 20
    endloop
  endfacet
  facet normal 0 -1 0
    outer loop
      vertex 8 99 25
      vertex 12.4645 99 18.5355
      vertex 14.0866 99 19.6194
    endloop
  endfacet
  facet normal 0 -1 0
    outer loop
      vertex 8 99 25
      vertex 11.3806 99 16.9134
      vertex 12.4645 99 18.5355
    endloop
  endfacet
  facet normal 0 -1 0
    outer loop
      vertex 8 99 25
      vertex 11 99 15
      vertex 11.3806 99 16.9134
    endloop
  endfacet
  facet normal 0 -1 0
    outer loop
      vertex 8 99 0
      vertex 11 99 15
      vertex 8 99 25
    endloop
  endfacet
  facet normal 0 -1 0
    outer loop
      vertex 20.6194 99 13.0866
      vertex 45 99 5
      vertex 45 99 9
    endloop
  endfacet
  facet normal 0 -1 -0
    outer loop
      vertex 45 99 5
      vertex 8 99 0
      vertex 55 99 5
    endloop
  endfacet
  facet normal 0 -1 -0
    outer loop
      vertex 17.9134 99 10.3806
      vertex 8 99 0
      vertex 45 99 5
    endloop
  endfacet
  facet normal 0 -1 -0
    outer loop
      vertex 14.0866 99 10.3806
      vertex 8 99 0
      vertex 16 99 10
    endloop
  endfacet
  facet normal 0 -1 -0
    outer loop
      vertex 12.4645 99 11.4645
      vertex 8 99 0
      vertex 14.0866 99 10.3806
    endloop
  endfacet
  facet normal 0 -1 -0
    outer loop
      vertex 11.3806 99 13.0866
      vertex 8 99 0
      vertex 12.4645 99 11.4645
    endloop
  endfacet
  facet normal 0 -1 -0
    outer loop
      vertex 11 99 15
      vertex 8 99 0
      vertex 11.3806 99 13.0866
    endloop
  endfacet
  facet normal 0 -1 0
    outer loop
      vertex 55 99 9
      vertex 8 99 25
      vertex 17.9134 99 19.6194
    endloop
  endfacet
  facet normal 0 -1 0
    outer loop
      vertex 55 99 9
      vertex 17.9134 99 19.6194
      vertex 19.5355 99 18.5355
    endloop
  endfacet
  facet normal 0 -1 0
    outer loop
      vertex 45 99 9
      vertex 19.5355 99 18.5355
      vertex 20.6194 99 16.9134
    endloop
  endfacet
  facet normal 0 -1 0
    outer loop
      vertex 45 99 9
      vertex 20.6194 99 16.9134
      vertex 21 99 15
    endloop
  endfacet
  facet normal 0 -1 0
    outer loop
      vertex 45 99 9
      vertex 21 99 15
      vertex 20.6194 99 13.0866
    endloop
  endfacet
  facet normal 0 -1 0
    outer loop
      vertex 45 99 5
      vertex 20.6194 99 13.0866
      vertex 19.5355 99 11.4645
    endloop
  endfacet
  facet normal 0 -1 0
    outer loop
      vertex 45 99 5
      vertex 19.5355 99 11.4645
      vertex 17.9134 99 10.3806
    endloop
  endfacet
  facet normal 0 -1 0
    outer loop
      vertex 8 99 0
      vertex 17.9134 99 10.3806
      vertex 16 99 10
    endloop
  endfacet
  facet normal 0 -1 0
    outer loop
      vertex 19.5355 99 18.5355
      vertex 45 99 9
      vertex 55 99 9
    endloop
  endfacet
  facet normal 0 -1 0
    outer loop
      vertex 8 99 25
      vertex 55 99 9
      vertex 209 99 25
    endloop
  endfacet
  facet normal 0 -1 0
    outer loop
      vertex 209 99 0
      vertex 55 99 9
      vertex 55 99 5
    endloop
  endfacet
  facet normal 0 -1 0
    outer loop
      vertex 55 99 9
      vertex 209 99 0
      vertex 209 99 25
    endloop
  endfacet
  facet normal 0 -1 0
    outer loop
      vertex 209 99 0
      vertex 55 99 5
      vertex 8 99 0
    endloop
  endfacet
  facet normal 0 1 -0
    outer loop
      vertex 209 1 0
      vertex 8 1 25
      vertex 209 1 25
    endloop
  endfacet
  facet normal 0 1 0
    outer loop
      vertex 8 1 25
      vertex 209 1 0
      vertex 8 1 0
    endloop
  endfacet
  facet normal 1 -0 0
    outer loop
      vertex 50 26 27
      vertex 50 93 25
      vertex 50 93 27
    endloop
  endfacet
  facet normal 1 0 0
    outer loop
      vertex 50 93 25
      vertex 50 26 27
      vertex 50 26 25
    endloop
  endfacet
  facet normal -1 0 0
    outer loop
      vertex 160 26 25
      vertex 160 93 27
      vertex 160 93 25
    endloop
  endfacet
  facet normal -1 -0 0
    outer loop
      vertex 160 93 27
      vertex 160 26 25
      vertex 160 26 27
    endloop
  endfacet
  facet normal 0 1 -0
    outer loop
      vertex 160 26 25
      vertex 50 26 27
      vertex 160 26 27
    endloop
  endfacet
  facet normal 0 1 0
    outer loop
      vertex 50 26 27
      vertex 160 26 25
      vertex 50 26 25
    endloop
  endfacet
  facet normal 0 -1 0
    outer loop
      vertex 50 93 25
      vertex 160 93 27
      vertex 50 93 27
    endloop
  endfacet
  facet normal 0 -1 -0
    outer loop
      vertex 160 93 27
      vertex 50 93 25
      vertex 160 93 25
    endloop
  endfacet
  facet normal 1 -0 0
    outer loop
      vertex 45 99 9
      vertex 45 100.951 5
      vertex 45 100.951 9
    endloop
  endfacet
  facet normal 1 0 0
    outer loop
      vertex 45 100.951 5
      vertex 45 99 9
      vertex 45 99 5
    endloop
  endfacet
  facet normal 0 0 -1
    outer loop
      vertex 45 99 9
      vertex 55 100.951 9
      vertex 55 99 9
    endloop
  endfacet
  facet normal -0 0 -1
    outer loop
      vertex 55 100.951 9
      vertex 45 99 9
      vertex 45 100.951 9
    endloop
  endfacet
  facet normal -1 0 0
    outer loop
      vertex 55 99 5
      vertex 55 100.951 9
      vertex 55 100.951 5
    endloop
  endfacet
  facet normal -1 -0 0
    outer loop
      vertex 55 100.951 9
      vertex 55 99 5
      vertex 55 99 9
    endloop
  endfacet
  facet normal -0 0 1
    outer loop
      vertex 45 100.951 5
      vertex 55 99 5
      vertex 55 100.951 5
    endloop
  endfacet
  facet normal 0 0 1
    outer loop
      vertex 55 99 5
      vertex 45 100.951 5
      vertex 45 99 5
    endloop
  endfacet
  facet normal -0.980785 0 -0.195091
    outer loop
      vertex 21 99 15
      vertex 20.6194 100 16.9134
      vertex 21 100 15
    endloop
  endfacet
  facet normal -0.980785 -0 -0.195091
    outer loop
      vertex 20.6194 100 16.9134
      vertex 21 99 15
      vertex 20.6194 99 16.9134
    endloop
  endfacet
  facet normal 0.980785 -0 0.19509
    outer loop
      vertex 11 99 15
      vertex 11.3806 100 13.0866
      vertex 11 100 15
    endloop
  endfacet
  facet normal 0.980785 0 0.19509
    outer loop
      vertex 11.3806 100 13.0866
      vertex 11 99 15
      vertex 11.3806 99 13.0866
    endloop
  endfacet
  facet normal -0.55557 0 0.83147
    outer loop
      vertex 17.9134 100 10.3806
      vertex 19.5355 99 11.4645
      vertex 19.5355 100 11.4645
    endloop
  endfacet
  facet normal -0.55557 0 0.83147
    outer loop
      vertex 19.5355 99 11.4645
      vertex 17.9134 100 10.3806
      vertex 17.9134 99 10.3806
    endloop
  endfacet
  facet normal -0.19509 0 0.980785
    outer loop
      vertex 16 100 10
      vertex 17.9134 99 10.3806
      vertex 17.9134 100 10.3806
    endloop
  endfacet
  facet normal -0.19509 0 0.980785
    outer loop
      vertex 17.9134 99 10.3806
      vertex 16 100 10
      vertex 16 99 10
    endloop
  endfacet
  facet normal -0.55557 0 -0.83147
    outer loop
      vertex 17.9134 99 19.6194
      vertex 19.5355 100 18.5355
      vertex 19.5355 99 18.5355
    endloop
  endfacet
  facet normal -0.55557 0 -0.83147
    outer loop
      vertex 19.5355 100 18.5355
      vertex 17.9134 99 19.6194
      vertex 17.9134 100 19.6194
    endloop
  endfacet
  facet normal 0.195091 0 -0.980785
    outer loop
      vertex 14.0866 99 19.6194
      vertex 16 100 20
      vertex 16 99 20
    endloop
  endfacet
  facet normal 0.195091 0 -0.980785
    outer loop
      vertex 16 100 20
      vertex 14.0866 99 19.6194
      vertex 14.0866 100 19.6194
    endloop
  endfacet
  facet normal -0.195091 0 -0.980785
    outer loop
      vertex 16 99 20
      vertex 17.9134 100 19.6194
      vertex 17.9134 99 19.6194
    endloop
  endfacet
  facet normal -0.195091 0 -0.980785
    outer loop
      vertex 17.9134 100 19.6194
      vertex 16 99 20
      vertex 16 100 20
    endloop
  endfacet
  facet normal 0 -1 0
    outer loop
      vertex 14.0866 100 19.6194
      vertex 17.9134 100 19.6194
      vertex 16 100 20
    endloop
  endfacet
  facet normal 0 -1 0
    outer loop
      vertex 12.4645 100 18.5355
      vertex 17.9134 100 19.6194
      vertex 14.0866 100 19.6194
    endloop
  endfacet
  facet normal 0 -1 0
    outer loop
      vertex 12.4645 100 18.5355
      vertex 19.5355 100 18.5355
      vertex 17.9134 100 19.6194
    endloop
  endfacet
  facet normal 0 -1 0
    outer loop
      vertex 11.3806 100 16.9134
      vertex 19.5355 100 18.5355
      vertex 12.4645 100 18.5355
    endloop
  endfacet
  facet normal 0 -1 0
    outer loop
      vertex 11.3806 100 16.9134
      vertex 20.6194 100 16.9134
      vertex 19.5355 100 18.5355
    endloop
  endfacet
  facet normal 0 -1 0
    outer loop
      vertex 11 100 15
      vertex 20.6194 100 16.9134
      vertex 11.3806 100 16.9134
    endloop
  endfacet
  facet normal 0 -1 0
    outer loop
      vertex 11 100 15
      vertex 21 100 15
      vertex 20.6194 100 16.9134
    endloop
  endfacet
  facet normal 0 -1 0
    outer loop
      vertex 11.3806 100 13.0866
      vertex 21 100 15
      vertex 11 100 15
    endloop
  endfacet
  facet normal 0 -1 0
    outer loop
      vertex 11.3806 100 13.0866
      vertex 20.6194 100 13.0866
      vertex 21 100 15
    endloop
  endfacet
  facet normal 0 -1 0
    outer loop
      vertex 12.4645 100 11.4645
      vertex 20.6194 100 13.0866
      vertex 11.3806 100 13.0866
    endloop
  endfacet
  facet normal 0 -1 0
    outer loop
      vertex 12.4645 100 11.4645
      vertex 19.5355 100 11.4645
      vertex 20.6194 100 13.0866
    endloop
  endfacet
  facet normal 0 -1 0
    outer loop
      vertex 14.0866 100 10.3806
      vertex 19.5355 100 11.4645
      vertex 12.4645 100 11.4645
    endloop
  endfacet
  facet normal 0 -1 0
    outer loop
      vertex 14.0866 100 10.3806
      vertex 17.9134 100 10.3806
      vertex 19.5355 100 11.4645
    endloop
  endfacet
  facet normal -0 -1 0
    outer loop
      vertex 17.9134 100 10.3806
      vertex 14.0866 100 10.3806
      vertex 16 100 10
    endloop
  endfacet
  facet normal 0.83147 0 -0.55557
    outer loop
      vertex 12.4645 99 18.5355
      vertex 11.3806 100 16.9134
      vertex 12.4645 100 18.5355
    endloop
  endfacet
  facet normal 0.83147 0 -0.55557
    outer loop
      vertex 11.3806 100 16.9134
      vertex 12.4645 99 18.5355
      vertex 11.3806 99 16.9134
    endloop
  endfacet
  facet normal -0.83147 0 0.55557
    outer loop
      vertex 19.5355 99 11.4645
      vertex 20.6194 100 13.0866
      vertex 19.5355 100 11.4645
    endloop
  endfacet
  facet normal -0.83147 0 0.55557
    outer loop
      vertex 20.6194 100 13.0866
      vertex 19.5355 99 11.4645
      vertex 20.6194 99 13.0866
    endloop
  endfacet
  facet normal -0.83147 0 -0.55557
    outer loop
      vertex 20.6194 99 16.9134
      vertex 19.5355 100 18.5355
      vertex 20.6194 100 16.9134
    endloop
  endfacet
  facet normal -0.83147 -0 -0.55557
    outer loop
      vertex 19.5355 100 18.5355
      vertex 20.6194 99 16.9134
      vertex 19.5355 99 18.5355
    endloop
  endfacet
  facet normal 0.980785 0 -0.19509
    outer loop
      vertex 11.3806 99 16.9134
      vertex 11 100 15
      vertex 11.3806 100 16.9134
    endloop
  endfacet
  facet normal 0.980785 0 -0.19509
    outer loop
      vertex 11 100 15
      vertex 11.3806 99 16.9134
      vertex 11 99 15
    endloop
  endfacet
  facet normal 0.55557 0 -0.83147
    outer loop
      vertex 12.4645 99 18.5355
      vertex 14.0866 100 19.6194
      vertex 14.0866 99 19.6194
    endloop
  endfacet
  facet normal 0.55557 0 -0.83147
    outer loop
      vertex 14.0866 100 19.6194
      vertex 12.4645 99 18.5355
      vertex 12.4645 100 18.5355
    endloop
  endfacet
  facet normal 0.19509 0 0.980785
    outer loop
      vertex 14.0866 100 10.3806
      vertex 16 99 10
      vertex 16 100 10
    endloop
  endfacet
  facet normal 0.19509 0 0.980785
    outer loop
      vertex 16 99 10
      vertex 14.0866 100 10.3806
      vertex 14.0866 99 10.3806
    endloop
  endfacet
  facet normal 0.83147 -0 0.55557
    outer loop
      vertex 11.3806 99 13.0866
      vertex 12.4645 100 11.4645
      vertex 11.3806 100 13.0866
    endloop
  endfacet
  facet normal 0.83147 0 0.55557
    outer loop
      vertex 12.4645 100 11.4645
      vertex 11.3806 99 13.0866
      vertex 12.4645 99 11.4645
    endloop
  endfacet
  facet normal 0.55557 0 0.83147
    outer loop
      vertex 12.4645 100 11.4645
      vertex 14.0866 99 10.3806
      vertex 14.0866 100 10.3806
    endloop
  endfacet
  facet normal 0.55557 0 0.83147
    outer loop
      vertex 14.0866 99 10.3806
      vertex 12.4645 100 11.4645
      vertex 12.4645 99 11.4645
    endloop
  endfacet
  facet normal -0.980785 0 0.195091
    outer loop
      vertex 20.6194 99 13.0866
      vertex 21 100 15
      vertex 20.6194 100 13.0866
    endloop
  endfacet
  facet normal -0.980785 0 0.195091
    outer loop
      vertex 21 100 15
      vertex 20.6194 99 13.0866
      vertex 21 99 15
    endloop
  endfacet
  facet normal 1 -0 0
    outer loop
      vertex 22 91.5 25
      vertex 22 92.5 9
      vertex 22 92.5 25
    endloop
  endfacet
  facet normal 1 0 0
    outer loop
      vertex 22 92.5 9
      vertex 22 91.5 25
      vertex 22 91.5 9
    endloop
  endfacet
  facet normal 0 0 -1
    outer loop
      vertex 8 91.5 9
      vertex 22 92.5 9
      vertex 22 91.5 9
    endloop
  endfacet
  facet normal -0 0 -1
    outer loop
      vertex 22 92.5 9
      vertex 8 91.5 9
      vertex 8 92.5 9
    endloop
  endfacet
  facet normal 0 1 -0
    outer loop
      vertex 22 92.5 9
      vertex 8 92.5 25
      vertex 22 92.5 25
    endloop
  endfacet
  facet normal 0 1 0
    outer loop
      vertex 8 92.5 25
      vertex 22 92.5 9
      vertex 8 92.5 9
    endloop
  endfacet
endsolid OpenSCAD_Model
