solid OpenSCAD_Model
  facet normal -1 0 0
    outer loop
      vertex -20 55 -26
      vertex -20 63 -25
      vertex -20 63 -26
    endloop
  endfacet
  facet normal -1 -0 0
    outer loop
      vertex -20 63 -25
      vertex -20 55 -26
      vertex -20 55 -25
    endloop
  endfacet
  facet normal -1 0 0
    outer loop
      vertex -20 71 -26
      vertex -20 80 -25
      vertex -20 80 -26
    endloop
  endfacet
  facet normal -1 -0 0
    outer loop
      vertex -20 80 -25
      vertex -20 71 -26
      vertex -20 71 -25
    endloop
  endfacet
  facet normal 1 -0 0
    outer loop
      vertex -28 55 -25
      vertex -28 63 -26
      vertex -28 63 -25
    endloop
  endfacet
  facet normal 1 0 0
    outer loop
      vertex -28 63 -26
      vertex -28 55 -25
      vertex -28 55 -26
    endloop
  endfacet
  facet normal 1 -0 0
    outer loop
      vertex -28 71 -25
      vertex -28 80 -26
      vertex -28 80 -25
    endloop
  endfacet
  facet normal 1 0 0
    outer loop
      vertex -28 80 -26
      vertex -28 71 -25
      vertex -28 71 -26
    endloop
  endfacet
  facet normal 0 -1 0
    outer loop
      vertex -28 80 -26
      vertex -20 80 -25
      vertex -28 80 -25
    endloop
  endfacet
  facet normal 0 -1 -0
    outer loop
      vertex -20 80 -25
      vertex -28 80 -26
      vertex -20 80 -26
    endloop
  endfacet
  facet normal 0 0 1
    outer loop
      vertex -3.55496 97.4499 -25
      vertex -2.19806 94.6322 -25
      vertex -2.19806 96.3678 -25
    endloop
  endfacet
  facet normal 0 0 1
    outer loop
      vertex -3.55496 97.4499 -25
      vertex -3.55496 93.5501 -25
      vertex -2.19806 94.6322 -25
    endloop
  endfacet
  facet normal -0 0 1
    outer loop
      vertex -5.24698 97.0637 -25
      vertex -3.55496 93.5501 -25
      vertex -3.55496 97.4499 -25
    endloop
  endfacet
  facet normal 0 0 1
    outer loop
      vertex -5.24698 97.0637 -25
      vertex -5.24698 93.9363 -25
      vertex -3.55496 93.5501 -25
    endloop
  endfacet
  facet normal 0 -0 1
    outer loop
      vertex -5.24698 93.9363 -25
      vertex -5.24698 97.0637 -25
      vertex -6 95.5 -25
    endloop
  endfacet
  facet normal -0 0 1
    outer loop
      vertex -36.5 63 -25
      vertex -28 55 -25
      vertex -28 63 -25
    endloop
  endfacet
  facet normal 0 0 1
    outer loop
      vertex -28 55 -25
      vertex -41 55 -25
      vertex -34 42 -25
    endloop
  endfacet
  facet normal 0 0 1
    outer loop
      vertex -28 55 -25
      vertex -36.5 63 -25
      vertex -41 55 -25
    endloop
  endfacet
  facet normal 0 0 1
    outer loop
      vertex -8 99 -25
      vertex -22 92.5 -25
      vertex -8 92.5 -25
    endloop
  endfacet
  facet normal 0 0 1
    outer loop
      vertex -22 92.5 -25
      vertex -34 82 -25
      vertex -22 91.5 -25
    endloop
  endfacet
  facet normal 0 0 1
    outer loop
      vertex -41 75 -25
      vertex -34 81 -25
      vertex -34 82 -25
    endloop
  endfacet
  facet normal 0 0 1
    outer loop
      vertex -36.5 71 -25
      vertex -41 75 -25
      vertex -36.5 63 -25
    endloop
  endfacet
  facet normal 0 0 1
    outer loop
      vertex -34 81 -25
      vertex -41 75 -25
      vertex -36.5 71 -25
    endloop
  endfacet
  facet normal 0 0 1
    outer loop
      vertex -34 82 -25
      vertex -42 75 -25
      vertex -41 75 -25
    endloop
  endfacet
  facet normal 0 0 1
    outer loop
      vertex -60 99 -25
      vertex -34 82 -25
      vertex -22 92.5 -25
    endloop
  endfacet
  facet normal 0 0 1
    outer loop
      vertex -42 75 -25
      vertex -60 99 -25
      vertex -42 55 -25
    endloop
  endfacet
  facet normal 0 0 1
    outer loop
      vertex -34 82 -25
      vertex -60 99 -25
      vertex -42 75 -25
    endloop
  endfacet
  facet normal -0 0 1
    outer loop
      vertex -60 99 -25
      vertex -22 92.5 -25
      vertex -8 99 -25
    endloop
  endfacet
  facet normal 0 0 1
    outer loop
      vertex -14 81 -25
      vertex -28 80 -25
      vertex -20 80 -25
    endloop
  endfacet
  facet normal -0 0 1
    outer loop
      vertex -34 81 -25
      vertex -28 80 -25
      vertex -14 81 -25
    endloop
  endfacet
  facet normal 0 0 1
    outer loop
      vertex -34 81 -25
      vertex -28 71 -25
      vertex -28 80 -25
    endloop
  endfacet
  facet normal 0 0 1
    outer loop
      vertex -28 71 -25
      vertex -34 81 -25
      vertex -36.5 71 -25
    endloop
  endfacet
  facet normal 0 0 1
    outer loop
      vertex -11.5 63 -25
      vertex -20 55 -25
      vertex -10 55 -25
    endloop
  endfacet
  facet normal 0 0 1
    outer loop
      vertex -10 55 -25
      vertex -20 55 -25
      vertex -14 42 -25
    endloop
  endfacet
  facet normal -0 0 1
    outer loop
      vertex -28 55 -25
      vertex -14 42 -25
      vertex -20 55 -25
    endloop
  endfacet
  facet normal 0 0 1
    outer loop
      vertex -14 42 -25
      vertex -28 55 -25
      vertex -34 42 -25
    endloop
  endfacet
  facet normal -0 0 1
    outer loop
      vertex -9 55 -25
      vertex -1 8 -25
      vertex -1 91.5 -25
    endloop
  endfacet
  facet normal -0 0 1
    outer loop
      vertex -14 41 -25
      vertex -1 8 -25
      vertex -9 55 -25
    endloop
  endfacet
  facet normal 0 0 1
    outer loop
      vertex -9 55 -25
      vertex -1 91.5 -25
      vertex -9 75 -25
    endloop
  endfacet
  facet normal -0 0 1
    outer loop
      vertex -14 82 -25
      vertex -9 75 -25
      vertex -1 91.5 -25
    endloop
  endfacet
  facet normal 0 0 1
    outer loop
      vertex -11.5 63 -25
      vertex -10 75 -25
      vertex -11.5 71 -25
    endloop
  endfacet
  facet normal 0 0 1
    outer loop
      vertex -9 75 -25
      vertex -14 81 -25
      vertex -10 75 -25
    endloop
  endfacet
  facet normal -0 0 1
    outer loop
      vertex -14 81 -25
      vertex -9 75 -25
      vertex -14 82 -25
    endloop
  endfacet
  facet normal -0 0 1
    outer loop
      vertex -22 91.5 -25
      vertex -14 82 -25
      vertex -1 91.5 -25
    endloop
  endfacet
  facet normal 0 0 1
    outer loop
      vertex -14 82 -25
      vertex -22 91.5 -25
      vertex -34 82 -25
    endloop
  endfacet
  facet normal 0 0 1
    outer loop
      vertex -1 8 -25
      vertex -14 41 -25
      vertex -8 8 -25
    endloop
  endfacet
  facet normal 0 0 1
    outer loop
      vertex -14 42 -25
      vertex -9 55 -25
      vertex -10 55 -25
    endloop
  endfacet
  facet normal 0 0 1
    outer loop
      vertex -10 75 -25
      vertex -11.5 63 -25
      vertex -10 55 -25
    endloop
  endfacet
  facet normal 0 0 1
    outer loop
      vertex -20 55 -25
      vertex -11.5 63 -25
      vertex -20 63 -25
    endloop
  endfacet
  facet normal 0 0 1
    outer loop
      vertex -9 55 -25
      vertex -14 42 -25
      vertex -14 41 -25
    endloop
  endfacet
  facet normal -0 0 1
    outer loop
      vertex -34 41 -25
      vertex -8 8 -25
      vertex -14 41 -25
    endloop
  endfacet
  facet normal 0 0 1
    outer loop
      vertex -60 1 -25
      vertex -8 8 -25
      vertex -34 41 -25
    endloop
  endfacet
  facet normal 0 0 1
    outer loop
      vertex -41 55 -25
      vertex -36.5 63 -25
      vertex -41 75 -25
    endloop
  endfacet
  facet normal -0 0 1
    outer loop
      vertex -42 55 -25
      vertex -34 42 -25
      vertex -41 55 -25
    endloop
  endfacet
  facet normal 0 0 1
    outer loop
      vertex -34 42 -25
      vertex -42 55 -25
      vertex -34 41 -25
    endloop
  endfacet
  facet normal 0 0 1
    outer loop
      vertex -8 8 -25
      vertex -60 1 -25
      vertex -8 1 -25
    endloop
  endfacet
  facet normal 0 0 1
    outer loop
      vertex -42 55 -25
      vertex -60 1 -25
      vertex -34 41 -25
    endloop
  endfacet
  facet normal 0 0 1
    outer loop
      vertex -60 1 -25
      vertex -42 55 -25
      vertex -60 99 -25
    endloop
  endfacet
  facet normal 0 0 1
    outer loop
      vertex -20 71 -25
      vertex -10 75 -25
      vertex -14 81 -25
    endloop
  endfacet
  facet normal 0 0 1
    outer loop
      vertex -20 71 -25
      vertex -14 81 -25
      vertex -20 80 -25
    endloop
  endfacet
  facet normal 0 0 1
    outer loop
      vertex -10 75 -25
      vertex -20 71 -25
      vertex -11.5 71 -25
    endloop
  endfacet
  facet normal 0 0 1
    outer loop
      vertex -3.55496 5.94986 -25
      vertex -2.19806 3.13223 -25
      vertex -2.19806 4.86777 -25
    endloop
  endfacet
  facet normal 0 0 1
    outer loop
      vertex -3.55496 5.94986 -25
      vertex -3.55496 2.05014 -25
      vertex -2.19806 3.13223 -25
    endloop
  endfacet
  facet normal -0 0 1
    outer loop
      vertex -5.24698 5.56366 -25
      vertex -3.55496 2.05014 -25
      vertex -3.55496 5.94986 -25
    endloop
  endfacet
  facet normal 0 0 1
    outer loop
      vertex -5.24698 5.56366 -25
      vertex -5.24698 2.43634 -25
      vertex -3.55496 2.05014 -25
    endloop
  endfacet
  facet normal 0 -0 1
    outer loop
      vertex -5.24698 2.43634 -25
      vertex -5.24698 5.56366 -25
      vertex -6 4 -25
    endloop
  endfacet
  facet normal 0 1 -0
    outer loop
      vertex -20 55 -26
      vertex -28 55 -25
      vertex -20 55 -25
    endloop
  endfacet
  facet normal 0 1 0
    outer loop
      vertex -28 55 -25
      vertex -20 55 -26
      vertex -28 55 -26
    endloop
  endfacet
  facet normal -1 0 0
    outer loop
      vertex -11.5 63 -26
      vertex -11.5 71 -25
      vertex -11.5 71 -26
    endloop
  endfacet
  facet normal -1 -0 0
    outer loop
      vertex -11.5 71 -25
      vertex -11.5 63 -26
      vertex -11.5 63 -25
    endloop
  endfacet
  facet normal 1 -0 0
    outer loop
      vertex -36.5 63 -25
      vertex -36.5 71 -26
      vertex -36.5 71 -25
    endloop
  endfacet
  facet normal 1 0 0
    outer loop
      vertex -36.5 71 -26
      vertex -36.5 63 -25
      vertex -36.5 63 -26
    endloop
  endfacet
  facet normal 0 -1 0
    outer loop
      vertex -36.5 71 -26
      vertex -28 71 -25
      vertex -36.5 71 -25
    endloop
  endfacet
  facet normal 0 -1 -0
    outer loop
      vertex -28 71 -25
      vertex -36.5 71 -26
      vertex -28 71 -26
    endloop
  endfacet
  facet normal 0 -1 0
    outer loop
      vertex -20 71 -26
      vertex -11.5 71 -25
      vertex -20 71 -25
    endloop
  endfacet
  facet normal 0 -1 -0
    outer loop
      vertex -11.5 71 -25
      vertex -20 71 -26
      vertex -11.5 71 -26
    endloop
  endfacet
  facet normal 0 1 -0
    outer loop
      vertex -11.5 63 -26
      vertex -20 63 -25
      vertex -11.5 63 -25
    endloop
  endfacet
  facet normal 0 1 0
    outer loop
      vertex -20 63 -25
      vertex -11.5 63 -26
      vertex -20 63 -26
    endloop
  endfacet
  facet normal 0 1 -0
    outer loop
      vertex -28 63 -26
      vertex -36.5 63 -25
      vertex -28 63 -25
    endloop
  endfacet
  facet normal 0 1 0
    outer loop
      vertex -36.5 63 -25
      vertex -28 63 -26
      vertex -36.5 63 -26
    endloop
  endfacet
  facet normal 1 -0 1.22465e-16
    outer loop
      vertex 0 0 0
      vertex 3.18408e-15 100 -26
      vertex 0 100 0
    endloop
  endfacet
  facet normal 1 0 1.22465e-16
    outer loop
      vertex 3.18408e-15 100 -26
      vertex 0 0 0
      vertex 3.18408e-15 0 -26
    endloop
  endfacet
  facet normal 0 0 -1
    outer loop
      vertex -28 71 -26
      vertex -36.5 71 -26
      vertex -28 80 -26
    endloop
  endfacet
  facet normal 0 0 -1
    outer loop
      vertex 3.18408e-15 0 -26
      vertex -11.5 63 -26
      vertex 3.18408e-15 100 -26
    endloop
  endfacet
  facet normal 0 0 -1
    outer loop
      vertex 3.18408e-15 0 -26
      vertex -20 55 -26
      vertex -11.5 63 -26
    endloop
  endfacet
  facet normal 0 0 -1
    outer loop
      vertex 3.18408e-15 0 -26
      vertex -28 55 -26
      vertex -20 55 -26
    endloop
  endfacet
  facet normal 0 0 -1
    outer loop
      vertex -28 55 -26
      vertex -36.5 63 -26
      vertex -28 63 -26
    endloop
  endfacet
  facet normal 0 0 -1
    outer loop
      vertex -60 0 -26
      vertex -28 55 -26
      vertex 3.18408e-15 0 -26
    endloop
  endfacet
  facet normal 0 0 -1
    outer loop
      vertex -60 100 -26
      vertex -36.5 63 -26
      vertex -60 0 -26
    endloop
  endfacet
  facet normal -0 0 -1
    outer loop
      vertex -28 55 -26
      vertex -60 0 -26
      vertex -36.5 63 -26
    endloop
  endfacet
  facet normal 0 0 -1
    outer loop
      vertex -11.5 71 -26
      vertex 3.18408e-15 100 -26
      vertex -11.5 63 -26
    endloop
  endfacet
  facet normal 0 0 -1
    outer loop
      vertex -20 80 -26
      vertex -11.5 71 -26
      vertex -20 71 -26
    endloop
  endfacet
  facet normal 0 0 -1
    outer loop
      vertex -11.5 71 -26
      vertex -20 80 -26
      vertex 3.18408e-15 100 -26
    endloop
  endfacet
  facet normal 0 0 -1
    outer loop
      vertex -28 80 -26
      vertex 3.18408e-15 100 -26
      vertex -20 80 -26
    endloop
  endfacet
  facet normal 0 0 -1
    outer loop
      vertex -28 80 -26
      vertex -60 100 -26
      vertex 3.18408e-15 100 -26
    endloop
  endfacet
  facet normal 0 0 -1
    outer loop
      vertex -36.5 71 -26
      vertex -60 100 -26
      vertex -28 80 -26
    endloop
  endfacet
  facet normal 0 0 -1
    outer loop
      vertex -36.5 63 -26
      vertex -60 100 -26
      vertex -36.5 71 -26
    endloop
  endfacet
  facet normal -0 0 -1
    outer loop
      vertex -11.5 63 -26
      vertex -20 55 -26
      vertex -20 63 -26
    endloop
  endfacet
  facet normal -1 0 0
    outer loop
      vertex -60 100 -26
      vertex -60 99 -25
      vertex -60 100 -7.34788e-15
    endloop
  endfacet
  facet normal -1 0 0
    outer loop
      vertex -60 100 -26
      vertex -60 1 -25
      vertex -60 99 -25
    endloop
  endfacet
  facet normal -1 0 0
    outer loop
      vertex -60 0 -26
      vertex -60 1 -25
      vertex -60 100 -26
    endloop
  endfacet
  facet normal -1 0 0
    outer loop
      vertex -60 0 -7.34788e-15
      vertex -60 1 -25
      vertex -60 0 -26
    endloop
  endfacet
  facet normal -1 0 0
    outer loop
      vertex -60 1 -25
      vertex -60 0 -7.34788e-15
      vertex -60 1 -7.34788e-15
    endloop
  endfacet
  facet normal -1 -0 0
    outer loop
      vertex -60 100 -7.34788e-15
      vertex -60 99 -25
      vertex -60 99 -7.34788e-15
    endloop
  endfacet
  facet normal 0 1 0
    outer loop
      vertex -17.9134 100 -10.3806
      vertex 0 100 0
      vertex -16 100 -10
    endloop
  endfacet
  facet normal 0 1 0
    outer loop
      vertex 0 100 0
      vertex -14.0866 100 -10.3806
      vertex -16 100 -10
    endloop
  endfacet
  facet normal 0 1 0
    outer loop
      vertex 0 100 0
      vertex -12.4645 100 -11.4645
      vertex -14.0866 100 -10.3806
    endloop
  endfacet
  facet normal 0 1 0
    outer loop
      vertex 0 100 0
      vertex -11.3806 100 -13.0866
      vertex -12.4645 100 -11.4645
    endloop
  endfacet
  facet normal 0 1 0
    outer loop
      vertex 0 100 0
      vertex -11 100 -15
      vertex -11.3806 100 -13.0866
    endloop
  endfacet
  facet normal 0 1 0
    outer loop
      vertex 3.18408e-15 100 -26
      vertex -11 100 -15
      vertex 0 100 0
    endloop
  endfacet
  facet normal 0 1 0
    outer loop
      vertex -11 100 -15
      vertex 3.18408e-15 100 -26
      vertex -11.3806 100 -16.9134
    endloop
  endfacet
  facet normal 0 1 0
    outer loop
      vertex -14.0866 100 -19.6194
      vertex 3.18408e-15 100 -26
      vertex -16 100 -20
    endloop
  endfacet
  facet normal 0 1 0
    outer loop
      vertex -12.4645 100 -18.5355
      vertex 3.18408e-15 100 -26
      vertex -14.0866 100 -19.6194
    endloop
  endfacet
  facet normal 0 1 0
    outer loop
      vertex -11.3806 100 -16.9134
      vertex 3.18408e-15 100 -26
      vertex -12.4645 100 -18.5355
    endloop
  endfacet
  facet normal 0 1 0
    outer loop
      vertex 0 100 0
      vertex -17.9134 100 -10.3806
      vertex -60 100 -7.34788e-15
    endloop
  endfacet
  facet normal 0 1 -0
    outer loop
      vertex -19.5355 100 -11.4645
      vertex -60 100 -7.34788e-15
      vertex -17.9134 100 -10.3806
    endloop
  endfacet
  facet normal 0 1 -0
    outer loop
      vertex -20.6194 100 -13.0866
      vertex -60 100 -7.34788e-15
      vertex -19.5355 100 -11.4645
    endloop
  endfacet
  facet normal 0 1 -0
    outer loop
      vertex -21 100 -15
      vertex -60 100 -7.34788e-15
      vertex -20.6194 100 -13.0866
    endloop
  endfacet
  facet normal 0 1 0
    outer loop
      vertex -60 100 -26
      vertex -21 100 -15
      vertex -20.6194 100 -16.9134
    endloop
  endfacet
  facet normal 0 1 0
    outer loop
      vertex -60 100 -26
      vertex -20.6194 100 -16.9134
      vertex -19.5355 100 -18.5355
    endloop
  endfacet
  facet normal 0 1 0
    outer loop
      vertex -60 100 -26
      vertex -19.5355 100 -18.5355
      vertex -17.9134 100 -19.6194
    endloop
  endfacet
  facet normal 0 1 0
    outer loop
      vertex 3.18408e-15 100 -26
      vertex -17.9134 100 -19.6194
      vertex -16 100 -20
    endloop
  endfacet
  facet normal 0 1 0
    outer loop
      vertex -21 100 -15
      vertex -60 100 -26
      vertex -60 100 -7.34788e-15
    endloop
  endfacet
  facet normal 0 1 0
    outer loop
      vertex -60 100 -26
      vertex -17.9134 100 -19.6194
      vertex 3.18408e-15 100 -26
    endloop
  endfacet
  facet normal -1.22465e-16 1.99639e-24 1
    outer loop
      vertex -1 8 -1.22465e-16
      vertex -3.55496 5.94986 -4.35357e-16
      vertex -2.19806 4.86777 -2.69185e-16
    endloop
  endfacet
  facet normal -1.22465e-16 6.91308e-24 1
    outer loop
      vertex -8 8 -9.79717e-16
      vertex -3.55496 5.94986 -4.35357e-16
      vertex -1 8 -1.22465e-16
    endloop
  endfacet
  facet normal -1.22465e-16 1.31738e-23 1
    outer loop
      vertex -5.24698 5.56366 -6.4257e-16
      vertex -8 8 -9.79717e-16
      vertex -6 4 -7.34788e-16
    endloop
  endfacet
  facet normal -1.22465e-16 2.02764e-23 1
    outer loop
      vertex -3.55496 5.94986 -4.35357e-16
      vertex -8 8 -9.79717e-16
      vertex -5.24698 5.56366 -6.4257e-16
    endloop
  endfacet
  facet normal -1.22465e-16 0 1
    outer loop
      vertex 0 100 0
      vertex -1 91.5 -1.22465e-16
      vertex 0 0 0
    endloop
  endfacet
  facet normal -1.22465e-16 0 1
    outer loop
      vertex -2.19806 94.6322 -2.69185e-16
      vertex 0 100 0
      vertex -2.19806 96.3678 -2.69185e-16
    endloop
  endfacet
  facet normal -1.22465e-16 1.07841e-24 1
    outer loop
      vertex 0 100 0
      vertex -3.55496 97.4499 -4.35357e-16
      vertex -2.19806 96.3678 -2.69185e-16
    endloop
  endfacet
  facet normal -1.22465e-16 6.73046e-24 1
    outer loop
      vertex -8 99 -9.79717e-16
      vertex -3.55496 97.4499 -4.35357e-16
      vertex 0 100 0
    endloop
  endfacet
  facet normal -1.22465e-16 1.40345e-23 1
    outer loop
      vertex -5.24698 97.0637 -6.4257e-16
      vertex -8 99 -9.79717e-16
      vertex -6 95.5 -7.34788e-16
    endloop
  endfacet
  facet normal -1.22465e-16 2.42293e-23 1
    outer loop
      vertex -3.55496 97.4499 -4.35357e-16
      vertex -8 99 -9.79717e-16
      vertex -5.24698 97.0637 -6.4257e-16
    endloop
  endfacet
  facet normal -1.22465e-16 -9.88205e-23 1
    outer loop
      vertex -60 100 -7.34788e-15
      vertex -8 99 -9.79717e-16
      vertex 0 100 0
    endloop
  endfacet
  facet normal -1.22465e-16 0 1
    outer loop
      vertex -8 99 -9.79717e-16
      vertex -60 100 -7.34788e-15
      vertex -60 99 -7.34788e-15
    endloop
  endfacet
  facet normal -1.22465e-16 0 1
    outer loop
      vertex -1 8 -1.22465e-16
      vertex 0 0 0
      vertex -1 91.5 -1.22465e-16
    endloop
  endfacet
  facet normal -1.22465e-16 8.63415e-25 1
    outer loop
      vertex -2.19806 4.86777 -2.69185e-16
      vertex 0 0 0
      vertex -1 8 -1.22465e-16
    endloop
  endfacet
  facet normal -1.22465e-16 0 1
    outer loop
      vertex -2.19806 3.13223 -2.69185e-16
      vertex 0 0 0
      vertex -2.19806 4.86777 -2.69185e-16
    endloop
  endfacet
  facet normal -1.22465e-16 -1.18879e-24 1
    outer loop
      vertex -3.55496 2.05014 -4.35357e-16
      vertex 0 0 0
      vertex -2.19806 3.13223 -2.69185e-16
    endloop
  endfacet
  facet normal -1.22465e-16 -3.0097e-23 1
    outer loop
      vertex -8 1 -9.79717e-16
      vertex -3.55496 2.05014 -4.35357e-16
      vertex -5.24698 2.43634 -6.4257e-16
    endloop
  endfacet
  facet normal -1.22465e-16 0 1
    outer loop
      vertex -8 1 -9.79717e-16
      vertex -6 4 -7.34788e-16
      vertex -8 8 -9.79717e-16
    endloop
  endfacet
  facet normal -1.22465e-16 -1.50155e-23 1
    outer loop
      vertex -6 4 -7.34788e-16
      vertex -8 1 -9.79717e-16
      vertex -5.24698 2.43634 -6.4257e-16
    endloop
  endfacet
  facet normal -1.22465e-16 -8.82616e-24 1
    outer loop
      vertex -3.55496 2.05014 -4.35357e-16
      vertex -8 1 -9.79717e-16
      vertex 0 0 0
    endloop
  endfacet
  facet normal -1.22465e-16 0 1
    outer loop
      vertex -60 0 -7.34788e-15
      vertex -8 1 -9.79717e-16
      vertex -60 1 -7.34788e-15
    endloop
  endfacet
  facet normal -1.22465e-16 9.88205e-23 1
    outer loop
      vertex -8 1 -9.79717e-16
      vertex -60 0 -7.34788e-15
      vertex 0 0 0
    endloop
  endfacet
  facet normal -1.22465e-16 -8.24572e-25 1
    outer loop
      vertex 0 100 0
      vertex -2.19806 94.6322 -2.69185e-16
      vertex -1 91.5 -1.22465e-16
    endloop
  endfacet
  facet normal -1.22465e-16 -1.99639e-24 1
    outer loop
      vertex -3.55496 93.5501 -4.35357e-16
      vertex -1 91.5 -1.22465e-16
      vertex -2.19806 94.6322 -2.69185e-16
    endloop
  endfacet
  facet normal -1.22465e-16 -2.02763e-23 1
    outer loop
      vertex -8 91.5 -9.79717e-16
      vertex -3.55496 93.5501 -4.35357e-16
      vertex -5.24698 93.9363 -6.4257e-16
    endloop
  endfacet
  facet normal -1.22465e-16 0 1
    outer loop
      vertex -8 91.5 -9.79717e-16
      vertex -6 95.5 -7.34788e-16
      vertex -8 99 -9.79717e-16
    endloop
  endfacet
  facet normal -1.22465e-16 -6.91309e-24 1
    outer loop
      vertex -3.55496 93.5501 -4.35357e-16
      vertex -8 91.5 -9.79717e-16
      vertex -1 91.5 -1.22465e-16
    endloop
  endfacet
  facet normal -1.22465e-16 -1.31738e-23 1
    outer loop
      vertex -6 95.5 -7.34788e-16
      vertex -8 91.5 -9.79717e-16
      vertex -5.24698 93.9363 -6.4257e-16
    endloop
  endfacet
  facet normal 0 -1 0
    outer loop
      vertex -60 0 -26
      vertex 0 0 0
      vertex -60 0 -7.34788e-15
    endloop
  endfacet
  facet normal 0 -1 -0
    outer loop
      vertex 0 0 0
      vertex -60 0 -26
      vertex 3.18408e-15 0 -26
    endloop
  endfacet
  facet normal -1 0 0
    outer loop
      vertex -1 8 -25
      vertex -1 91.5 -1.22465e-16
      vertex -1 91.5 -25
    endloop
  endfacet
  facet normal -1 -0 0
    outer loop
      vertex -1 91.5 -1.22465e-16
      vertex -1 8 -25
      vertex -1 8 -1.22465e-16
    endloop
  endfacet
  facet normal 0 1 -0
    outer loop
      vertex -8 1 -25
      vertex -60 1 -7.34788e-15
      vertex -8 1 -9.79717e-16
    endloop
  endfacet
  facet normal 0 1 0
    outer loop
      vertex -60 1 -7.34788e-15
      vertex -8 1 -25
      vertex -60 1 -25
    endloop
  endfacet
  facet normal 0 -1 0
    outer loop
      vertex -8 99 -9.79717e-16
      vertex -17.9134 99 -10.3806
      vertex -16 99 -10
    endloop
  endfacet
  facet normal 0 -1 0
    outer loop
      vertex -60 99 -7.34788e-15
      vertex -19.5355 99 -11.4645
      vertex -17.9134 99 -10.3806
    endloop
  endfacet
  facet normal 0 -1 0
    outer loop
      vertex -60 99 -7.34788e-15
      vertex -20.6194 99 -13.0866
      vertex -19.5355 99 -11.4645
    endloop
  endfacet
  facet normal 0 -1 0
    outer loop
      vertex -60 99 -7.34788e-15
      vertex -21 99 -15
      vertex -20.6194 99 -13.0866
    endloop
  endfacet
  facet normal 0 -1 0
    outer loop
      vertex -60 99 -25
      vertex -21 99 -15
      vertex -60 99 -7.34788e-15
    endloop
  endfacet
  facet normal 0 -1 -0
    outer loop
      vertex -21 99 -15
      vertex -60 99 -25
      vertex -20.6194 99 -16.9134
    endloop
  endfacet
  facet normal 0 -1 -0
    outer loop
      vertex -20.6194 99 -16.9134
      vertex -60 99 -25
      vertex -19.5355 99 -18.5355
    endloop
  endfacet
  facet normal 0 -1 0
    outer loop
      vertex -8 99 -25
      vertex -17.9134 99 -19.6194
      vertex -60 99 -25
    endloop
  endfacet
  facet normal 0 -1 -0
    outer loop
      vertex -19.5355 99 -18.5355
      vertex -60 99 -25
      vertex -17.9134 99 -19.6194
    endloop
  endfacet
  facet normal 0 -1 0
    outer loop
      vertex -17.9134 99 -10.3806
      vertex -8 99 -9.79717e-16
      vertex -60 99 -7.34788e-15
    endloop
  endfacet
  facet normal 0 -1 0
    outer loop
      vertex -14.0866 99 -10.3806
      vertex -8 99 -9.79717e-16
      vertex -16 99 -10
    endloop
  endfacet
  facet normal 0 -1 0
    outer loop
      vertex -12.4645 99 -11.4645
      vertex -8 99 -9.79717e-16
      vertex -14.0866 99 -10.3806
    endloop
  endfacet
  facet normal 0 -1 0
    outer loop
      vertex -11.3806 99 -13.0866
      vertex -8 99 -9.79717e-16
      vertex -12.4645 99 -11.4645
    endloop
  endfacet
  facet normal 0 -1 0
    outer loop
      vertex -11 99 -15
      vertex -8 99 -9.79717e-16
      vertex -11.3806 99 -13.0866
    endloop
  endfacet
  facet normal 0 -1 0
    outer loop
      vertex -8 99 -25
      vertex -11 99 -15
      vertex -11.3806 99 -16.9134
    endloop
  endfacet
  facet normal 0 -1 0
    outer loop
      vertex -11 99 -15
      vertex -8 99 -25
      vertex -8 99 -9.79717e-16
    endloop
  endfacet
  facet normal 0 -1 0
    outer loop
      vertex -12.4645 99 -18.5355
      vertex -8 99 -25
      vertex -11.3806 99 -16.9134
    endloop
  endfacet
  facet normal 0 -1 0
    outer loop
      vertex -14.0866 99 -19.6194
      vertex -8 99 -25
      vertex -12.4645 99 -18.5355
    endloop
  endfacet
  facet normal 0 -1 0
    outer loop
      vertex -16 99 -20
      vertex -8 99 -25
      vertex -14.0866 99 -19.6194
    endloop
  endfacet
  facet normal 0 -1 0
    outer loop
      vertex -17.9134 99 -19.6194
      vertex -8 99 -25
      vertex -16 99 -20
    endloop
  endfacet
  facet normal 0.980785 -0 0.195091
    outer loop
      vertex -21 99 -15
      vertex -20.6194 100 -16.9134
      vertex -21 100 -15
    endloop
  endfacet
  facet normal 0.980785 0 0.195091
    outer loop
      vertex -20.6194 100 -16.9134
      vertex -21 99 -15
      vertex -20.6194 99 -16.9134
    endloop
  endfacet
  facet normal -0.980785 0 -0.19509
    outer loop
      vertex -11 99 -15
      vertex -11.3806 100 -13.0866
      vertex -11 100 -15
    endloop
  endfacet
  facet normal -0.980785 -0 -0.19509
    outer loop
      vertex -11.3806 100 -13.0866
      vertex -11 99 -15
      vertex -11.3806 99 -13.0866
    endloop
  endfacet
  facet normal 0.55557 0 -0.83147
    outer loop
      vertex -19.5355 99 -11.4645
      vertex -17.9134 100 -10.3806
      vertex -17.9134 99 -10.3806
    endloop
  endfacet
  facet normal 0.55557 0 -0.83147
    outer loop
      vertex -17.9134 100 -10.3806
      vertex -19.5355 99 -11.4645
      vertex -19.5355 100 -11.4645
    endloop
  endfacet
  facet normal 0.19509 0 -0.980785
    outer loop
      vertex -17.9134 99 -10.3806
      vertex -16 100 -10
      vertex -16 99 -10
    endloop
  endfacet
  facet normal 0.19509 0 -0.980785
    outer loop
      vertex -16 100 -10
      vertex -17.9134 99 -10.3806
      vertex -17.9134 100 -10.3806
    endloop
  endfacet
  facet normal 0.555569 0 0.83147
    outer loop
      vertex -19.5355 100 -18.5355
      vertex -17.9134 99 -19.6194
      vertex -17.9134 100 -19.6194
    endloop
  endfacet
  facet normal 0.555569 0 0.83147
    outer loop
      vertex -17.9134 99 -19.6194
      vertex -19.5355 100 -18.5355
      vertex -19.5355 99 -18.5355
    endloop
  endfacet
  facet normal -0.195091 0 0.980785
    outer loop
      vertex -16 100 -20
      vertex -14.0866 99 -19.6194
      vertex -14.0866 100 -19.6194
    endloop
  endfacet
  facet normal -0.195091 0 0.980785
    outer loop
      vertex -14.0866 99 -19.6194
      vertex -16 100 -20
      vertex -16 99 -20
    endloop
  endfacet
  facet normal 0.195091 0 0.980785
    outer loop
      vertex -17.9134 100 -19.6194
      vertex -16 99 -20
      vertex -16 100 -20
    endloop
  endfacet
  facet normal 0.195091 0 0.980785
    outer loop
      vertex -16 99 -20
      vertex -17.9134 100 -19.6194
      vertex -17.9134 99 -19.6194
    endloop
  endfacet
  facet normal 0.83147 0 -0.55557
    outer loop
      vertex -19.5355 99 -11.4645
      vertex -20.6194 100 -13.0866
      vertex -19.5355 100 -11.4645
    endloop
  endfacet
  facet normal 0.83147 0 -0.55557
    outer loop
      vertex -20.6194 100 -13.0866
      vertex -19.5355 99 -11.4645
      vertex -20.6194 99 -13.0866
    endloop
  endfacet
  facet normal -0.19509 0 -0.980785
    outer loop
      vertex -16 99 -10
      vertex -14.0866 100 -10.3806
      vertex -14.0866 99 -10.3806
    endloop
  endfacet
  facet normal -0.19509 0 -0.980785
    outer loop
      vertex -14.0866 100 -10.3806
      vertex -16 99 -10
      vertex -16 100 -10
    endloop
  endfacet
  facet normal 0.83147 -0 0.55557
    outer loop
      vertex -20.6194 99 -16.9134
      vertex -19.5355 100 -18.5355
      vertex -20.6194 100 -16.9134
    endloop
  endfacet
  facet normal 0.83147 0 0.55557
    outer loop
      vertex -19.5355 100 -18.5355
      vertex -20.6194 99 -16.9134
      vertex -19.5355 99 -18.5355
    endloop
  endfacet
  facet normal -0.980785 0 0.19509
    outer loop
      vertex -11.3806 99 -16.9134
      vertex -11 100 -15
      vertex -11.3806 100 -16.9134
    endloop
  endfacet
  facet normal -0.980785 0 0.19509
    outer loop
      vertex -11 100 -15
      vertex -11.3806 99 -16.9134
      vertex -11 99 -15
    endloop
  endfacet
  facet normal -0.55557 0 0.83147
    outer loop
      vertex -14.0866 100 -19.6194
      vertex -12.4645 99 -18.5355
      vertex -12.4645 100 -18.5355
    endloop
  endfacet
  facet normal -0.55557 0 0.83147
    outer loop
      vertex -12.4645 99 -18.5355
      vertex -14.0866 100 -19.6194
      vertex -14.0866 99 -19.6194
    endloop
  endfacet
  facet normal -0.83147 0 0.55557
    outer loop
      vertex -12.4645 99 -18.5355
      vertex -11.3806 100 -16.9134
      vertex -12.4645 100 -18.5355
    endloop
  endfacet
  facet normal -0.83147 0 0.55557
    outer loop
      vertex -11.3806 100 -16.9134
      vertex -12.4645 99 -18.5355
      vertex -11.3806 99 -16.9134
    endloop
  endfacet
  facet normal -0.83147 0 -0.55557
    outer loop
      vertex -11.3806 99 -13.0866
      vertex -12.4645 100 -11.4645
      vertex -11.3806 100 -13.0866
    endloop
  endfacet
  facet normal -0.83147 -0 -0.55557
    outer loop
      vertex -12.4645 100 -11.4645
      vertex -11.3806 99 -13.0866
      vertex -12.4645 99 -11.4645
    endloop
  endfacet
  facet normal -0.55557 0 -0.83147
    outer loop
      vertex -14.0866 99 -10.3806
      vertex -12.4645 100 -11.4645
      vertex -12.4645 99 -11.4645
    endloop
  endfacet
  facet normal -0.55557 0 -0.83147
    outer loop
      vertex -12.4645 100 -11.4645
      vertex -14.0866 99 -10.3806
      vertex -14.0866 100 -10.3806
    endloop
  endfacet
  facet normal 0.980785 0 -0.195091
    outer loop
      vertex -20.6194 99 -13.0866
      vertex -21 100 -15
      vertex -20.6194 100 -13.0866
    endloop
  endfacet
  facet normal 0.980785 0 -0.195091
    outer loop
      vertex -21 100 -15
      vertex -20.6194 99 -13.0866
      vertex -21 99 -15
    endloop
  endfacet
  facet normal -1 0 0
    outer loop
      vertex -8 1 -25
      vertex -8 8 -9.79717e-16
      vertex -8 8 -25
    endloop
  endfacet
  facet normal -1 -0 0
    outer loop
      vertex -8 8 -9.79717e-16
      vertex -8 1 -25
      vertex -8 1 -9.79717e-16
    endloop
  endfacet
  facet normal 0 1 -0
    outer loop
      vertex -1 8 -25
      vertex -8 8 -9.79717e-16
      vertex -1 8 -1.22465e-16
    endloop
  endfacet
  facet normal 0 1 0
    outer loop
      vertex -8 8 -9.79717e-16
      vertex -1 8 -25
      vertex -8 8 -25
    endloop
  endfacet
  facet normal 0.900969 -0.433884 0
    outer loop
      vertex -6 4 -7.34788e-16
      vertex -5.24698 5.56366 -25
      vertex -5.24698 5.56366 -6.4257e-16
    endloop
  endfacet
  facet normal 0.900969 -0.433884 0
    outer loop
      vertex -5.24698 5.56366 -25
      vertex -6 4 -7.34788e-16
      vertex -6 4 -25
    endloop
  endfacet
  facet normal -1 0 0
    outer loop
      vertex -2.19806 3.13223 -25
      vertex -2.19806 4.86777 -2.69185e-16
      vertex -2.19806 4.86777 -25
    endloop
  endfacet
  facet normal -1 -0 0
    outer loop
      vertex -2.19806 4.86777 -2.69185e-16
      vertex -2.19806 3.13223 -25
      vertex -2.19806 3.13223 -2.69185e-16
    endloop
  endfacet
  facet normal 0.222521 -0.974928 0
    outer loop
      vertex -5.24698 5.56366 -25
      vertex -3.55496 5.94986 -4.35357e-16
      vertex -5.24698 5.56366 -6.4257e-16
    endloop
  endfacet
  facet normal 0.222521 -0.974928 0
    outer loop
      vertex -3.55496 5.94986 -4.35357e-16
      vertex -5.24698 5.56366 -25
      vertex -3.55496 5.94986 -25
    endloop
  endfacet
  facet normal -0.62349 -0.781831 0
    outer loop
      vertex -3.55496 5.94986 -25
      vertex -2.19806 4.86777 -2.69185e-16
      vertex -3.55496 5.94986 -4.35357e-16
    endloop
  endfacet
  facet normal -0.62349 -0.781831 -0
    outer loop
      vertex -2.19806 4.86777 -2.69185e-16
      vertex -3.55496 5.94986 -25
      vertex -2.19806 4.86777 -25
    endloop
  endfacet
  facet normal 0.900969 0.433884 0
    outer loop
      vertex -5.24698 2.43634 -6.4257e-16
      vertex -6 4 -25
      vertex -6 4 -7.34788e-16
    endloop
  endfacet
  facet normal 0.900969 0.433884 0
    outer loop
      vertex -6 4 -25
      vertex -5.24698 2.43634 -6.4257e-16
      vertex -5.24698 2.43634 -25
    endloop
  endfacet
  facet normal 0.222521 0.974928 -0
    outer loop
      vertex -3.55496 2.05014 -25
      vertex -5.24698 2.43634 -6.4257e-16
      vertex -3.55496 2.05014 -4.35357e-16
    endloop
  endfacet
  facet normal 0.222521 0.974928 0
    outer loop
      vertex -5.24698 2.43634 -6.4257e-16
      vertex -3.55496 2.05014 -25
      vertex -5.24698 2.43634 -25
    endloop
  endfacet
  facet normal -0.62349 0.781831 0
    outer loop
      vertex -2.19806 3.13223 -25
      vertex -3.55496 2.05014 -4.35357e-16
      vertex -2.19806 3.13223 -2.69185e-16
    endloop
  endfacet
  facet normal -0.62349 0.781831 0
    outer loop
      vertex -3.55496 2.05014 -4.35357e-16
      vertex -2.19806 3.13223 -25
      vertex -3.55496 2.05014 -25
    endloop
  endfacet
  facet normal -1 0 0
    outer loop
      vertex -8 92.5 -9
      vertex -8 99 -25
      vertex -8 92.5 -25
    endloop
  endfacet
  facet normal -1 0 0
    outer loop
      vertex -8 99 -25
      vertex -8 92.5 -9
      vertex -8 99 -9.79717e-16
    endloop
  endfacet
  facet normal -1 0 0
    outer loop
      vertex -8 91.5 -9.79717e-16
      vertex -8 92.5 -9
      vertex -8 91.5 -9
    endloop
  endfacet
  facet normal -1 0 0
    outer loop
      vertex -8 92.5 -9
      vertex -8 91.5 -9.79717e-16
      vertex -8 99 -9.79717e-16
    endloop
  endfacet
  facet normal 0 -1 0
    outer loop
      vertex -22 91.5 -9
      vertex -22 91.5 -25
      vertex -8 91.5 -9
    endloop
  endfacet
  facet normal 0 -1 0
    outer loop
      vertex -8 91.5 -9
      vertex -1 91.5 -1.22465e-16
      vertex -8 91.5 -9.79717e-16
    endloop
  endfacet
  facet normal 0 -1 0
    outer loop
      vertex -8 91.5 -9
      vertex -1 91.5 -25
      vertex -1 91.5 -1.22465e-16
    endloop
  endfacet
  facet normal 0 -1 0
    outer loop
      vertex -1 91.5 -25
      vertex -8 91.5 -9
      vertex -22 91.5 -25
    endloop
  endfacet
  facet normal 0.900968 -0.433885 0
    outer loop
      vertex -6 95.5 -7.34788e-16
      vertex -5.24698 97.0637 -25
      vertex -5.24698 97.0637 -6.4257e-16
    endloop
  endfacet
  facet normal 0.900968 -0.433885 0
    outer loop
      vertex -5.24698 97.0637 -25
      vertex -6 95.5 -7.34788e-16
      vertex -6 95.5 -25
    endloop
  endfacet
  facet normal -1 0 0
    outer loop
      vertex -2.19806 94.6322 -25
      vertex -2.19806 96.3678 -2.69185e-16
      vertex -2.19806 96.3678 -25
    endloop
  endfacet
  facet normal -1 -0 0
    outer loop
      vertex -2.19806 96.3678 -2.69185e-16
      vertex -2.19806 94.6322 -25
      vertex -2.19806 94.6322 -2.69185e-16
    endloop
  endfacet
  facet normal 0.222525 -0.974927 0
    outer loop
      vertex -5.24698 97.0637 -25
      vertex -3.55496 97.4499 -4.35357e-16
      vertex -5.24698 97.0637 -6.4257e-16
    endloop
  endfacet
  facet normal 0.222525 -0.974927 0
    outer loop
      vertex -3.55496 97.4499 -4.35357e-16
      vertex -5.24698 97.0637 -25
      vertex -3.55496 97.4499 -25
    endloop
  endfacet
  facet normal -0.623491 -0.78183 0
    outer loop
      vertex -3.55496 97.4499 -25
      vertex -2.19806 96.3678 -2.69185e-16
      vertex -3.55496 97.4499 -4.35357e-16
    endloop
  endfacet
  facet normal -0.623491 -0.78183 -0
    outer loop
      vertex -2.19806 96.3678 -2.69185e-16
      vertex -3.55496 97.4499 -25
      vertex -2.19806 96.3678 -25
    endloop
  endfacet
  facet normal 0.900968 0.433885 0
    outer loop
      vertex -5.24698 93.9363 -6.4257e-16
      vertex -6 95.5 -25
      vertex -6 95.5 -7.34788e-16
    endloop
  endfacet
  facet normal 0.900968 0.433885 0
    outer loop
      vertex -6 95.5 -25
      vertex -5.24698 93.9363 -6.4257e-16
      vertex -5.24698 93.9363 -25
    endloop
  endfacet
  facet normal 0.222525 0.974927 -0
    outer loop
      vertex -3.55496 93.5501 -25
      vertex -5.24698 93.9363 -6.4257e-16
      vertex -3.55496 93.5501 -4.35357e-16
    endloop
  endfacet
  facet normal 0.222525 0.974927 0
    outer loop
      vertex -5.24698 93.9363 -6.4257e-16
      vertex -3.55496 93.5501 -25
      vertex -5.24698 93.9363 -25
    endloop
  endfacet
  facet normal -0.623491 0.78183 0
    outer loop
      vertex -2.19806 94.6322 -25
      vertex -3.55496 93.5501 -4.35357e-16
      vertex -2.19806 94.6322 -2.69185e-16
    endloop
  endfacet
  facet normal -0.623491 0.78183 0
    outer loop
      vertex -3.55496 93.5501 -4.35357e-16
      vertex -2.19806 94.6322 -25
      vertex -3.55496 93.5501 -25
    endloop
  endfacet
  facet normal 1 -0 0
    outer loop
      vertex -14 41 -14
      vertex -14 42 -25
      vertex -14 42 -14
    endloop
  endfacet
  facet normal 1 0 0
    outer loop
      vertex -14 42 -25
      vertex -14 41 -14
      vertex -14 41 -25
    endloop
  endfacet
  facet normal -1 0 0
    outer loop
      vertex -34 41 -25
      vertex -34 42 -14
      vertex -34 42 -25
    endloop
  endfacet
  facet normal -1 -0 0
    outer loop
      vertex -34 42 -14
      vertex -34 41 -25
      vertex -34 41 -14
    endloop
  endfacet
  facet normal 0 1 -0
    outer loop
      vertex -14 42 -25
      vertex -34 42 -14
      vertex -14 42 -14
    endloop
  endfacet
  facet normal 0 1 0
    outer loop
      vertex -34 42 -14
      vertex -14 42 -25
      vertex -34 42 -25
    endloop
  endfacet
  facet normal -0 0 1
    outer loop
      vertex -34 42 -14
      vertex -14 41 -14
      vertex -14 42 -14
    endloop
  endfacet
  facet normal 0 0 1
    outer loop
      vertex -14 41 -14
      vertex -34 42 -14
      vertex -34 41 -14
    endloop
  endfacet
  facet normal 0 -1 0
    outer loop
      vertex -34 41 -25
      vertex -14 41 -14
      vertex -34 41 -14
    endloop
  endfacet
  facet normal 0 -1 -0
    outer loop
      vertex -14 41 -14
      vertex -34 41 -25
      vertex -14 41 -25
    endloop
  endfacet
  facet normal 1 -0 0
    outer loop
      vertex -14 81 -14
      vertex -14 82 -25
      vertex -14 82 -14
    endloop
  endfacet
  facet normal 1 0 0
    outer loop
      vertex -14 82 -25
      vertex -14 81 -14
      vertex -14 81 -25
    endloop
  endfacet
  facet normal -1 0 0
    outer loop
      vertex -34 81 -25
      vertex -34 82 -14
      vertex -34 82 -25
    endloop
  endfacet
  facet normal -1 -0 0
    outer loop
      vertex -34 82 -14
      vertex -34 81 -25
      vertex -34 81 -14
    endloop
  endfacet
  facet normal -0 0 1
    outer loop
      vertex -34 82 -14
      vertex -14 81 -14
      vertex -14 82 -14
    endloop
  endfacet
  facet normal 0 0 1
    outer loop
      vertex -14 81 -14
      vertex -34 82 -14
      vertex -34 81 -14
    endloop
  endfacet
  facet normal 0 -1 0
    outer loop
      vertex -34 81 -25
      vertex -14 81 -14
      vertex -34 81 -14
    endloop
  endfacet
  facet normal 0 -1 -0
    outer loop
      vertex -14 81 -14
      vertex -34 81 -25
      vertex -14 81 -25
    endloop
  endfacet
  facet normal 0 1 -0
    outer loop
      vertex -14 82 -25
      vertex -34 82 -14
      vertex -14 82 -14
    endloop
  endfacet
  facet normal 0 1 0
    outer loop
      vertex -34 82 -14
      vertex -14 82 -25
      vertex -34 82 -25
    endloop
  endfacet
  facet normal 1 0 0
    outer loop
      vertex -9 72.9511 -16.309
      vertex -9 75 -14
      vertex -9 72.9511 -15.691
    endloop
  endfacet
  facet normal 1 0 0
    outer loop
      vertex -9 75 -14
      vertex -9 72.5878 -15.191
      vertex -9 72.9511 -15.691
    endloop
  endfacet
  facet normal 1 0 0
    outer loop
      vertex -9 75 -14
      vertex -9 72 -15
      vertex -9 72.5878 -15.191
    endloop
  endfacet
  facet normal 1 0 0
    outer loop
      vertex -9 58 -15
      vertex -9 72 -15
      vertex -9 75 -14
    endloop
  endfacet
  facet normal 1 0 0
    outer loop
      vertex -9 71.0489 -15.691
      vertex -9 58.9511 -15.691
      vertex -9 71.0489 -16.309
    endloop
  endfacet
  facet normal 1 0 0
    outer loop
      vertex -9 71.4122 -15.191
      vertex -9 58.9511 -15.691
      vertex -9 71.0489 -15.691
    endloop
  endfacet
  facet normal 1 0 0
    outer loop
      vertex -9 72 -15
      vertex -9 58 -15
      vertex -9 71.4122 -15.191
    endloop
  endfacet
  facet normal 1 0 0
    outer loop
      vertex -9 71.4122 -15.191
      vertex -9 58.5878 -15.191
      vertex -9 58.9511 -15.691
    endloop
  endfacet
  facet normal 1 0 0
    outer loop
      vertex -9 71.4122 -15.191
      vertex -9 58 -15
      vertex -9 58.5878 -15.191
    endloop
  endfacet
  facet normal 1 0 0
    outer loop
      vertex -9 57.0489 -15.691
      vertex -9 55 -14
      vertex -9 57.0489 -16.309
    endloop
  endfacet
  facet normal 1 0 0
    outer loop
      vertex -9 57.4122 -15.191
      vertex -9 55 -14
      vertex -9 57.0489 -15.691
    endloop
  endfacet
  facet normal 1 0 0
    outer loop
      vertex -9 58 -15
      vertex -9 55 -14
      vertex -9 57.4122 -15.191
    endloop
  endfacet
  facet normal 1 -0 0
    outer loop
      vertex -9 55 -14
      vertex -9 58 -15
      vertex -9 75 -14
    endloop
  endfacet
  facet normal 1 0 0
    outer loop
      vertex -9 75 -14
      vertex -9 72.9511 -16.309
      vertex -9 75 -25
    endloop
  endfacet
  facet normal 1 -0 0
    outer loop
      vertex -9 72.5878 -16.809
      vertex -9 75 -25
      vertex -9 72.9511 -16.309
    endloop
  endfacet
  facet normal 1 -0 0
    outer loop
      vertex -9 72 -17
      vertex -9 75 -25
      vertex -9 72.5878 -16.809
    endloop
  endfacet
  facet normal 1 0 0
    outer loop
      vertex -9 71.4122 -16.809
      vertex -9 75 -25
      vertex -9 72 -17
    endloop
  endfacet
  facet normal 1 0 0
    outer loop
      vertex -9 58.5878 -16.809
      vertex -9 71.4122 -16.809
      vertex -9 71.0489 -16.309
    endloop
  endfacet
  facet normal 1 0 0
    outer loop
      vertex -9 58.9511 -16.309
      vertex -9 71.0489 -16.309
      vertex -9 58.9511 -15.691
    endloop
  endfacet
  facet normal 1 0 0
    outer loop
      vertex -9 58.5878 -16.809
      vertex -9 71.0489 -16.309
      vertex -9 58.9511 -16.309
    endloop
  endfacet
  facet normal 1 0 0
    outer loop
      vertex -9 71.4122 -16.809
      vertex -9 58.5878 -16.809
      vertex -9 75 -25
    endloop
  endfacet
  facet normal 1 0 0
    outer loop
      vertex -9 55 -25
      vertex -9 58.5878 -16.809
      vertex -9 58 -17
    endloop
  endfacet
  facet normal 1 0 0
    outer loop
      vertex -9 55 -25
      vertex -9 58 -17
      vertex -9 57.4122 -16.809
    endloop
  endfacet
  facet normal 1 0 0
    outer loop
      vertex -9 55 -25
      vertex -9 57.0489 -16.309
      vertex -9 55 -14
    endloop
  endfacet
  facet normal 1 0 0
    outer loop
      vertex -9 58.5878 -16.809
      vertex -9 55 -25
      vertex -9 75 -25
    endloop
  endfacet
  facet normal 1 0 0
    outer loop
      vertex -9 57.0489 -16.309
      vertex -9 55 -25
      vertex -9 57.4122 -16.809
    endloop
  endfacet
  facet normal -1 0 0
    outer loop
      vertex -10 75 -25
      vertex -10 72.9511 -16.309
      vertex -10 75 -14
    endloop
  endfacet
  facet normal -1 0 0
    outer loop
      vertex -10 75 -25
      vertex -10 72.5878 -16.809
      vertex -10 72.9511 -16.309
    endloop
  endfacet
  facet normal -1 0 0
    outer loop
      vertex -10 75 -25
      vertex -10 72 -17
      vertex -10 72.5878 -16.809
    endloop
  endfacet
  facet normal -1 0 0
    outer loop
      vertex -10 75 -25
      vertex -10 71.4122 -16.809
      vertex -10 72 -17
    endloop
  endfacet
  facet normal -1 0 0
    outer loop
      vertex -10 58.5878 -16.809
      vertex -10 71.4122 -16.809
      vertex -10 75 -25
    endloop
  endfacet
  facet normal -1 0 0
    outer loop
      vertex -10 71.0489 -16.309
      vertex -10 58.9511 -16.309
      vertex -10 71.0489 -15.691
    endloop
  endfacet
  facet normal -1 0 0
    outer loop
      vertex -10 71.4122 -16.809
      vertex -10 58.5878 -16.809
      vertex -10 71.0489 -16.309
    endloop
  endfacet
  facet normal -1 -0 0
    outer loop
      vertex -10 71.0489 -16.309
      vertex -10 58.5878 -16.809
      vertex -10 58.9511 -16.309
    endloop
  endfacet
  facet normal -1 0 0
    outer loop
      vertex -10 55 -25
      vertex -10 58.5878 -16.809
      vertex -10 75 -25
    endloop
  endfacet
  facet normal -1 0 0
    outer loop
      vertex -10 58.5878 -16.809
      vertex -10 55 -25
      vertex -10 58 -17
    endloop
  endfacet
  facet normal -1 0 0
    outer loop
      vertex -10 55 -14
      vertex -10 57.0489 -16.309
      vertex -10 55 -25
    endloop
  endfacet
  facet normal -1 -0 0
    outer loop
      vertex -10 57.4122 -16.809
      vertex -10 55 -25
      vertex -10 57.0489 -16.309
    endloop
  endfacet
  facet normal -1 -0 0
    outer loop
      vertex -10 58 -17
      vertex -10 55 -25
      vertex -10 57.4122 -16.809
    endloop
  endfacet
  facet normal -1 0 0
    outer loop
      vertex -10 72.9511 -15.691
      vertex -10 75 -14
      vertex -10 72.9511 -16.309
    endloop
  endfacet
  facet normal -1 0 0
    outer loop
      vertex -10 72.5878 -15.191
      vertex -10 75 -14
      vertex -10 72.9511 -15.691
    endloop
  endfacet
  facet normal -1 0 0
    outer loop
      vertex -10 72 -15
      vertex -10 75 -14
      vertex -10 72.5878 -15.191
    endloop
  endfacet
  facet normal -1 0 0
    outer loop
      vertex -10 58 -15
      vertex -10 72 -15
      vertex -10 71.4122 -15.191
    endloop
  endfacet
  facet normal -1 0 0
    outer loop
      vertex -10 58.9511 -15.691
      vertex -10 71.0489 -15.691
      vertex -10 58.9511 -16.309
    endloop
  endfacet
  facet normal -1 0 0
    outer loop
      vertex -10 71.0489 -15.691
      vertex -10 58.9511 -15.691
      vertex -10 71.4122 -15.191
    endloop
  endfacet
  facet normal -1 0 0
    outer loop
      vertex -10 58.5878 -15.191
      vertex -10 71.4122 -15.191
      vertex -10 58.9511 -15.691
    endloop
  endfacet
  facet normal -1 0 0
    outer loop
      vertex -10 58 -15
      vertex -10 71.4122 -15.191
      vertex -10 58.5878 -15.191
    endloop
  endfacet
  facet normal -1 0 0
    outer loop
      vertex -10 72 -15
      vertex -10 58 -15
      vertex -10 75 -14
    endloop
  endfacet
  facet normal -1 0 0
    outer loop
      vertex -10 58 -15
      vertex -10 55 -14
      vertex -10 75 -14
    endloop
  endfacet
  facet normal -1 0 0
    outer loop
      vertex -10 57.4122 -15.191
      vertex -10 55 -14
      vertex -10 58 -15
    endloop
  endfacet
  facet normal -1 0 0
    outer loop
      vertex -10 57.0489 -15.691
      vertex -10 55 -14
      vertex -10 57.4122 -15.191
    endloop
  endfacet
  facet normal -1 0 0
    outer loop
      vertex -10 57.0489 -16.309
      vertex -10 55 -14
      vertex -10 57.0489 -15.691
    endloop
  endfacet
  facet normal 0 1 -0
    outer loop
      vertex -9 75 -25
      vertex -10 75 -14
      vertex -9 75 -14
    endloop
  endfacet
  facet normal 0 1 0
    outer loop
      vertex -10 75 -14
      vertex -9 75 -25
      vertex -10 75 -25
    endloop
  endfacet
  facet normal -0 0 1
    outer loop
      vertex -10 75 -14
      vertex -9 55 -14
      vertex -9 75 -14
    endloop
  endfacet
  facet normal 0 0 1
    outer loop
      vertex -9 55 -14
      vertex -10 75 -14
      vertex -10 55 -14
    endloop
  endfacet
  facet normal 0 -1 0
    outer loop
      vertex -10 55 -25
      vertex -9 55 -14
      vertex -10 55 -14
    endloop
  endfacet
  facet normal 0 -1 -0
    outer loop
      vertex -9 55 -14
      vertex -10 55 -25
      vertex -9 55 -25
    endloop
  endfacet
  facet normal 1 0 0
    outer loop
      vertex -41 72.9511 -16.309
      vertex -41 75 -14
      vertex -41 72.9511 -15.691
    endloop
  endfacet
  facet normal 1 0 0
    outer loop
      vertex -41 75 -14
      vertex -41 72.5878 -15.191
      vertex -41 72.9511 -15.691
    endloop
  endfacet
  facet normal 1 0 0
    outer loop
      vertex -41 75 -14
      vertex -41 72 -15
      vertex -41 72.5878 -15.191
    endloop
  endfacet
  facet normal 1 0 0
    outer loop
      vertex -41 58 -15
      vertex -41 72 -15
      vertex -41 75 -14
    endloop
  endfacet
  facet normal 1 0 0
    outer loop
      vertex -41 71.0489 -15.691
      vertex -41 58.9511 -15.691
      vertex -41 71.0489 -16.309
    endloop
  endfacet
  facet normal 1 0 0
    outer loop
      vertex -41 71.4122 -15.191
      vertex -41 58.9511 -15.691
      vertex -41 71.0489 -15.691
    endloop
  endfacet
  facet normal 1 0 0
    outer loop
      vertex -41 72 -15
      vertex -41 58 -15
      vertex -41 71.4122 -15.191
    endloop
  endfacet
  facet normal 1 0 0
    outer loop
      vertex -41 71.4122 -15.191
      vertex -41 58.5878 -15.191
      vertex -41 58.9511 -15.691
    endloop
  endfacet
  facet normal 1 0 0
    outer loop
      vertex -41 71.4122 -15.191
      vertex -41 58 -15
      vertex -41 58.5878 -15.191
    endloop
  endfacet
  facet normal 1 0 0
    outer loop
      vertex -41 57.0489 -15.691
      vertex -41 55 -14
      vertex -41 57.0489 -16.309
    endloop
  endfacet
  facet normal 1 0 0
    outer loop
      vertex -41 57.4122 -15.191
      vertex -41 55 -14
      vertex -41 57.0489 -15.691
    endloop
  endfacet
  facet normal 1 0 0
    outer loop
      vertex -41 58 -15
      vertex -41 55 -14
      vertex -41 57.4122 -15.191
    endloop
  endfacet
  facet normal 1 -0 0
    outer loop
      vertex -41 55 -14
      vertex -41 58 -15
      vertex -41 75 -14
    endloop
  endfacet
  facet normal 1 0 0
    outer loop
      vertex -41 75 -14
      vertex -41 72.9511 -16.309
      vertex -41 75 -25
    endloop
  endfacet
  facet normal 1 -0 0
    outer loop
      vertex -41 72.5878 -16.809
      vertex -41 75 -25
      vertex -41 72.9511 -16.309
    endloop
  endfacet
  facet normal 1 -0 0
    outer loop
      vertex -41 72 -17
      vertex -41 75 -25
      vertex -41 72.5878 -16.809
    endloop
  endfacet
  facet normal 1 0 0
    outer loop
      vertex -41 71.4122 -16.809
      vertex -41 75 -25
      vertex -41 72 -17
    endloop
  endfacet
  facet normal 1 0 0
    outer loop
      vertex -41 58.5878 -16.809
      vertex -41 71.4122 -16.809
      vertex -41 71.0489 -16.309
    endloop
  endfacet
  facet normal 1 0 0
    outer loop
      vertex -41 58.9511 -16.309
      vertex -41 71.0489 -16.309
      vertex -41 58.9511 -15.691
    endloop
  endfacet
  facet normal 1 0 0
    outer loop
      vertex -41 58.5878 -16.809
      vertex -41 71.0489 -16.309
      vertex -41 58.9511 -16.309
    endloop
  endfacet
  facet normal 1 0 0
    outer loop
      vertex -41 71.4122 -16.809
      vertex -41 58.5878 -16.809
      vertex -41 75 -25
    endloop
  endfacet
  facet normal 1 0 0
    outer loop
      vertex -41 55 -25
      vertex -41 58.5878 -16.809
      vertex -41 58 -17
    endloop
  endfacet
  facet normal 1 0 0
    outer loop
      vertex -41 55 -25
      vertex -41 58 -17
      vertex -41 57.4122 -16.809
    endloop
  endfacet
  facet normal 1 0 0
    outer loop
      vertex -41 55 -25
      vertex -41 57.0489 -16.309
      vertex -41 55 -14
    endloop
  endfacet
  facet normal 1 0 0
    outer loop
      vertex -41 58.5878 -16.809
      vertex -41 55 -25
      vertex -41 75 -25
    endloop
  endfacet
  facet normal 1 0 0
    outer loop
      vertex -41 57.0489 -16.309
      vertex -41 55 -25
      vertex -41 57.4122 -16.809
    endloop
  endfacet
  facet normal -1 0 0
    outer loop
      vertex -42 75 -25
      vertex -42 72.9511 -16.309
      vertex -42 75 -14
    endloop
  endfacet
  facet normal -1 0 0
    outer loop
      vertex -42 75 -25
      vertex -42 72.5878 -16.809
      vertex -42 72.9511 -16.309
    endloop
  endfacet
  facet normal -1 0 0
    outer loop
      vertex -42 75 -25
      vertex -42 72 -17
      vertex -42 72.5878 -16.809
    endloop
  endfacet
  facet normal -1 0 0
    outer loop
      vertex -42 75 -25
      vertex -42 71.4122 -16.809
      vertex -42 72 -17
    endloop
  endfacet
  facet normal -1 0 0
    outer loop
      vertex -42 58.5878 -16.809
      vertex -42 71.4122 -16.809
      vertex -42 75 -25
    endloop
  endfacet
  facet normal -1 0 0
    outer loop
      vertex -42 71.0489 -16.309
      vertex -42 58.9511 -16.309
      vertex -42 71.0489 -15.691
    endloop
  endfacet
  facet normal -1 0 0
    outer loop
      vertex -42 71.4122 -16.809
      vertex -42 58.5878 -16.809
      vertex -42 71.0489 -16.309
    endloop
  endfacet
  facet normal -1 -0 0
    outer loop
      vertex -42 71.0489 -16.309
      vertex -42 58.5878 -16.809
      vertex -42 58.9511 -16.309
    endloop
  endfacet
  facet normal -1 0 0
    outer loop
      vertex -42 55 -25
      vertex -42 58.5878 -16.809
      vertex -42 75 -25
    endloop
  endfacet
  facet normal -1 0 0
    outer loop
      vertex -42 58.5878 -16.809
      vertex -42 55 -25
      vertex -42 58 -17
    endloop
  endfacet
  facet normal -1 0 0
    outer loop
      vertex -42 55 -14
      vertex -42 57.0489 -16.309
      vertex -42 55 -25
    endloop
  endfacet
  facet normal -1 -0 0
    outer loop
      vertex -42 57.4122 -16.809
      vertex -42 55 -25
      vertex -42 57.0489 -16.309
    endloop
  endfacet
  facet normal -1 -0 0
    outer loop
      vertex -42 58 -17
      vertex -42 55 -25
      vertex -42 57.4122 -16.809
    endloop
  endfacet
  facet normal -1 0 0
    outer loop
      vertex -42 72.9511 -15.691
      vertex -42 75 -14
      vertex -42 72.9511 -16.309
    endloop
  endfacet
  facet normal -1 0 0
    outer loop
      vertex -42 72.5878 -15.191
      vertex -42 75 -14
      vertex -42 72.9511 -15.691
    endloop
  endfacet
  facet normal -1 0 0
    outer loop
      vertex -42 72 -15
      vertex -42 75 -14
      vertex -42 72.5878 -15.191
    endloop
  endfacet
  facet normal -1 0 0
    outer loop
      vertex -42 58 -15
      vertex -42 72 -15
      vertex -42 71.4122 -15.191
    endloop
  endfacet
  facet normal -1 0 0
    outer loop
      vertex -42 58.9511 -15.691
      vertex -42 71.0489 -15.691
      vertex -42 58.9511 -16.309
    endloop
  endfacet
  facet normal -1 0 0
    outer loop
      vertex -42 71.0489 -15.691
      vertex -42 58.9511 -15.691
      vertex -42 71.4122 -15.191
    endloop
  endfacet
  facet normal -1 0 0
    outer loop
      vertex -42 58.5878 -15.191
      vertex -42 71.4122 -15.191
      vertex -42 58.9511 -15.691
    endloop
  endfacet
  facet normal -1 0 0
    outer loop
      vertex -42 58 -15
      vertex -42 71.4122 -15.191
      vertex -42 58.5878 -15.191
    endloop
  endfacet
  facet normal -1 0 0
    outer loop
      vertex -42 72 -15
      vertex -42 58 -15
      vertex -42 75 -14
    endloop
  endfacet
  facet normal -1 0 0
    outer loop
      vertex -42 58 -15
      vertex -42 55 -14
      vertex -42 75 -14
    endloop
  endfacet
  facet normal -1 0 0
    outer loop
      vertex -42 57.4122 -15.191
      vertex -42 55 -14
      vertex -42 58 -15
    endloop
  endfacet
  facet normal -1 0 0
    outer loop
      vertex -42 57.0489 -15.691
      vertex -42 55 -14
      vertex -42 57.4122 -15.191
    endloop
  endfacet
  facet normal -1 0 0
    outer loop
      vertex -42 57.0489 -16.309
      vertex -42 55 -14
      vertex -42 57.0489 -15.691
    endloop
  endfacet
  facet normal 0 1 -0
    outer loop
      vertex -41 75 -25
      vertex -42 75 -14
      vertex -41 75 -14
    endloop
  endfacet
  facet normal 0 1 0
    outer loop
      vertex -42 75 -14
      vertex -41 75 -25
      vertex -42 75 -25
    endloop
  endfacet
  facet normal -0 0 1
    outer loop
      vertex -42 75 -14
      vertex -41 55 -14
      vertex -41 75 -14
    endloop
  endfacet
  facet normal 0 0 1
    outer loop
      vertex -41 55 -14
      vertex -42 75 -14
      vertex -42 55 -14
    endloop
  endfacet
  facet normal 0 -1 0
    outer loop
      vertex -42 55 -25
      vertex -41 55 -14
      vertex -42 55 -14
    endloop
  endfacet
  facet normal 0 -1 -0
    outer loop
      vertex -41 55 -14
      vertex -42 55 -25
      vertex -41 55 -25
    endloop
  endfacet
  facet normal 0 -0.309017 -0.951056
    outer loop
      vertex -10 58 -15
      vertex -9 58.5878 -15.191
      vertex -9 58 -15
    endloop
  endfacet
  facet normal -0 -0.309017 -0.951056
    outer loop
      vertex -9 58.5878 -15.191
      vertex -10 58 -15
      vertex -10 58.5878 -15.191
    endloop
  endfacet
  facet normal 0 -0.309017 -0.951056
    outer loop
      vertex -42 58 -15
      vertex -41 58.5878 -15.191
      vertex -41 58 -15
    endloop
  endfacet
  facet normal -0 -0.309017 -0.951056
    outer loop
      vertex -41 58.5878 -15.191
      vertex -42 58 -15
      vertex -42 58.5878 -15.191
    endloop
  endfacet
  facet normal 0 -0.309017 0.951056
    outer loop
      vertex -10 58.5878 -16.809
      vertex -9 58 -17
      vertex -9 58.5878 -16.809
    endloop
  endfacet
  facet normal 0 -0.309017 0.951056
    outer loop
      vertex -9 58 -17
      vertex -10 58.5878 -16.809
      vertex -10 58 -17
    endloop
  endfacet
  facet normal 0 -0.309017 0.951056
    outer loop
      vertex -42 58.5878 -16.809
      vertex -41 58 -17
      vertex -41 58.5878 -16.809
    endloop
  endfacet
  facet normal 0 -0.309017 0.951056
    outer loop
      vertex -41 58 -17
      vertex -42 58.5878 -16.809
      vertex -42 58 -17
    endloop
  endfacet
  facet normal 0 -0.809015 -0.587788
    outer loop
      vertex -10 58.9511 -15.691
      vertex -9 58.5878 -15.191
      vertex -10 58.5878 -15.191
    endloop
  endfacet
  facet normal 0 -0.809015 -0.587788
    outer loop
      vertex -9 58.5878 -15.191
      vertex -10 58.9511 -15.691
      vertex -9 58.9511 -15.691
    endloop
  endfacet
  facet normal 0 -0.809015 -0.587788
    outer loop
      vertex -42 58.9511 -15.691
      vertex -41 58.5878 -15.191
      vertex -42 58.5878 -15.191
    endloop
  endfacet
  facet normal 0 -0.809015 -0.587788
    outer loop
      vertex -41 58.5878 -15.191
      vertex -42 58.9511 -15.691
      vertex -41 58.9511 -15.691
    endloop
  endfacet
  facet normal 0 -0.809015 0.587788
    outer loop
      vertex -10 58.5878 -16.809
      vertex -9 58.9511 -16.309
      vertex -10 58.9511 -16.309
    endloop
  endfacet
  facet normal 0 -0.809015 0.587788
    outer loop
      vertex -9 58.9511 -16.309
      vertex -10 58.5878 -16.809
      vertex -9 58.5878 -16.809
    endloop
  endfacet
  facet normal 0 -0.809015 0.587788
    outer loop
      vertex -42 58.5878 -16.809
      vertex -41 58.9511 -16.309
      vertex -42 58.9511 -16.309
    endloop
  endfacet
  facet normal 0 -0.809015 0.587788
    outer loop
      vertex -41 58.9511 -16.309
      vertex -42 58.5878 -16.809
      vertex -41 58.5878 -16.809
    endloop
  endfacet
  facet normal -0 0.309017 0.951056
    outer loop
      vertex -10 58 -17
      vertex -9 57.4122 -16.809
      vertex -9 58 -17
    endloop
  endfacet
  facet normal 0 0.309017 0.951056
    outer loop
      vertex -9 57.4122 -16.809
      vertex -10 58 -17
      vertex -10 57.4122 -16.809
    endloop
  endfacet
  facet normal -0 0.309017 0.951056
    outer loop
      vertex -42 58 -17
      vertex -41 57.4122 -16.809
      vertex -41 58 -17
    endloop
  endfacet
  facet normal 0 0.309017 0.951056
    outer loop
      vertex -41 57.4122 -16.809
      vertex -42 58 -17
      vertex -42 57.4122 -16.809
    endloop
  endfacet
  facet normal 0 -1 0
    outer loop
      vertex -10 58.9511 -16.309
      vertex -9 58.9511 -15.691
      vertex -10 58.9511 -15.691
    endloop
  endfacet
  facet normal 0 -1 -0
    outer loop
      vertex -9 58.9511 -15.691
      vertex -10 58.9511 -16.309
      vertex -9 58.9511 -16.309
    endloop
  endfacet
  facet normal 0 -1 0
    outer loop
      vertex -42 58.9511 -16.309
      vertex -41 58.9511 -15.691
      vertex -42 58.9511 -15.691
    endloop
  endfacet
  facet normal 0 -1 -0
    outer loop
      vertex -41 58.9511 -15.691
      vertex -42 58.9511 -16.309
      vertex -41 58.9511 -16.309
    endloop
  endfacet
  facet normal 0 1 -0
    outer loop
      vertex -9 57.0489 -16.309
      vertex -10 57.0489 -15.691
      vertex -9 57.0489 -15.691
    endloop
  endfacet
  facet normal 0 1 0
    outer loop
      vertex -10 57.0489 -15.691
      vertex -9 57.0489 -16.309
      vertex -10 57.0489 -16.309
    endloop
  endfacet
  facet normal 0 1 -0
    outer loop
      vertex -41 57.0489 -16.309
      vertex -42 57.0489 -15.691
      vertex -41 57.0489 -15.691
    endloop
  endfacet
  facet normal 0 1 0
    outer loop
      vertex -42 57.0489 -15.691
      vertex -41 57.0489 -16.309
      vertex -42 57.0489 -16.309
    endloop
  endfacet
  facet normal 0 0.809015 0.587788
    outer loop
      vertex -9 57.4122 -16.809
      vertex -10 57.0489 -16.309
      vertex -9 57.0489 -16.309
    endloop
  endfacet
  facet normal 0 0.809015 0.587788
    outer loop
      vertex -10 57.0489 -16.309
      vertex -9 57.4122 -16.809
      vertex -10 57.4122 -16.809
    endloop
  endfacet
  facet normal 0 0.809015 0.587788
    outer loop
      vertex -41 57.4122 -16.809
      vertex -42 57.0489 -16.309
      vertex -41 57.0489 -16.309
    endloop
  endfacet
  facet normal 0 0.809015 0.587788
    outer loop
      vertex -42 57.0489 -16.309
      vertex -41 57.4122 -16.809
      vertex -42 57.4122 -16.809
    endloop
  endfacet
  facet normal 0 0.809015 -0.587788
    outer loop
      vertex -9 57.0489 -15.691
      vertex -10 57.4122 -15.191
      vertex -9 57.4122 -15.191
    endloop
  endfacet
  facet normal 0 0.809015 -0.587788
    outer loop
      vertex -10 57.4122 -15.191
      vertex -9 57.0489 -15.691
      vertex -10 57.0489 -15.691
    endloop
  endfacet
  facet normal 0 0.809015 -0.587788
    outer loop
      vertex -41 57.0489 -15.691
      vertex -42 57.4122 -15.191
      vertex -41 57.4122 -15.191
    endloop
  endfacet
  facet normal 0 0.809015 -0.587788
    outer loop
      vertex -42 57.4122 -15.191
      vertex -41 57.0489 -15.691
      vertex -42 57.0489 -15.691
    endloop
  endfacet
  facet normal 0 0.309017 -0.951056
    outer loop
      vertex -10 57.4122 -15.191
      vertex -9 58 -15
      vertex -9 57.4122 -15.191
    endloop
  endfacet
  facet normal 0 0.309017 -0.951056
    outer loop
      vertex -9 58 -15
      vertex -10 57.4122 -15.191
      vertex -10 58 -15
    endloop
  endfacet
  facet normal 0 0.309017 -0.951056
    outer loop
      vertex -42 57.4122 -15.191
      vertex -41 58 -15
      vertex -41 57.4122 -15.191
    endloop
  endfacet
  facet normal 0 0.309017 -0.951056
    outer loop
      vertex -41 58 -15
      vertex -42 57.4122 -15.191
      vertex -42 58 -15
    endloop
  endfacet
  facet normal 0 -0.309017 -0.951056
    outer loop
      vertex -10 72 -15
      vertex -9 72.5878 -15.191
      vertex -9 72 -15
    endloop
  endfacet
  facet normal -0 -0.309017 -0.951056
    outer loop
      vertex -9 72.5878 -15.191
      vertex -10 72 -15
      vertex -10 72.5878 -15.191
    endloop
  endfacet
  facet normal 0 -0.309017 -0.951056
    outer loop
      vertex -42 72 -15
      vertex -41 72.5878 -15.191
      vertex -41 72 -15
    endloop
  endfacet
  facet normal -0 -0.309017 -0.951056
    outer loop
      vertex -41 72.5878 -15.191
      vertex -42 72 -15
      vertex -42 72.5878 -15.191
    endloop
  endfacet
  facet normal 0 -0.309017 0.951056
    outer loop
      vertex -10 72.5878 -16.809
      vertex -9 72 -17
      vertex -9 72.5878 -16.809
    endloop
  endfacet
  facet normal 0 -0.309017 0.951056
    outer loop
      vertex -9 72 -17
      vertex -10 72.5878 -16.809
      vertex -10 72 -17
    endloop
  endfacet
  facet normal 0 -0.309017 0.951056
    outer loop
      vertex -42 72.5878 -16.809
      vertex -41 72 -17
      vertex -41 72.5878 -16.809
    endloop
  endfacet
  facet normal 0 -0.309017 0.951056
    outer loop
      vertex -41 72 -17
      vertex -42 72.5878 -16.809
      vertex -42 72 -17
    endloop
  endfacet
  facet normal 0 1 -0
    outer loop
      vertex -9 71.0489 -16.309
      vertex -10 71.0489 -15.691
      vertex -9 71.0489 -15.691
    endloop
  endfacet
  facet normal 0 1 0
    outer loop
      vertex -10 71.0489 -15.691
      vertex -9 71.0489 -16.309
      vertex -10 71.0489 -16.309
    endloop
  endfacet
  facet normal 0 1 -0
    outer loop
      vertex -41 71.0489 -16.309
      vertex -42 71.0489 -15.691
      vertex -41 71.0489 -15.691
    endloop
  endfacet
  facet normal 0 1 0
    outer loop
      vertex -42 71.0489 -15.691
      vertex -41 71.0489 -16.309
      vertex -42 71.0489 -16.309
    endloop
  endfacet
  facet normal 0 -0.809015 -0.587788
    outer loop
      vertex -10 72.9511 -15.691
      vertex -9 72.5878 -15.191
      vertex -10 72.5878 -15.191
    endloop
  endfacet
  facet normal 0 -0.809015 -0.587788
    outer loop
      vertex -9 72.5878 -15.191
      vertex -10 72.9511 -15.691
      vertex -9 72.9511 -15.691
    endloop
  endfacet
  facet normal 0 -0.809015 -0.587788
    outer loop
      vertex -42 72.9511 -15.691
      vertex -41 72.5878 -15.191
      vertex -42 72.5878 -15.191
    endloop
  endfacet
  facet normal 0 -0.809015 -0.587788
    outer loop
      vertex -41 72.5878 -15.191
      vertex -42 72.9511 -15.691
      vertex -41 72.9511 -15.691
    endloop
  endfacet
  facet normal 0 -0.809015 0.587788
    outer loop
      vertex -10 72.5878 -16.809
      vertex -9 72.9511 -16.309
      vertex -10 72.9511 -16.309
    endloop
  endfacet
  facet normal 0 -0.809015 0.587788
    outer loop
      vertex -9 72.9511 -16.309
      vertex -10 72.5878 -16.809
      vertex -9 72.5878 -16.809
    endloop
  endfacet
  facet normal 0 -0.809015 0.587788
    outer loop
      vertex -42 72.5878 -16.809
      vertex -41 72.9511 -16.309
      vertex -42 72.9511 -16.309
    endloop
  endfacet
  facet normal 0 -0.809015 0.587788
    outer loop
      vertex -41 72.9511 -16.309
      vertex -42 72.5878 -16.809
      vertex -41 72.5878 -16.809
    endloop
  endfacet
  facet normal 0 -1 0
    outer loop
      vertex -10 72.9511 -16.309
      vertex -9 72.9511 -15.691
      vertex -10 72.9511 -15.691
    endloop
  endfacet
  facet normal 0 -1 -0
    outer loop
      vertex -9 72.9511 -15.691
      vertex -10 72.9511 -16.309
      vertex -9 72.9511 -16.309
    endloop
  endfacet
  facet normal 0 -1 0
    outer loop
      vertex -42 72.9511 -16.309
      vertex -41 72.9511 -15.691
      vertex -42 72.9511 -15.691
    endloop
  endfacet
  facet normal 0 -1 -0
    outer loop
      vertex -41 72.9511 -15.691
      vertex -42 72.9511 -16.309
      vertex -41 72.9511 -16.309
    endloop
  endfacet
  facet normal 0 0.309017 -0.951056
    outer loop
      vertex -10 71.4122 -15.191
      vertex -9 72 -15
      vertex -9 71.4122 -15.191
    endloop
  endfacet
  facet normal 0 0.309017 -0.951056
    outer loop
      vertex -9 72 -15
      vertex -10 71.4122 -15.191
      vertex -10 72 -15
    endloop
  endfacet
  facet normal 0 0.309017 -0.951056
    outer loop
      vertex -42 71.4122 -15.191
      vertex -41 72 -15
      vertex -41 71.4122 -15.191
    endloop
  endfacet
  facet normal 0 0.309017 -0.951056
    outer loop
      vertex -41 72 -15
      vertex -42 71.4122 -15.191
      vertex -42 72 -15
    endloop
  endfacet
  facet normal 0 0.809015 -0.587788
    outer loop
      vertex -9 71.0489 -15.691
      vertex -10 71.4122 -15.191
      vertex -9 71.4122 -15.191
    endloop
  endfacet
  facet normal 0 0.809015 -0.587788
    outer loop
      vertex -10 71.4122 -15.191
      vertex -9 71.0489 -15.691
      vertex -10 71.0489 -15.691
    endloop
  endfacet
  facet normal 0 0.809015 -0.587788
    outer loop
      vertex -41 71.0489 -15.691
      vertex -42 71.4122 -15.191
      vertex -41 71.4122 -15.191
    endloop
  endfacet
  facet normal 0 0.809015 -0.587788
    outer loop
      vertex -42 71.4122 -15.191
      vertex -41 71.0489 -15.691
      vertex -42 71.0489 -15.691
    endloop
  endfacet
  facet normal 0 0.809015 0.587788
    outer loop
      vertex -9 71.4122 -16.809
      vertex -10 71.0489 -16.309
      vertex -9 71.0489 -16.309
    endloop
  endfacet
  facet normal 0 0.809015 0.587788
    outer loop
      vertex -10 71.0489 -16.309
      vertex -9 71.4122 -16.809
      vertex -10 71.4122 -16.809
    endloop
  endfacet
  facet normal 0 0.809015 0.587788
    outer loop
      vertex -41 71.4122 -16.809
      vertex -42 71.0489 -16.309
      vertex -41 71.0489 -16.309
    endloop
  endfacet
  facet normal 0 0.809015 0.587788
    outer loop
      vertex -42 71.0489 -16.309
      vertex -41 71.4122 -16.809
      vertex -42 71.4122 -16.809
    endloop
  endfacet
  facet normal -0 0.309017 0.951056
    outer loop
      vertex -10 72 -17
      vertex -9 71.4122 -16.809
      vertex -9 72 -17
    endloop
  endfacet
  facet normal 0 0.309017 0.951056
    outer loop
      vertex -9 71.4122 -16.809
      vertex -10 72 -17
      vertex -10 71.4122 -16.809
    endloop
  endfacet
  facet normal -0 0.309017 0.951056
    outer loop
      vertex -42 72 -17
      vertex -41 71.4122 -16.809
      vertex -41 72 -17
    endloop
  endfacet
  facet normal 0 0.309017 0.951056
    outer loop
      vertex -41 71.4122 -16.809
      vertex -42 72 -17
      vertex -42 71.4122 -16.809
    endloop
  endfacet
  facet normal -1 0 0
    outer loop
      vertex -22 91.5 -25
      vertex -22 92.5 -9
      vertex -22 92.5 -25
    endloop
  endfacet
  facet normal -1 -0 0
    outer loop
      vertex -22 92.5 -9
      vertex -22 91.5 -25
      vertex -22 91.5 -9
    endloop
  endfacet
  facet normal 0 1 -0
    outer loop
      vertex -8 92.5 -25
      vertex -22 92.5 -9
      vertex -8 92.5 -9
    endloop
  endfacet
  facet normal 0 1 0
    outer loop
      vertex -22 92.5 -9
      vertex -8 92.5 -25
      vertex -22 92.5 -25
    endloop
  endfacet
  facet normal -0 0 1
    outer loop
      vertex -22 92.5 -9
      vertex -8 91.5 -9
      vertex -8 92.5 -9
    endloop
  endfacet
  facet normal 0 0 1
    outer loop
      vertex -8 91.5 -9
      vertex -22 92.5 -9
      vertex -22 91.5 -9
    endloop
  endfacet
endsolid OpenSCAD_Model
