solid OpenSCAD_Model
  facet normal -1 0 0
    outer loop
      vertex 0 0 0
      vertex 0 100 26
      vertex 0 100 0
    endloop
  endfacet
  facet normal -1 -0 0
    outer loop
      vertex 0 100 26
      vertex 0 0 0
      vertex 0 0 26
    endloop
  endfacet
  facet normal 0 0 -1
    outer loop
      vertex 1 91.5 25
      vertex 9 60 25
      vertex 1 8 25
    endloop
  endfacet
  facet normal 0 0 -1
    outer loop
      vertex 9 60 25
      vertex 1 91.5 25
      vertex 8 91.5 25
    endloop
  endfacet
  facet normal 0 0 -1
    outer loop
      vertex 20 71 25
      vertex 17 81 25
      vertex 20 80 25
    endloop
  endfacet
  facet normal 0 0 -1
    outer loop
      vertex 20 71 25
      vertex 10 75 25
      vertex 17 81 25
    endloop
  endfacet
  facet normal 0 0 -1
    outer loop
      vertex 10 75 25
      vertex 20 71 25
      vertex 11.5 71 25
    endloop
  endfacet
  facet normal 0 0 -1
    outer loop
      vertex 17 42 25
      vertex 28 55 25
      vertex 32 42 25
    endloop
  endfacet
  facet normal -0 0 -1
    outer loop
      vertex 28 55 25
      vertex 17 42 25
      vertex 20 55 25
    endloop
  endfacet
  facet normal 0 0 -1
    outer loop
      vertex 10 60 25
      vertex 20 55 25
      vertex 17 42 25
    endloop
  endfacet
  facet normal 0 0 -1
    outer loop
      vertex 20 55 25
      vertex 10 60 25
      vertex 20 63 25
    endloop
  endfacet
  facet normal 0 0 -1
    outer loop
      vertex 28 71 25
      vertex 32 81 25
      vertex 36.5 71 25
    endloop
  endfacet
  facet normal 0 0 -1
    outer loop
      vertex 28 80 25
      vertex 32 81 25
      vertex 28 71 25
    endloop
  endfacet
  facet normal 0 0 -1
    outer loop
      vertex 17 81 25
      vertex 28 80 25
      vertex 20 80 25
    endloop
  endfacet
  facet normal 0 0 -1
    outer loop
      vertex 28 80 25
      vertex 17 81 25
      vertex 32 81 25
    endloop
  endfacet
  facet normal 0 0 -1
    outer loop
      vertex 60 1 25
      vertex 42 60 25
      vertex 60 99 25
    endloop
  endfacet
  facet normal 0 0 -1
    outer loop
      vertex 32 41 25
      vertex 42 60 25
      vertex 60 1 25
    endloop
  endfacet
  facet normal 0 0 -1
    outer loop
      vertex 36.5 71 25
      vertex 41 60 25
      vertex 36.5 63 25
    endloop
  endfacet
  facet normal 0 0 -1
    outer loop
      vertex 32 42 25
      vertex 42 60 25
      vertex 32 41 25
    endloop
  endfacet
  facet normal -0 0 -1
    outer loop
      vertex 42 60 25
      vertex 32 42 25
      vertex 41 60 25
    endloop
  endfacet
  facet normal 0 0 -1
    outer loop
      vertex 8 8 25
      vertex 32 41 25
      vertex 60 1 25
    endloop
  endfacet
  facet normal 0 0 -1
    outer loop
      vertex 9 60 25
      vertex 17 42 25
      vertex 17 41 25
    endloop
  endfacet
  facet normal -0 0 -1
    outer loop
      vertex 11.5 63 25
      vertex 10 60 25
      vertex 11.5 71 25
    endloop
  endfacet
  facet normal -0 0 -1
    outer loop
      vertex 20 63 25
      vertex 10 60 25
      vertex 11.5 63 25
    endloop
  endfacet
  facet normal 0 0 -1
    outer loop
      vertex 17 42 25
      vertex 9 60 25
      vertex 10 60 25
    endloop
  endfacet
  facet normal 0 0 -1
    outer loop
      vertex 1 8 25
      vertex 17 41 25
      vertex 8 8 25
    endloop
  endfacet
  facet normal -0 0 -1
    outer loop
      vertex 32 41 25
      vertex 8 8 25
      vertex 17 41 25
    endloop
  endfacet
  facet normal 0 0 -1
    outer loop
      vertex 8 8 25
      vertex 60 1 25
      vertex 8 1 25
    endloop
  endfacet
  facet normal 0 0 -1
    outer loop
      vertex 42 75 25
      vertex 60 99 25
      vertex 42 60 25
    endloop
  endfacet
  facet normal 0 0 -1
    outer loop
      vertex 32 82 25
      vertex 42 75 25
      vertex 41 75 25
    endloop
  endfacet
  facet normal 0 0 -1
    outer loop
      vertex 41 60 25
      vertex 36.5 71 25
      vertex 41 75 25
    endloop
  endfacet
  facet normal 0 0 -1
    outer loop
      vertex 32 81 25
      vertex 41 75 25
      vertex 36.5 71 25
    endloop
  endfacet
  facet normal 0 0 -1
    outer loop
      vertex 41 75 25
      vertex 32 81 25
      vertex 32 82 25
    endloop
  endfacet
  facet normal 0 0 -1
    outer loop
      vertex 42 75 25
      vertex 32 82 25
      vertex 60 99 25
    endloop
  endfacet
  facet normal 0 0 -1
    outer loop
      vertex 8 99 25
      vertex 32 82 25
      vertex 17 82 25
    endloop
  endfacet
  facet normal 0 0 -1
    outer loop
      vertex 10 75 25
      vertex 11.5 71 25
      vertex 10 60 25
    endloop
  endfacet
  facet normal -0 0 -1
    outer loop
      vertex 17 81 25
      vertex 10 75 25
      vertex 17 82 25
    endloop
  endfacet
  facet normal 0 0 -1
    outer loop
      vertex 9 75 25
      vertex 17 82 25
      vertex 10 75 25
    endloop
  endfacet
  facet normal -0 0 -1
    outer loop
      vertex 17 41 25
      vertex 1 8 25
      vertex 9 60 25
    endloop
  endfacet
  facet normal 0 0 -1
    outer loop
      vertex 9 60 25
      vertex 8 91.5 25
      vertex 9 75 25
    endloop
  endfacet
  facet normal 0 0 -1
    outer loop
      vertex 8 91.5 25
      vertex 17 82 25
      vertex 9 75 25
    endloop
  endfacet
  facet normal 0 0 -1
    outer loop
      vertex 8 99 25
      vertex 17 82 25
      vertex 8 91.5 25
    endloop
  endfacet
  facet normal 0 0 -1
    outer loop
      vertex 32 82 25
      vertex 8 99 25
      vertex 60 99 25
    endloop
  endfacet
  facet normal 0 0 -1
    outer loop
      vertex 28 55 25
      vertex 41 60 25
      vertex 32 42 25
    endloop
  endfacet
  facet normal -0 0 -1
    outer loop
      vertex 41 60 25
      vertex 28 55 25
      vertex 36.5 63 25
    endloop
  endfacet
  facet normal -0 0 -1
    outer loop
      vertex 36.5 63 25
      vertex 28 55 25
      vertex 28 63 25
    endloop
  endfacet
  facet normal 0 0 -1
    outer loop
      vertex 5.24698 93.9363 25
      vertex 5.24698 97.0637 25
      vertex 6 95.5 25
    endloop
  endfacet
  facet normal 0 0 -1
    outer loop
      vertex 3.55496 93.5501 25
      vertex 5.24698 97.0637 25
      vertex 5.24698 93.9363 25
    endloop
  endfacet
  facet normal 0 0 -1
    outer loop
      vertex 3.55496 93.5501 25
      vertex 3.55496 97.4499 25
      vertex 5.24698 97.0637 25
    endloop
  endfacet
  facet normal 0 0 -1
    outer loop
      vertex 2.19806 94.6322 25
      vertex 3.55496 97.4499 25
      vertex 3.55496 93.5501 25
    endloop
  endfacet
  facet normal 0 0 -1
    outer loop
      vertex 3.55496 97.4499 25
      vertex 2.19806 94.6322 25
      vertex 2.19806 96.3678 25
    endloop
  endfacet
  facet normal 0 0 -1
    outer loop
      vertex 5.24698 2.43634 25
      vertex 5.24698 5.56366 25
      vertex 6 4 25
    endloop
  endfacet
  facet normal 0 0 -1
    outer loop
      vertex 3.55496 2.05014 25
      vertex 5.24698 5.56366 25
      vertex 5.24698 2.43634 25
    endloop
  endfacet
  facet normal 0 0 -1
    outer loop
      vertex 3.55496 2.05014 25
      vertex 3.55496 5.94986 25
      vertex 5.24698 5.56366 25
    endloop
  endfacet
  facet normal 0 0 -1
    outer loop
      vertex 2.19806 3.13223 25
      vertex 3.55496 5.94986 25
      vertex 3.55496 2.05014 25
    endloop
  endfacet
  facet normal 0 0 -1
    outer loop
      vertex 3.55496 5.94986 25
      vertex 2.19806 3.13223 25
      vertex 2.19806 4.86777 25
    endloop
  endfacet
  facet normal 1 -0 0
    outer loop
      vertex 8 1 25
      vertex 8 8 0
      vertex 8 8 25
    endloop
  endfacet
  facet normal 1 0 0
    outer loop
      vertex 8 8 0
      vertex 8 1 25
      vertex 8 1 0
    endloop
  endfacet
  facet normal 0 1 -0
    outer loop
      vertex 8 8 0
      vertex 1 8 25
      vertex 8 8 25
    endloop
  endfacet
  facet normal 0 1 0
    outer loop
      vertex 1 8 25
      vertex 8 8 0
      vertex 1 8 0
    endloop
  endfacet
  facet normal 0 0 -1
    outer loop
      vertex 60 0 0
      vertex 8 1 0
      vertex 60 1 0
    endloop
  endfacet
  facet normal 0 0 -1
    outer loop
      vertex 8 1 0
      vertex 6 4 0
      vertex 8 8 0
    endloop
  endfacet
  facet normal 0 0 -1
    outer loop
      vertex 8 1 0
      vertex 5.24698 2.43634 0
      vertex 6 4 0
    endloop
  endfacet
  facet normal 0 0 -1
    outer loop
      vertex 8 1 0
      vertex 3.55496 2.05014 0
      vertex 5.24698 2.43634 0
    endloop
  endfacet
  facet normal 0 0 -1
    outer loop
      vertex 0 0 0
      vertex 2.19806 4.86777 0
      vertex 2.19806 3.13223 0
    endloop
  endfacet
  facet normal -0 0 -1
    outer loop
      vertex 1 8 0
      vertex 0 0 0
      vertex 1 91.5 0
    endloop
  endfacet
  facet normal -0 0 -1
    outer loop
      vertex 2.19806 4.86777 0
      vertex 0 0 0
      vertex 1 8 0
    endloop
  endfacet
  facet normal -0 0 -1
    outer loop
      vertex 3.55496 2.05014 0
      vertex 0 0 0
      vertex 2.19806 3.13223 0
    endloop
  endfacet
  facet normal -0 0 -1
    outer loop
      vertex 8 1 0
      vertex 0 0 0
      vertex 3.55496 2.05014 0
    endloop
  endfacet
  facet normal 0 0 -1
    outer loop
      vertex 0 0 0
      vertex 8 1 0
      vertex 60 0 0
    endloop
  endfacet
  facet normal 0 0 -1
    outer loop
      vertex 5.24698 5.56366 0
      vertex 8 8 0
      vertex 6 4 0
    endloop
  endfacet
  facet normal 0 0 -1
    outer loop
      vertex 3.55496 5.94986 0
      vertex 8 8 0
      vertex 5.24698 5.56366 0
    endloop
  endfacet
  facet normal 0 0 -1
    outer loop
      vertex 3.55496 5.94986 0
      vertex 1 8 0
      vertex 8 8 0
    endloop
  endfacet
  facet normal 0 0 -1
    outer loop
      vertex 1 8 0
      vertex 3.55496 5.94986 0
      vertex 2.19806 4.86777 0
    endloop
  endfacet
  facet normal 0 0 -1
    outer loop
      vertex 8 91.5 0
      vertex 6 95.5 0
      vertex 8 99 0
    endloop
  endfacet
  facet normal 0 0 -1
    outer loop
      vertex 8 91.5 0
      vertex 5.24698 93.9363 0
      vertex 6 95.5 0
    endloop
  endfacet
  facet normal 0 0 -1
    outer loop
      vertex 8 91.5 0
      vertex 3.55496 93.5501 0
      vertex 5.24698 93.9363 0
    endloop
  endfacet
  facet normal 0 0 -1
    outer loop
      vertex 0 100 0
      vertex 2.19806 94.6322 0
      vertex 1 91.5 0
    endloop
  endfacet
  facet normal -0 0 -1
    outer loop
      vertex 3.55496 93.5501 0
      vertex 1 91.5 0
      vertex 2.19806 94.6322 0
    endloop
  endfacet
  facet normal 0 0 -1
    outer loop
      vertex 1 91.5 0
      vertex 3.55496 93.5501 0
      vertex 8 91.5 0
    endloop
  endfacet
  facet normal 0 0 -1
    outer loop
      vertex 8 99 0
      vertex 60 100 0
      vertex 60 99 0
    endloop
  endfacet
  facet normal 0 0 -1
    outer loop
      vertex 5.24698 97.0637 0
      vertex 8 99 0
      vertex 6 95.5 0
    endloop
  endfacet
  facet normal 0 0 -1
    outer loop
      vertex 3.55496 97.4499 0
      vertex 8 99 0
      vertex 5.24698 97.0637 0
    endloop
  endfacet
  facet normal 0 0 -1
    outer loop
      vertex 8 99 0
      vertex 0 100 0
      vertex 60 100 0
    endloop
  endfacet
  facet normal 0 0 -1
    outer loop
      vertex 3.55496 97.4499 0
      vertex 0 100 0
      vertex 8 99 0
    endloop
  endfacet
  facet normal 0 0 -1
    outer loop
      vertex 2.19806 96.3678 0
      vertex 0 100 0
      vertex 3.55496 97.4499 0
    endloop
  endfacet
  facet normal 0 0 -1
    outer loop
      vertex 2.19806 94.6322 0
      vertex 0 100 0
      vertex 2.19806 96.3678 0
    endloop
  endfacet
  facet normal 0 0 -1
    outer loop
      vertex 0 100 0
      vertex 1 91.5 0
      vertex 0 0 0
    endloop
  endfacet
  facet normal 0 -1 0
    outer loop
      vertex 0 0 0
      vertex 60 0 26
      vertex 0 0 26
    endloop
  endfacet
  facet normal 0 -1 -0
    outer loop
      vertex 60 0 26
      vertex 0 0 0
      vertex 60 0 0
    endloop
  endfacet
  facet normal -0.900969 -0.433884 0
    outer loop
      vertex 6 4 0
      vertex 5.24698 5.56366 25
      vertex 5.24698 5.56366 0
    endloop
  endfacet
  facet normal -0.900969 -0.433884 0
    outer loop
      vertex 5.24698 5.56366 25
      vertex 6 4 0
      vertex 6 4 25
    endloop
  endfacet
  facet normal 1 -0 0
    outer loop
      vertex 2.19806 3.13223 25
      vertex 2.19806 4.86777 0
      vertex 2.19806 4.86777 25
    endloop
  endfacet
  facet normal 1 0 0
    outer loop
      vertex 2.19806 4.86777 0
      vertex 2.19806 3.13223 25
      vertex 2.19806 3.13223 0
    endloop
  endfacet
  facet normal -0.222521 -0.974928 0
    outer loop
      vertex 3.55496 5.94986 0
      vertex 5.24698 5.56366 25
      vertex 3.55496 5.94986 25
    endloop
  endfacet
  facet normal -0.222521 -0.974928 -0
    outer loop
      vertex 5.24698 5.56366 25
      vertex 3.55496 5.94986 0
      vertex 5.24698 5.56366 0
    endloop
  endfacet
  facet normal 0.62349 -0.781831 0
    outer loop
      vertex 2.19806 4.86777 0
      vertex 3.55496 5.94986 25
      vertex 2.19806 4.86777 25
    endloop
  endfacet
  facet normal 0.62349 -0.781831 0
    outer loop
      vertex 3.55496 5.94986 25
      vertex 2.19806 4.86777 0
      vertex 3.55496 5.94986 0
    endloop
  endfacet
  facet normal -0.900969 0.433884 0
    outer loop
      vertex 5.24698 2.43634 0
      vertex 6 4 25
      vertex 6 4 0
    endloop
  endfacet
  facet normal -0.900969 0.433884 0
    outer loop
      vertex 6 4 25
      vertex 5.24698 2.43634 0
      vertex 5.24698 2.43634 25
    endloop
  endfacet
  facet normal -0.222521 0.974928 0
    outer loop
      vertex 5.24698 2.43634 0
      vertex 3.55496 2.05014 25
      vertex 5.24698 2.43634 25
    endloop
  endfacet
  facet normal -0.222521 0.974928 0
    outer loop
      vertex 3.55496 2.05014 25
      vertex 5.24698 2.43634 0
      vertex 3.55496 2.05014 0
    endloop
  endfacet
  facet normal 0.62349 0.781831 -0
    outer loop
      vertex 3.55496 2.05014 0
      vertex 2.19806 3.13223 25
      vertex 3.55496 2.05014 25
    endloop
  endfacet
  facet normal 0.62349 0.781831 0
    outer loop
      vertex 2.19806 3.13223 25
      vertex 3.55496 2.05014 0
      vertex 2.19806 3.13223 0
    endloop
  endfacet
  facet normal 1 -0 0
    outer loop
      vertex 8 91.5 25
      vertex 8 99 0
      vertex 8 99 25
    endloop
  endfacet
  facet normal 1 0 0
    outer loop
      vertex 8 99 0
      vertex 8 91.5 25
      vertex 8 91.5 0
    endloop
  endfacet
  facet normal 0 -1 0
    outer loop
      vertex 1 91.5 0
      vertex 8 91.5 25
      vertex 1 91.5 25
    endloop
  endfacet
  facet normal 0 -1 -0
    outer loop
      vertex 8 91.5 25
      vertex 1 91.5 0
      vertex 8 91.5 0
    endloop
  endfacet
  facet normal -0.900968 -0.433885 0
    outer loop
      vertex 6 95.5 0
      vertex 5.24698 97.0637 25
      vertex 5.24698 97.0637 0
    endloop
  endfacet
  facet normal -0.900968 -0.433885 0
    outer loop
      vertex 5.24698 97.0637 25
      vertex 6 95.5 0
      vertex 6 95.5 25
    endloop
  endfacet
  facet normal 1 -0 0
    outer loop
      vertex 2.19806 94.6322 25
      vertex 2.19806 96.3678 0
      vertex 2.19806 96.3678 25
    endloop
  endfacet
  facet normal 1 0 0
    outer loop
      vertex 2.19806 96.3678 0
      vertex 2.19806 94.6322 25
      vertex 2.19806 94.6322 0
    endloop
  endfacet
  facet normal -0.222525 -0.974927 0
    outer loop
      vertex 3.55496 97.4499 0
      vertex 5.24698 97.0637 25
      vertex 3.55496 97.4499 25
    endloop
  endfacet
  facet normal -0.222525 -0.974927 -0
    outer loop
      vertex 5.24698 97.0637 25
      vertex 3.55496 97.4499 0
      vertex 5.24698 97.0637 0
    endloop
  endfacet
  facet normal 0.623491 -0.78183 0
    outer loop
      vertex 2.19806 96.3678 0
      vertex 3.55496 97.4499 25
      vertex 2.19806 96.3678 25
    endloop
  endfacet
  facet normal 0.623491 -0.78183 0
    outer loop
      vertex 3.55496 97.4499 25
      vertex 2.19806 96.3678 0
      vertex 3.55496 97.4499 0
    endloop
  endfacet
  facet normal -0.900968 0.433885 0
    outer loop
      vertex 5.24698 93.9363 0
      vertex 6 95.5 25
      vertex 6 95.5 0
    endloop
  endfacet
  facet normal -0.900968 0.433885 0
    outer loop
      vertex 6 95.5 25
      vertex 5.24698 93.9363 0
      vertex 5.24698 93.9363 25
    endloop
  endfacet
  facet normal -0.222525 0.974927 0
    outer loop
      vertex 5.24698 93.9363 0
      vertex 3.55496 93.5501 25
      vertex 5.24698 93.9363 25
    endloop
  endfacet
  facet normal -0.222525 0.974927 0
    outer loop
      vertex 3.55496 93.5501 25
      vertex 5.24698 93.9363 0
      vertex 3.55496 93.5501 0
    endloop
  endfacet
  facet normal 0.623491 0.78183 -0
    outer loop
      vertex 3.55496 93.5501 0
      vertex 2.19806 94.6322 25
      vertex 3.55496 93.5501 25
    endloop
  endfacet
  facet normal 0.623491 0.78183 0
    outer loop
      vertex 2.19806 94.6322 25
      vertex 3.55496 93.5501 0
      vertex 2.19806 94.6322 0
    endloop
  endfacet
  facet normal 1 -0 0
    outer loop
      vertex 20 55 26
      vertex 20 63 25
      vertex 20 63 26
    endloop
  endfacet
  facet normal 1 0 0
    outer loop
      vertex 20 63 25
      vertex 20 55 26
      vertex 20 55 25
    endloop
  endfacet
  facet normal 1 -0 0
    outer loop
      vertex 20 71 26
      vertex 20 80 25
      vertex 20 80 26
    endloop
  endfacet
  facet normal 1 0 0
    outer loop
      vertex 20 80 25
      vertex 20 71 26
      vertex 20 71 25
    endloop
  endfacet
  facet normal -1 0 0
    outer loop
      vertex 28 55 25
      vertex 28 63 26
      vertex 28 63 25
    endloop
  endfacet
  facet normal -1 -0 0
    outer loop
      vertex 28 63 26
      vertex 28 55 25
      vertex 28 55 26
    endloop
  endfacet
  facet normal -1 0 0
    outer loop
      vertex 28 71 25
      vertex 28 80 26
      vertex 28 80 25
    endloop
  endfacet
  facet normal -1 -0 0
    outer loop
      vertex 28 80 26
      vertex 28 71 25
      vertex 28 71 26
    endloop
  endfacet
  facet normal 0 -1 0
    outer loop
      vertex 20 80 25
      vertex 28 80 26
      vertex 20 80 26
    endloop
  endfacet
  facet normal 0 -1 -0
    outer loop
      vertex 28 80 26
      vertex 20 80 25
      vertex 28 80 25
    endloop
  endfacet
  facet normal 0 1 -0
    outer loop
      vertex 28 55 25
      vertex 20 55 26
      vertex 28 55 26
    endloop
  endfacet
  facet normal 0 1 0
    outer loop
      vertex 20 55 26
      vertex 28 55 25
      vertex 20 55 25
    endloop
  endfacet
  facet normal 1 -0 0
    outer loop
      vertex 11.5 63 26
      vertex 11.5 71 25
      vertex 11.5 71 26
    endloop
  endfacet
  facet normal 1 0 0
    outer loop
      vertex 11.5 71 25
      vertex 11.5 63 26
      vertex 11.5 63 25
    endloop
  endfacet
  facet normal -1 0 0
    outer loop
      vertex 36.5 63 25
      vertex 36.5 71 26
      vertex 36.5 71 25
    endloop
  endfacet
  facet normal -1 -0 0
    outer loop
      vertex 36.5 71 26
      vertex 36.5 63 25
      vertex 36.5 63 26
    endloop
  endfacet
  facet normal 0 -1 0
    outer loop
      vertex 28 71 25
      vertex 36.5 71 26
      vertex 28 71 26
    endloop
  endfacet
  facet normal 0 -1 -0
    outer loop
      vertex 36.5 71 26
      vertex 28 71 25
      vertex 36.5 71 25
    endloop
  endfacet
  facet normal 0 -1 0
    outer loop
      vertex 11.5 71 25
      vertex 20 71 26
      vertex 11.5 71 26
    endloop
  endfacet
  facet normal 0 -1 -0
    outer loop
      vertex 20 71 26
      vertex 11.5 71 25
      vertex 20 71 25
    endloop
  endfacet
  facet normal 0 1 -0
    outer loop
      vertex 20 63 25
      vertex 11.5 63 26
      vertex 20 63 26
    endloop
  endfacet
  facet normal 0 1 0
    outer loop
      vertex 11.5 63 26
      vertex 20 63 25
      vertex 11.5 63 25
    endloop
  endfacet
  facet normal 0 1 -0
    outer loop
      vertex 36.5 63 25
      vertex 28 63 26
      vertex 36.5 63 26
    endloop
  endfacet
  facet normal 0 1 0
    outer loop
      vertex 28 63 26
      vertex 36.5 63 25
      vertex 28 63 25
    endloop
  endfacet
  facet normal 0 0 1
    outer loop
      vertex 20 63 26
      vertex 11.5 63 26
      vertex 20 55 26
    endloop
  endfacet
  facet normal 0 0 1
    outer loop
      vertex 36.5 63 26
      vertex 60 100 26
      vertex 36.5 71 26
    endloop
  endfacet
  facet normal 0 0 1
    outer loop
      vertex 60 100 26
      vertex 28 80 26
      vertex 36.5 71 26
    endloop
  endfacet
  facet normal -0 0 1
    outer loop
      vertex 0 100 26
      vertex 28 80 26
      vertex 60 100 26
    endloop
  endfacet
  facet normal 0 0 1
    outer loop
      vertex 20 80 26
      vertex 11.5 71 26
      vertex 20 71 26
    endloop
  endfacet
  facet normal 0 0 1
    outer loop
      vertex 11.5 71 26
      vertex 0 100 26
      vertex 11.5 63 26
    endloop
  endfacet
  facet normal 0 0 1
    outer loop
      vertex 20 80 26
      vertex 0 100 26
      vertex 11.5 71 26
    endloop
  endfacet
  facet normal 0 0 1
    outer loop
      vertex 28 80 26
      vertex 0 100 26
      vertex 20 80 26
    endloop
  endfacet
  facet normal 0 0 1
    outer loop
      vertex 60 100 26
      vertex 36.5 63 26
      vertex 60 0 26
    endloop
  endfacet
  facet normal 0 0 1
    outer loop
      vertex 28 55 26
      vertex 36.5 63 26
      vertex 28 63 26
    endloop
  endfacet
  facet normal 0 0 1
    outer loop
      vertex 36.5 63 26
      vertex 28 55 26
      vertex 60 0 26
    endloop
  endfacet
  facet normal 0 0 1
    outer loop
      vertex 0 0 26
      vertex 28 55 26
      vertex 20 55 26
    endloop
  endfacet
  facet normal 0 0 1
    outer loop
      vertex 0 0 26
      vertex 20 55 26
      vertex 11.5 63 26
    endloop
  endfacet
  facet normal 0 0 1
    outer loop
      vertex 28 55 26
      vertex 0 0 26
      vertex 60 0 26
    endloop
  endfacet
  facet normal 0 0 1
    outer loop
      vertex 0 0 26
      vertex 11.5 63 26
      vertex 0 100 26
    endloop
  endfacet
  facet normal 0 0 1
    outer loop
      vertex 36.5 71 26
      vertex 28 80 26
      vertex 28 71 26
    endloop
  endfacet
  facet normal 1 0 0
    outer loop
      vertex 60 100 26
      vertex 60 99 25
      vertex 60 100 0
    endloop
  endfacet
  facet normal 1 0 0
    outer loop
      vertex 60 100 26
      vertex 60 1 25
      vertex 60 99 25
    endloop
  endfacet
  facet normal 1 -0 0
    outer loop
      vertex 60 0 26
      vertex 60 1 25
      vertex 60 100 26
    endloop
  endfacet
  facet normal 1 0 0
    outer loop
      vertex 60 0 0
      vertex 60 1 25
      vertex 60 0 26
    endloop
  endfacet
  facet normal 1 0 0
    outer loop
      vertex 60 1 25
      vertex 60 0 0
      vertex 60 1 0
    endloop
  endfacet
  facet normal 1 0 0
    outer loop
      vertex 60 100 0
      vertex 60 99 25
      vertex 60 99 0
    endloop
  endfacet
  facet normal 0 1 -0
    outer loop
      vertex 60 100 0
      vertex 0 100 26
      vertex 60 100 26
    endloop
  endfacet
  facet normal 0 1 0
    outer loop
      vertex 0 100 26
      vertex 60 100 0
      vertex 0 100 0
    endloop
  endfacet
  facet normal 1 -0 0
    outer loop
      vertex 1 8 25
      vertex 1 91.5 0
      vertex 1 91.5 25
    endloop
  endfacet
  facet normal 1 0 0
    outer loop
      vertex 1 91.5 0
      vertex 1 8 25
      vertex 1 8 0
    endloop
  endfacet
  facet normal 0 1 -0
    outer loop
      vertex 60 1 0
      vertex 8 1 25
      vertex 60 1 25
    endloop
  endfacet
  facet normal 0 1 0
    outer loop
      vertex 8 1 25
      vertex 60 1 0
      vertex 8 1 0
    endloop
  endfacet
  facet normal 0 -1 0
    outer loop
      vertex 8 99 0
      vertex 60 99 25
      vertex 8 99 25
    endloop
  endfacet
  facet normal 0 -1 -0
    outer loop
      vertex 60 99 25
      vertex 8 99 0
      vertex 60 99 0
    endloop
  endfacet
  facet normal -1 0 0
    outer loop
      vertex 17 43 17
      vertex 17 42 18
      vertex 17 43 18
    endloop
  endfacet
  facet normal -1 0 0
    outer loop
      vertex 17 41 17
      vertex 17 42 18
      vertex 17 43 17
    endloop
  endfacet
  facet normal -1 0 0
    outer loop
      vertex 17 41 25
      vertex 17 42 18
      vertex 17 41 17
    endloop
  endfacet
  facet normal -1 0 0
    outer loop
      vertex 17 42 18
      vertex 17 41 25
      vertex 17 42 25
    endloop
  endfacet
  facet normal 1 0 0
    outer loop
      vertex 32 42 25
      vertex 32 41 25
      vertex 32 42 18
    endloop
  endfacet
  facet normal 1 -0 0
    outer loop
      vertex 32 42 18
      vertex 32 43 17
      vertex 32 43 18
    endloop
  endfacet
  facet normal 1 0 0
    outer loop
      vertex 32 42 18
      vertex 32 41 17
      vertex 32 43 17
    endloop
  endfacet
  facet normal 1 0 0
    outer loop
      vertex 32 41 17
      vertex 32 42 18
      vertex 32 41 25
    endloop
  endfacet
  facet normal 0 1 -0
    outer loop
      vertex 32 42 18
      vertex 17 42 25
      vertex 32 42 25
    endloop
  endfacet
  facet normal 0 1 0
    outer loop
      vertex 17 42 25
      vertex 32 42 18
      vertex 17 42 18
    endloop
  endfacet
  facet normal 0 0 -1
    outer loop
      vertex 17 41 17
      vertex 32 43 17
      vertex 32 41 17
    endloop
  endfacet
  facet normal -0 0 -1
    outer loop
      vertex 32 43 17
      vertex 17 41 17
      vertex 17 43 17
    endloop
  endfacet
  facet normal 0 -1 0
    outer loop
      vertex 17 41 17
      vertex 32 41 25
      vertex 17 41 25
    endloop
  endfacet
  facet normal 0 -1 -0
    outer loop
      vertex 32 41 25
      vertex 17 41 17
      vertex 32 41 17
    endloop
  endfacet
  facet normal -0 0 1
    outer loop
      vertex 17 43 18
      vertex 32 42 18
      vertex 32 43 18
    endloop
  endfacet
  facet normal 0 0 1
    outer loop
      vertex 32 42 18
      vertex 17 43 18
      vertex 17 42 18
    endloop
  endfacet
  facet normal 0 1 -0
    outer loop
      vertex 32 43 17
      vertex 17 43 18
      vertex 32 43 18
    endloop
  endfacet
  facet normal 0 1 0
    outer loop
      vertex 17 43 18
      vertex 32 43 17
      vertex 17 43 17
    endloop
  endfacet
  facet normal -1 0 0
    outer loop
      vertex 17 82 17
      vertex 17 81 18
      vertex 17 82 25
    endloop
  endfacet
  facet normal -1 0 0
    outer loop
      vertex 17 80 17
      vertex 17 81 18
      vertex 17 82 17
    endloop
  endfacet
  facet normal -1 -0 0
    outer loop
      vertex 17 81 18
      vertex 17 80 17
      vertex 17 80 18
    endloop
  endfacet
  facet normal -1 -0 0
    outer loop
      vertex 17 82 25
      vertex 17 81 18
      vertex 17 81 25
    endloop
  endfacet
  facet normal 1 0 0
    outer loop
      vertex 32 81 18
      vertex 32 82 25
      vertex 32 81 25
    endloop
  endfacet
  facet normal 1 0 0
    outer loop
      vertex 32 82 25
      vertex 32 81 18
      vertex 32 82 17
    endloop
  endfacet
  facet normal 1 0 0
    outer loop
      vertex 32 80 17
      vertex 32 81 18
      vertex 32 80 18
    endloop
  endfacet
  facet normal 1 0 0
    outer loop
      vertex 32 81 18
      vertex 32 80 17
      vertex 32 82 17
    endloop
  endfacet
  facet normal 0 1 -0
    outer loop
      vertex 32 82 17
      vertex 17 82 25
      vertex 32 82 25
    endloop
  endfacet
  facet normal 0 1 0
    outer loop
      vertex 17 82 25
      vertex 32 82 17
      vertex 17 82 17
    endloop
  endfacet
  facet normal 0 0 -1
    outer loop
      vertex 17 80 17
      vertex 32 82 17
      vertex 32 80 17
    endloop
  endfacet
  facet normal -0 0 -1
    outer loop
      vertex 32 82 17
      vertex 17 80 17
      vertex 17 82 17
    endloop
  endfacet
  facet normal 0 -1 0
    outer loop
      vertex 17 81 18
      vertex 32 81 25
      vertex 17 81 25
    endloop
  endfacet
  facet normal 0 -1 -0
    outer loop
      vertex 32 81 25
      vertex 17 81 18
      vertex 32 81 18
    endloop
  endfacet
  facet normal -0 0 1
    outer loop
      vertex 17 81 18
      vertex 32 80 18
      vertex 32 81 18
    endloop
  endfacet
  facet normal 0 0 1
    outer loop
      vertex 32 80 18
      vertex 17 81 18
      vertex 17 80 18
    endloop
  endfacet
  facet normal 0 -1 0
    outer loop
      vertex 17 80 17
      vertex 32 80 18
      vertex 17 80 18
    endloop
  endfacet
  facet normal 0 -1 -0
    outer loop
      vertex 32 80 18
      vertex 17 80 17
      vertex 32 80 17
    endloop
  endfacet
  facet normal -1 0 0
    outer loop
      vertex 9 60 17
      vertex 9 75 25
      vertex 9 75 17
    endloop
  endfacet
  facet normal -1 -0 0
    outer loop
      vertex 9 75 25
      vertex 9 60 17
      vertex 9 60 25
    endloop
  endfacet
  facet normal 1 -0 0
    outer loop
      vertex 10 60 25
      vertex 10 75 18
      vertex 10 75 25
    endloop
  endfacet
  facet normal 1 0 0
    outer loop
      vertex 10 75 18
      vertex 10 60 25
      vertex 10 60 18
    endloop
  endfacet
  facet normal 0 1 0
    outer loop
      vertex 11 75 18
      vertex 11 75 17
      vertex 10 75 18
    endloop
  endfacet
  facet normal 0 1 -0
    outer loop
      vertex 10 75 18
      vertex 9 75 25
      vertex 10 75 25
    endloop
  endfacet
  facet normal 0 1 0
    outer loop
      vertex 10 75 18
      vertex 9 75 17
      vertex 9 75 25
    endloop
  endfacet
  facet normal 0 1 0
    outer loop
      vertex 9 75 17
      vertex 10 75 18
      vertex 11 75 17
    endloop
  endfacet
  facet normal 0 0 -1
    outer loop
      vertex 9 60 17
      vertex 11 75 17
      vertex 11 60 17
    endloop
  endfacet
  facet normal -0 0 -1
    outer loop
      vertex 11 75 17
      vertex 9 60 17
      vertex 9 75 17
    endloop
  endfacet
  facet normal 0 -1 0
    outer loop
      vertex 9 60 25
      vertex 10 60 18
      vertex 10 60 25
    endloop
  endfacet
  facet normal 0 -1 0
    outer loop
      vertex 9 60 17
      vertex 10 60 18
      vertex 9 60 25
    endloop
  endfacet
  facet normal 0 -1 0
    outer loop
      vertex 11 60 17
      vertex 10 60 18
      vertex 9 60 17
    endloop
  endfacet
  facet normal 0 -1 0
    outer loop
      vertex 10 60 18
      vertex 11 60 17
      vertex 11 60 18
    endloop
  endfacet
  facet normal -0 0 1
    outer loop
      vertex 10 75 18
      vertex 11 60 18
      vertex 11 75 18
    endloop
  endfacet
  facet normal 0 0 1
    outer loop
      vertex 11 60 18
      vertex 10 75 18
      vertex 10 60 18
    endloop
  endfacet
  facet normal 1 -0 0
    outer loop
      vertex 11 60 18
      vertex 11 75 17
      vertex 11 75 18
    endloop
  endfacet
  facet normal 1 0 0
    outer loop
      vertex 11 75 17
      vertex 11 60 18
      vertex 11 60 17
    endloop
  endfacet
  facet normal -1 0 0
    outer loop
      vertex 41 60 18
      vertex 41 75 25
      vertex 41 75 18
    endloop
  endfacet
  facet normal -1 -0 0
    outer loop
      vertex 41 75 25
      vertex 41 60 18
      vertex 41 60 25
    endloop
  endfacet
  facet normal 1 -0 0
    outer loop
      vertex 42 60 25
      vertex 42 75 17
      vertex 42 75 25
    endloop
  endfacet
  facet normal 1 0 0
    outer loop
      vertex 42 75 17
      vertex 42 60 25
      vertex 42 60 17
    endloop
  endfacet
  facet normal 0 1 0
    outer loop
      vertex 42 75 25
      vertex 41 75 18
      vertex 41 75 25
    endloop
  endfacet
  facet normal 0 1 -0
    outer loop
      vertex 42 75 17
      vertex 41 75 18
      vertex 42 75 25
    endloop
  endfacet
  facet normal 0 1 0
    outer loop
      vertex 40 75 17
      vertex 41 75 18
      vertex 42 75 17
    endloop
  endfacet
  facet normal 0 1 0
    outer loop
      vertex 41 75 18
      vertex 40 75 17
      vertex 40 75 18
    endloop
  endfacet
  facet normal 0 0 -1
    outer loop
      vertex 40 60 17
      vertex 42 75 17
      vertex 42 60 17
    endloop
  endfacet
  facet normal -0 0 -1
    outer loop
      vertex 42 75 17
      vertex 40 60 17
      vertex 40 75 17
    endloop
  endfacet
  facet normal 0 -1 0
    outer loop
      vertex 40 60 18
      vertex 40 60 17
      vertex 41 60 18
    endloop
  endfacet
  facet normal 0 -1 0
    outer loop
      vertex 41 60 18
      vertex 42 60 25
      vertex 41 60 25
    endloop
  endfacet
  facet normal 0 -1 0
    outer loop
      vertex 41 60 18
      vertex 42 60 17
      vertex 42 60 25
    endloop
  endfacet
  facet normal 0 -1 0
    outer loop
      vertex 42 60 17
      vertex 41 60 18
      vertex 40 60 17
    endloop
  endfacet
  facet normal -1 0 0
    outer loop
      vertex 40 60 17
      vertex 40 75 18
      vertex 40 75 17
    endloop
  endfacet
  facet normal -1 -0 0
    outer loop
      vertex 40 75 18
      vertex 40 60 17
      vertex 40 60 18
    endloop
  endfacet
  facet normal -0 0 1
    outer loop
      vertex 40 75 18
      vertex 41 60 18
      vertex 41 75 18
    endloop
  endfacet
  facet normal 0 0 1
    outer loop
      vertex 41 60 18
      vertex 40 75 18
      vertex 40 60 18
    endloop
  endfacet
endsolid OpenSCAD_Model
