solid OpenSCAD_Model
  facet normal 0 0 -1
    outer loop
      vertex 161 73 25
      vertex 167.245 66.4549 25
      vertex 161 49 25
    endloop
  endfacet
  facet normal 0 0 -1
    outer loop
      vertex 167.245 66.4549 25
      vertex 161 73 25
      vertex 162 73 25
    endloop
  endfacet
  facet normal 0 0 -1
    outer loop
      vertex 162 73 25
      vertex 169.061 72.0451 25
      vertex 167.955 70.9389 25
    endloop
  endfacet
  facet normal 0 0 -1
    outer loop
      vertex 162 73 25
      vertex 167.955 70.9389 25
      vertex 167.245 69.5451 25
    endloop
  endfacet
  facet normal 0 0 -1
    outer loop
      vertex 162 73 25
      vertex 167.245 69.5451 25
      vertex 167 68 25
    endloop
  endfacet
  facet normal -0 0 -1
    outer loop
      vertex 167.955 65.0611 25
      vertex 161 49 25
      vertex 167.245 66.4549 25
    endloop
  endfacet
  facet normal 0 0 -1
    outer loop
      vertex 167.245 66.4549 25
      vertex 162 73 25
      vertex 167 68 25
    endloop
  endfacet
  facet normal 0 0 -1
    outer loop
      vertex 169.061 72.0451 25
      vertex 162 73 25
      vertex 169 81 25
    endloop
  endfacet
  facet normal -0 0 -1
    outer loop
      vertex 169 81 25
      vertex 162 73 25
      vertex 162 81 25
    endloop
  endfacet
  facet normal -0 0 -1
    outer loop
      vertex 175.455 57.5611 25
      vertex 162 49 25
      vertex 174.745 58.9549 25
    endloop
  endfacet
  facet normal -0 0 -1
    outer loop
      vertex 174.745 58.9549 25
      vertex 162 49 25
      vertex 170.455 63.2447 25
    endloop
  endfacet
  facet normal -0 0 -1
    outer loop
      vertex 170.455 63.2447 25
      vertex 162 49 25
      vertex 169.061 63.9549 25
    endloop
  endfacet
  facet normal -0 0 -1
    outer loop
      vertex 169.061 63.9549 25
      vertex 162 49 25
      vertex 167.955 65.0611 25
    endloop
  endfacet
  facet normal 0 0 -1
    outer loop
      vertex 161 49 25
      vertex 167.955 65.0611 25
      vertex 162 49 25
    endloop
  endfacet
  facet normal 0 0 -1
    outer loop
      vertex 176.755 69.5451 25
      vertex 177.955 70.7447 25
      vertex 177 68 25
    endloop
  endfacet
  facet normal 0 0 -1
    outer loop
      vertex 176.755 69.5451 25
      vertex 176.561 71.4549 25
      vertex 177.955 70.7447 25
    endloop
  endfacet
  facet normal 0 0 -1
    outer loop
      vertex 176.045 70.9389 25
      vertex 176.561 71.4549 25
      vertex 176.755 69.5451 25
    endloop
  endfacet
  facet normal 0 0 -1
    outer loop
      vertex 176.045 70.9389 25
      vertex 175.455 72.5611 25
      vertex 176.561 71.4549 25
    endloop
  endfacet
  facet normal 0 0 -1
    outer loop
      vertex 174.939 72.0451 25
      vertex 175.455 72.5611 25
      vertex 176.045 70.9389 25
    endloop
  endfacet
  facet normal 0 0 -1
    outer loop
      vertex 174.939 72.0451 25
      vertex 174.745 73.9549 25
      vertex 175.455 72.5611 25
    endloop
  endfacet
  facet normal 0 0 -1
    outer loop
      vertex 173.545 72.7553 25
      vertex 174.745 73.9549 25
      vertex 174.939 72.0451 25
    endloop
  endfacet
  facet normal -0 0 -1
    outer loop
      vertex 174.745 73.9549 25
      vertex 173.545 72.7553 25
      vertex 174.5 75.5 25
    endloop
  endfacet
  facet normal 0 0 -1
    outer loop
      vertex 185.455 72.7553 25
      vertex 184.255 73.9549 25
      vertex 184.5 75.5 25
    endloop
  endfacet
  facet normal 0 0 -1
    outer loop
      vertex 184.061 72.0451 25
      vertex 184.255 73.9549 25
      vertex 185.455 72.7553 25
    endloop
  endfacet
  facet normal 0 0 -1
    outer loop
      vertex 184.061 72.0451 25
      vertex 183.545 72.5611 25
      vertex 184.255 73.9549 25
    endloop
  endfacet
  facet normal 0 0 -1
    outer loop
      vertex 182.955 70.9389 25
      vertex 183.545 72.5611 25
      vertex 184.061 72.0451 25
    endloop
  endfacet
  facet normal 0 0 -1
    outer loop
      vertex 182.955 70.9389 25
      vertex 182.439 71.4549 25
      vertex 183.545 72.5611 25
    endloop
  endfacet
  facet normal 0 0 -1
    outer loop
      vertex 182.245 69.5451 25
      vertex 182.439 71.4549 25
      vertex 182.955 70.9389 25
    endloop
  endfacet
  facet normal 0 0 -1
    outer loop
      vertex 181.045 70.7447 25
      vertex 182.245 69.5451 25
      vertex 182 68 25
    endloop
  endfacet
  facet normal 0 0 -1
    outer loop
      vertex 179.5 65.5 25
      vertex 182 68 25
      vertex 181.045 65.2553 25
    endloop
  endfacet
  facet normal 0 0 -1
    outer loop
      vertex 182.245 69.5451 25
      vertex 181.045 70.7447 25
      vertex 182.439 71.4549 25
    endloop
  endfacet
  facet normal 0 0 -1
    outer loop
      vertex 179.5 70.5 25
      vertex 182 68 25
      vertex 179.5 65.5 25
    endloop
  endfacet
  facet normal 0 0 -1
    outer loop
      vertex 182 68 25
      vertex 179.5 70.5 25
      vertex 181.045 70.7447 25
    endloop
  endfacet
  facet normal 0 0 -1
    outer loop
      vertex 177 68 25
      vertex 179.5 65.5 25
      vertex 177.955 65.2553 25
    endloop
  endfacet
  facet normal 0 0 -1
    outer loop
      vertex 179.5 65.5 25
      vertex 177 68 25
      vertex 179.5 70.5 25
    endloop
  endfacet
  facet normal -0 0 -1
    outer loop
      vertex 179.5 70.5 25
      vertex 177 68 25
      vertex 177.955 70.7447 25
    endloop
  endfacet
  facet normal 0 0 -1
    outer loop
      vertex 177.955 65.2553 25
      vertex 176.755 66.4549 25
      vertex 177 68 25
    endloop
  endfacet
  facet normal 0 0 -1
    outer loop
      vertex 176.561 64.5451 25
      vertex 176.755 66.4549 25
      vertex 177.955 65.2553 25
    endloop
  endfacet
  facet normal 0 0 -1
    outer loop
      vertex 176.561 64.5451 25
      vertex 176.045 65.0611 25
      vertex 176.755 66.4549 25
    endloop
  endfacet
  facet normal 0 0 -1
    outer loop
      vertex 175.455 63.4389 25
      vertex 176.045 65.0611 25
      vertex 176.561 64.5451 25
    endloop
  endfacet
  facet normal 0 0 -1
    outer loop
      vertex 175.455 63.4389 25
      vertex 174.939 63.9549 25
      vertex 176.045 65.0611 25
    endloop
  endfacet
  facet normal 0 0 -1
    outer loop
      vertex 174.745 62.0451 25
      vertex 174.939 63.9549 25
      vertex 175.455 63.4389 25
    endloop
  endfacet
  facet normal 0 0 -1
    outer loop
      vertex 173.545 63.2447 25
      vertex 174.745 62.0451 25
      vertex 174.5 60.5 25
    endloop
  endfacet
  facet normal 0 0 -1
    outer loop
      vertex 174.745 62.0451 25
      vertex 173.545 63.2447 25
      vertex 174.939 63.9549 25
    endloop
  endfacet
  facet normal 0 0 -1
    outer loop
      vertex 184.255 62.0451 25
      vertex 185.455 63.2447 25
      vertex 184.5 60.5 25
    endloop
  endfacet
  facet normal 0 0 -1
    outer loop
      vertex 184.255 62.0451 25
      vertex 184.061 63.9549 25
      vertex 185.455 63.2447 25
    endloop
  endfacet
  facet normal 0 0 -1
    outer loop
      vertex 183.545 63.4389 25
      vertex 184.061 63.9549 25
      vertex 184.255 62.0451 25
    endloop
  endfacet
  facet normal 0 0 -1
    outer loop
      vertex 183.545 63.4389 25
      vertex 182.955 65.0611 25
      vertex 184.061 63.9549 25
    endloop
  endfacet
  facet normal 0 0 -1
    outer loop
      vertex 182.439 64.5451 25
      vertex 182.955 65.0611 25
      vertex 183.545 63.4389 25
    endloop
  endfacet
  facet normal 0 0 -1
    outer loop
      vertex 182.439 64.5451 25
      vertex 182.245 66.4549 25
      vertex 182.955 65.0611 25
    endloop
  endfacet
  facet normal 0 0 -1
    outer loop
      vertex 181.045 65.2553 25
      vertex 182.245 66.4549 25
      vertex 182.439 64.5451 25
    endloop
  endfacet
  facet normal -0 0 -1
    outer loop
      vertex 182.245 66.4549 25
      vertex 181.045 65.2553 25
      vertex 182 68 25
    endloop
  endfacet
  facet normal 0 0 -1
    outer loop
      vertex 186 42 25
      vertex 193 49 25
      vertex 193 42 25
    endloop
  endfacet
  facet normal 0 0 -1
    outer loop
      vertex 193 49 25
      vertex 192 68 25
      vertex 193 73 25
    endloop
  endfacet
  facet normal 0 0 -1
    outer loop
      vertex 191.755 69.5451 25
      vertex 193 73 25
      vertex 192 68 25
    endloop
  endfacet
  facet normal 0 0 -1
    outer loop
      vertex 193 49 25
      vertex 191.755 66.4549 25
      vertex 192 68 25
    endloop
  endfacet
  facet normal 0 0 -1
    outer loop
      vertex 193 49 25
      vertex 191.045 65.0611 25
      vertex 191.755 66.4549 25
    endloop
  endfacet
  facet normal 0 0 -1
    outer loop
      vertex 193 49 25
      vertex 189.939 63.9549 25
      vertex 191.045 65.0611 25
    endloop
  endfacet
  facet normal 0 0 -1
    outer loop
      vertex 193 49 25
      vertex 188.545 63.2447 25
      vertex 189.939 63.9549 25
    endloop
  endfacet
  facet normal 0 0 -1
    outer loop
      vertex 193 49 25
      vertex 184.255 58.9549 25
      vertex 188.545 63.2447 25
    endloop
  endfacet
  facet normal 0 0 -1
    outer loop
      vertex 182.439 56.4549 25
      vertex 193 49 25
      vertex 186 42 25
    endloop
  endfacet
  facet normal 0 0 -1
    outer loop
      vertex 188.545 63.2447 25
      vertex 184.255 58.9549 25
      vertex 187 63 25
    endloop
  endfacet
  facet normal 0 0 -1
    outer loop
      vertex 193 49 25
      vertex 194 73 25
      vertex 194 49 25
    endloop
  endfacet
  facet normal -0 0 -1
    outer loop
      vertex 194 73 25
      vertex 193 49 25
      vertex 193 73 25
    endloop
  endfacet
  facet normal 0 0 -1
    outer loop
      vertex 194 49 25
      vertex 196 40 25
      vertex 194 41 25
    endloop
  endfacet
  facet normal 0 0 -1
    outer loop
      vertex 196 40 25
      vertex 186 41 25
      vertex 194 41 25
    endloop
  endfacet
  facet normal 0 0 -1
    outer loop
      vertex 169 41 25
      vertex 186 42 25
      vertex 186 41 25
    endloop
  endfacet
  facet normal 0 -0 -1
    outer loop
      vertex 184.5 60.5 25
      vertex 187 63 25
      vertex 184.255 58.9549 25
    endloop
  endfacet
  facet normal -0 0 -1
    outer loop
      vertex 187 63 25
      vertex 184.5 60.5 25
      vertex 185.455 63.2447 25
    endloop
  endfacet
  facet normal 0 0 -1
    outer loop
      vertex 193 49 25
      vertex 183.545 57.5611 25
      vertex 184.255 58.9549 25
    endloop
  endfacet
  facet normal 0 0 -1
    outer loop
      vertex 193 49 25
      vertex 182.439 56.4549 25
      vertex 183.545 57.5611 25
    endloop
  endfacet
  facet normal 0 0 -1
    outer loop
      vertex 186 42 25
      vertex 181.045 55.7447 25
      vertex 182.439 56.4549 25
    endloop
  endfacet
  facet normal 0 0 -1
    outer loop
      vertex 186 42 25
      vertex 179.5 55.5 25
      vertex 181.045 55.7447 25
    endloop
  endfacet
  facet normal 0 0 -1
    outer loop
      vertex 169 42 25
      vertex 186 42 25
      vertex 169 41 25
    endloop
  endfacet
  facet normal 0 0 -1
    outer loop
      vertex 186 42 25
      vertex 169 42 25
      vertex 179.5 55.5 25
    endloop
  endfacet
  facet normal -0 0 -1
    outer loop
      vertex 179.5 55.5 25
      vertex 169 42 25
      vertex 177.955 55.7447 25
    endloop
  endfacet
  facet normal 0 0 -1
    outer loop
      vertex 172 63 25
      vertex 174.5 60.5 25
      vertex 174.745 58.9549 25
    endloop
  endfacet
  facet normal 0 0 -1
    outer loop
      vertex 174.5 60.5 25
      vertex 172 63 25
      vertex 173.545 63.2447 25
    endloop
  endfacet
  facet normal 0 0 -1
    outer loop
      vertex 162 49 25
      vertex 169 42 25
      vertex 162 42 25
    endloop
  endfacet
  facet normal 0 0 -1
    outer loop
      vertex 174.745 58.9549 25
      vertex 170.455 63.2447 25
      vertex 172 63 25
    endloop
  endfacet
  facet normal -0 0 -1
    outer loop
      vertex 177.955 55.7447 25
      vertex 169 42 25
      vertex 176.561 56.4549 25
    endloop
  endfacet
  facet normal 0 0 -1
    outer loop
      vertex 162 49 25
      vertex 176.561 56.4549 25
      vertex 169 42 25
    endloop
  endfacet
  facet normal -0 0 -1
    outer loop
      vertex 176.561 56.4549 25
      vertex 162 49 25
      vertex 175.455 57.5611 25
    endloop
  endfacet
  facet normal 0 0 -1
    outer loop
      vertex 196 40 25
      vertex 169 41 25
      vertex 186 41 25
    endloop
  endfacet
  facet normal 0 0 -1
    outer loop
      vertex 153 40 25
      vertex 169 41 25
      vertex 196 40 25
    endloop
  endfacet
  facet normal 0 0 -1
    outer loop
      vertex 153 40 25
      vertex 161 49 25
      vertex 161 41 25
    endloop
  endfacet
  facet normal -0 0 -1
    outer loop
      vertex 161 49 25
      vertex 153 40 25
      vertex 161 73 25
    endloop
  endfacet
  facet normal 0 0 -1
    outer loop
      vertex 161 73 25
      vertex 159 80 25
      vertex 161 82 25
    endloop
  endfacet
  facet normal 0 0 -1
    outer loop
      vertex 161 73 25
      vertex 158 80 25
      vertex 159 80 25
    endloop
  endfacet
  facet normal -0 0 -1
    outer loop
      vertex 169 41 25
      vertex 153 40 25
      vertex 161 41 25
    endloop
  endfacet
  facet normal 0 0 -1
    outer loop
      vertex 153 83 25
      vertex 161 73 25
      vertex 153 40 25
    endloop
  endfacet
  facet normal 0 0 -1
    outer loop
      vertex 161 73 25
      vertex 153 83 25
      vertex 158 80 25
    endloop
  endfacet
  facet normal 0 0 -1
    outer loop
      vertex 158 80 25
      vertex 153 83 25
      vertex 158 83 25
    endloop
  endfacet
  facet normal 0 0 -1
    outer loop
      vertex 194 73 25
      vertex 196 40 25
      vertex 194 49 25
    endloop
  endfacet
  facet normal 0 0 -1
    outer loop
      vertex 196 40 25
      vertex 194 73 25
      vertex 196 83 25
    endloop
  endfacet
  facet normal 0 0 -1
    outer loop
      vertex 194 82 25
      vertex 196 83 25
      vertex 194 73 25
    endloop
  endfacet
  facet normal 0 0 -1
    outer loop
      vertex 186 82 25
      vertex 196 83 25
      vertex 194 82 25
    endloop
  endfacet
  facet normal 0 0 -1
    outer loop
      vertex 188.545 72.7553 25
      vertex 184.255 77.0451 25
      vertex 186 81 25
    endloop
  endfacet
  facet normal 0 0 -1
    outer loop
      vertex 183.545 78.4389 25
      vertex 186 81 25
      vertex 184.255 77.0451 25
    endloop
  endfacet
  facet normal 0 0 -1
    outer loop
      vertex 182.439 79.5451 25
      vertex 186 81 25
      vertex 183.545 78.4389 25
    endloop
  endfacet
  facet normal -0 0 -1
    outer loop
      vertex 186 81 25
      vertex 182.439 79.5451 25
      vertex 186 82 25
    endloop
  endfacet
  facet normal 0 0 -1
    outer loop
      vertex 181.045 80.2553 25
      vertex 186 82 25
      vertex 182.439 79.5451 25
    endloop
  endfacet
  facet normal 0 0 -1
    outer loop
      vertex 179.5 80.5 25
      vertex 186 82 25
      vertex 181.045 80.2553 25
    endloop
  endfacet
  facet normal 0 0 -1
    outer loop
      vertex 169 82 25
      vertex 179.5 80.5 25
      vertex 177.955 80.2553 25
    endloop
  endfacet
  facet normal 0 0 -1
    outer loop
      vertex 172 73 25
      vertex 174.5 75.5 25
      vertex 173.545 72.7553 25
    endloop
  endfacet
  facet normal -0 0 -1
    outer loop
      vertex 174.5 75.5 25
      vertex 172 73 25
      vertex 174.745 77.0451 25
    endloop
  endfacet
  facet normal 0 0 -1
    outer loop
      vertex 170.455 72.7553 25
      vertex 174.745 77.0451 25
      vertex 172 73 25
    endloop
  endfacet
  facet normal -0 0 -1
    outer loop
      vertex 174.745 77.0451 25
      vertex 170.455 72.7553 25
      vertex 169 81 25
    endloop
  endfacet
  facet normal 0 0 -1
    outer loop
      vertex 169 81 25
      vertex 170.455 72.7553 25
      vertex 169.061 72.0451 25
    endloop
  endfacet
  facet normal 0 0 -1
    outer loop
      vertex 174.745 77.0451 25
      vertex 169 81 25
      vertex 175.455 78.4389 25
    endloop
  endfacet
  facet normal 0 0 -1
    outer loop
      vertex 169 82 25
      vertex 175.455 78.4389 25
      vertex 169 81 25
    endloop
  endfacet
  facet normal 0 0 -1
    outer loop
      vertex 175.455 78.4389 25
      vertex 169 82 25
      vertex 176.561 79.5451 25
    endloop
  endfacet
  facet normal 0 0 -1
    outer loop
      vertex 176.561 79.5451 25
      vertex 169 82 25
      vertex 177.955 80.2553 25
    endloop
  endfacet
  facet normal 0 0 -1
    outer loop
      vertex 179.5 80.5 25
      vertex 169 82 25
      vertex 186 82 25
    endloop
  endfacet
  facet normal 0 0 -1
    outer loop
      vertex 186 82 25
      vertex 169 82 25
      vertex 196 83 25
    endloop
  endfacet
  facet normal 0 0 -1
    outer loop
      vertex 159 83 25
      vertex 169 82 25
      vertex 161 82 25
    endloop
  endfacet
  facet normal 0 0 -1
    outer loop
      vertex 169 82 25
      vertex 159 83 25
      vertex 196 83 25
    endloop
  endfacet
  facet normal 0 0 -1
    outer loop
      vertex 159 83 25
      vertex 161 82 25
      vertex 159 80 25
    endloop
  endfacet
  facet normal 0 0 -1
    outer loop
      vertex 191.045 70.9389 25
      vertex 193 73 25
      vertex 191.755 69.5451 25
    endloop
  endfacet
  facet normal 0 0 -1
    outer loop
      vertex 189.939 72.0451 25
      vertex 193 73 25
      vertex 191.045 70.9389 25
    endloop
  endfacet
  facet normal 0 0 -1
    outer loop
      vertex 188.545 72.7553 25
      vertex 193 73 25
      vertex 189.939 72.0451 25
    endloop
  endfacet
  facet normal -0 0 -1
    outer loop
      vertex 193 73 25
      vertex 188.545 72.7553 25
      vertex 193 81 25
    endloop
  endfacet
  facet normal 0 0 -1
    outer loop
      vertex 184.5 75.5 25
      vertex 188.545 72.7553 25
      vertex 187 73 25
    endloop
  endfacet
  facet normal 0 0 -1
    outer loop
      vertex 188.545 72.7553 25
      vertex 186 81 25
      vertex 193 81 25
    endloop
  endfacet
  facet normal 0 0 -1
    outer loop
      vertex 184.255 77.0451 25
      vertex 188.545 72.7553 25
      vertex 184.5 75.5 25
    endloop
  endfacet
  facet normal 0 0 -1
    outer loop
      vertex 184.5 75.5 25
      vertex 187 73 25
      vertex 185.455 72.7553 25
    endloop
  endfacet
  facet normal -1 0 0
    outer loop
      vertex 186 81 15
      vertex 186 82 25
      vertex 186 82 15
    endloop
  endfacet
  facet normal -1 -0 0
    outer loop
      vertex 186 82 25
      vertex 186 81 15
      vertex 186 81 25
    endloop
  endfacet
  facet normal 1 -0 0
    outer loop
      vertex 194 73 25
      vertex 194 82 15
      vertex 194 82 25
    endloop
  endfacet
  facet normal 1 0 0
    outer loop
      vertex 194 82 15
      vertex 194 73 25
      vertex 194 73 15
    endloop
  endfacet
  facet normal 0 1 -0
    outer loop
      vertex 194 82 15
      vertex 186 82 25
      vertex 194 82 25
    endloop
  endfacet
  facet normal 0 1 0
    outer loop
      vertex 186 82 25
      vertex 194 82 15
      vertex 186 82 15
    endloop
  endfacet
  facet normal 0 0 -1
    outer loop
      vertex 193 81 15
      vertex 194 73 15
      vertex 193 73 15
    endloop
  endfacet
  facet normal 0 0 -1
    outer loop
      vertex 194 73 15
      vertex 193 81 15
      vertex 194 82 15
    endloop
  endfacet
  facet normal 0 0 -1
    outer loop
      vertex 186 82 15
      vertex 193 81 15
      vertex 186 81 15
    endloop
  endfacet
  facet normal 0 0 -1
    outer loop
      vertex 193 81 15
      vertex 186 82 15
      vertex 194 82 15
    endloop
  endfacet
  facet normal 0 -1 0
    outer loop
      vertex 186 81 15
      vertex 193 81 25
      vertex 186 81 25
    endloop
  endfacet
  facet normal 0 -1 -0
    outer loop
      vertex 193 81 25
      vertex 186 81 15
      vertex 193 81 15
    endloop
  endfacet
  facet normal -1 0 0
    outer loop
      vertex 193 73 15
      vertex 193 81 25
      vertex 193 81 15
    endloop
  endfacet
  facet normal -1 -0 0
    outer loop
      vertex 193 81 25
      vertex 193 73 15
      vertex 193 73 25
    endloop
  endfacet
  facet normal 0 -1 0
    outer loop
      vertex 193 73 15
      vertex 194 73 25
      vertex 193 73 25
    endloop
  endfacet
  facet normal 0 -1 -0
    outer loop
      vertex 194 73 25
      vertex 193 73 15
      vertex 194 73 15
    endloop
  endfacet
  facet normal -1 0 0
    outer loop
      vertex 161 73 15
      vertex 161 82 25
      vertex 161 82 15
    endloop
  endfacet
  facet normal -1 -0 0
    outer loop
      vertex 161 82 25
      vertex 161 73 15
      vertex 161 73 25
    endloop
  endfacet
  facet normal 1 -0 0
    outer loop
      vertex 169 81 25
      vertex 169 82 15
      vertex 169 82 25
    endloop
  endfacet
  facet normal 1 0 0
    outer loop
      vertex 169 82 15
      vertex 169 81 25
      vertex 169 81 15
    endloop
  endfacet
  facet normal 0 1 -0
    outer loop
      vertex 169 82 15
      vertex 161 82 25
      vertex 169 82 25
    endloop
  endfacet
  facet normal 0 1 0
    outer loop
      vertex 161 82 25
      vertex 169 82 15
      vertex 161 82 15
    endloop
  endfacet
  facet normal 0 0 -1
    outer loop
      vertex 162 73 15
      vertex 161 73 15
      vertex 162 81 15
    endloop
  endfacet
  facet normal 0 0 -1
    outer loop
      vertex 162 81 15
      vertex 169 82 15
      vertex 169 81 15
    endloop
  endfacet
  facet normal 0 0 -1
    outer loop
      vertex 162 81 15
      vertex 161 82 15
      vertex 169 82 15
    endloop
  endfacet
  facet normal 0 0 -1
    outer loop
      vertex 161 82 15
      vertex 162 81 15
      vertex 161 73 15
    endloop
  endfacet
  facet normal 0 -1 0
    outer loop
      vertex 162 81 15
      vertex 169 81 25
      vertex 162 81 25
    endloop
  endfacet
  facet normal 0 -1 -0
    outer loop
      vertex 169 81 25
      vertex 162 81 15
      vertex 169 81 15
    endloop
  endfacet
  facet normal 1 -0 0
    outer loop
      vertex 162 73 25
      vertex 162 81 15
      vertex 162 81 25
    endloop
  endfacet
  facet normal 1 0 0
    outer loop
      vertex 162 81 15
      vertex 162 73 25
      vertex 162 73 15
    endloop
  endfacet
  facet normal 0 -1 0
    outer loop
      vertex 161 73 15
      vertex 162 73 25
      vertex 161 73 25
    endloop
  endfacet
  facet normal 0 -1 -0
    outer loop
      vertex 162 73 25
      vertex 161 73 15
      vertex 162 73 15
    endloop
  endfacet
  facet normal -1 0 0
    outer loop
      vertex 186 41 15
      vertex 186 42 25
      vertex 186 42 15
    endloop
  endfacet
  facet normal -1 -0 0
    outer loop
      vertex 186 42 25
      vertex 186 41 15
      vertex 186 41 25
    endloop
  endfacet
  facet normal 1 -0 0
    outer loop
      vertex 194 41 25
      vertex 194 49 15
      vertex 194 49 25
    endloop
  endfacet
  facet normal 1 0 0
    outer loop
      vertex 194 49 15
      vertex 194 41 25
      vertex 194 41 15
    endloop
  endfacet
  facet normal 0 1 -0
    outer loop
      vertex 193 42 15
      vertex 186 42 25
      vertex 193 42 25
    endloop
  endfacet
  facet normal 0 1 0
    outer loop
      vertex 186 42 25
      vertex 193 42 15
      vertex 186 42 15
    endloop
  endfacet
  facet normal 0 0 -1
    outer loop
      vertex 194 41 15
      vertex 193 42 15
      vertex 194 49 15
    endloop
  endfacet
  facet normal 0 0 -1
    outer loop
      vertex 186 41 15
      vertex 193 42 15
      vertex 194 41 15
    endloop
  endfacet
  facet normal -0 0 -1
    outer loop
      vertex 193 42 15
      vertex 186 41 15
      vertex 186 42 15
    endloop
  endfacet
  facet normal -0 0 -1
    outer loop
      vertex 194 49 15
      vertex 193 42 15
      vertex 193 49 15
    endloop
  endfacet
  facet normal 0 -1 0
    outer loop
      vertex 186 41 15
      vertex 194 41 25
      vertex 186 41 25
    endloop
  endfacet
  facet normal 0 -1 -0
    outer loop
      vertex 194 41 25
      vertex 186 41 15
      vertex 194 41 15
    endloop
  endfacet
  facet normal -1 0 0
    outer loop
      vertex 193 42 15
      vertex 193 49 25
      vertex 193 49 15
    endloop
  endfacet
  facet normal -1 -0 0
    outer loop
      vertex 193 49 25
      vertex 193 42 15
      vertex 193 42 25
    endloop
  endfacet
  facet normal 0 1 -0
    outer loop
      vertex 194 49 15
      vertex 193 49 25
      vertex 194 49 25
    endloop
  endfacet
  facet normal 0 1 0
    outer loop
      vertex 193 49 25
      vertex 194 49 15
      vertex 193 49 15
    endloop
  endfacet
  facet normal -1 0 0
    outer loop
      vertex 161 41 15
      vertex 161 49 25
      vertex 161 49 15
    endloop
  endfacet
  facet normal -1 -0 0
    outer loop
      vertex 161 49 25
      vertex 161 41 15
      vertex 161 41 25
    endloop
  endfacet
  facet normal 1 -0 0
    outer loop
      vertex 169 41 25
      vertex 169 42 15
      vertex 169 42 25
    endloop
  endfacet
  facet normal 1 0 0
    outer loop
      vertex 169 42 15
      vertex 169 41 25
      vertex 169 41 15
    endloop
  endfacet
  facet normal 0 1 -0
    outer loop
      vertex 169 42 15
      vertex 162 42 25
      vertex 169 42 25
    endloop
  endfacet
  facet normal 0 1 0
    outer loop
      vertex 162 42 25
      vertex 169 42 15
      vertex 162 42 15
    endloop
  endfacet
  facet normal 0 0 -1
    outer loop
      vertex 169 41 15
      vertex 162 42 15
      vertex 169 42 15
    endloop
  endfacet
  facet normal 0 0 -1
    outer loop
      vertex 161 41 15
      vertex 162 42 15
      vertex 169 41 15
    endloop
  endfacet
  facet normal 0 0 -1
    outer loop
      vertex 161 49 15
      vertex 162 42 15
      vertex 161 41 15
    endloop
  endfacet
  facet normal 0 0 -1
    outer loop
      vertex 162 42 15
      vertex 161 49 15
      vertex 162 49 15
    endloop
  endfacet
  facet normal 0 -1 0
    outer loop
      vertex 161 41 15
      vertex 169 41 25
      vertex 161 41 25
    endloop
  endfacet
  facet normal 0 -1 -0
    outer loop
      vertex 169 41 25
      vertex 161 41 15
      vertex 169 41 15
    endloop
  endfacet
  facet normal 1 -0 0
    outer loop
      vertex 162 42 25
      vertex 162 49 15
      vertex 162 49 25
    endloop
  endfacet
  facet normal 1 0 0
    outer loop
      vertex 162 49 15
      vertex 162 42 25
      vertex 162 42 15
    endloop
  endfacet
  facet normal 0 1 -0
    outer loop
      vertex 162 49 15
      vertex 161 49 25
      vertex 162 49 25
    endloop
  endfacet
  facet normal 0 1 0
    outer loop
      vertex 161 49 25
      vertex 162 49 15
      vertex 161 49 15
    endloop
  endfacet
  facet normal 1 -0 0
    outer loop
      vertex 159 80 25
      vertex 159 83 21
      vertex 159 83 25
    endloop
  endfacet
  facet normal 1 0 0
    outer loop
      vertex 159 83 21
      vertex 159 80 25
      vertex 159 80 21
    endloop
  endfacet
  facet normal 0 0 -1
    outer loop
      vertex 158 80 21
      vertex 159 83 21
      vertex 159 80 21
    endloop
  endfacet
  facet normal -0 0 -1
    outer loop
      vertex 159 83 21
      vertex 158 80 21
      vertex 158 83 21
    endloop
  endfacet
  facet normal -1 0 0
    outer loop
      vertex 158 80 21
      vertex 158 83 25
      vertex 158 83 21
    endloop
  endfacet
  facet normal -1 -0 0
    outer loop
      vertex 158 83 25
      vertex 158 80 21
      vertex 158 80 25
    endloop
  endfacet
  facet normal 0 -1 0
    outer loop
      vertex 158 80 21
      vertex 159 80 25
      vertex 158 80 25
    endloop
  endfacet
  facet normal 0 -1 -0
    outer loop
      vertex 159 80 25
      vertex 158 80 21
      vertex 159 80 21
    endloop
  endfacet
  facet normal -0 0 1
    outer loop
      vertex 176.755 66.4549 27
      vertex 177.955 65.2553 27
      vertex 177 68 27
    endloop
  endfacet
  facet normal 0 0 1
    outer loop
      vertex 176.755 66.4549 27
      vertex 176.561 64.5451 27
      vertex 177.955 65.2553 27
    endloop
  endfacet
  facet normal -0 0 1
    outer loop
      vertex 176.045 65.0611 27
      vertex 176.561 64.5451 27
      vertex 176.755 66.4549 27
    endloop
  endfacet
  facet normal 0 0 1
    outer loop
      vertex 176.045 65.0611 27
      vertex 175.455 63.4389 27
      vertex 176.561 64.5451 27
    endloop
  endfacet
  facet normal -0 0 1
    outer loop
      vertex 174.939 63.9549 27
      vertex 175.455 63.4389 27
      vertex 176.045 65.0611 27
    endloop
  endfacet
  facet normal 0 0 1
    outer loop
      vertex 174.939 63.9549 27
      vertex 174.745 62.0451 27
      vertex 175.455 63.4389 27
    endloop
  endfacet
  facet normal -0 0 1
    outer loop
      vertex 173.545 63.2447 27
      vertex 174.745 62.0451 27
      vertex 174.939 63.9549 27
    endloop
  endfacet
  facet normal 0 0 1
    outer loop
      vertex 174.745 62.0451 27
      vertex 173.545 63.2447 27
      vertex 174.5 60.5 27
    endloop
  endfacet
  facet normal 0 0 1
    outer loop
      vertex 185.455 63.2447 27
      vertex 184.255 62.0451 27
      vertex 184.5 60.5 27
    endloop
  endfacet
  facet normal 0 0 1
    outer loop
      vertex 184.061 63.9549 27
      vertex 184.255 62.0451 27
      vertex 185.455 63.2447 27
    endloop
  endfacet
  facet normal 0 0 1
    outer loop
      vertex 184.061 63.9549 27
      vertex 183.545 63.4389 27
      vertex 184.255 62.0451 27
    endloop
  endfacet
  facet normal 0 0 1
    outer loop
      vertex 182.955 65.0611 27
      vertex 183.545 63.4389 27
      vertex 184.061 63.9549 27
    endloop
  endfacet
  facet normal 0 0 1
    outer loop
      vertex 182.955 65.0611 27
      vertex 182.439 64.5451 27
      vertex 183.545 63.4389 27
    endloop
  endfacet
  facet normal 0 0 1
    outer loop
      vertex 182.245 66.4549 27
      vertex 182.439 64.5451 27
      vertex 182.955 65.0611 27
    endloop
  endfacet
  facet normal 0 0 1
    outer loop
      vertex 181.045 65.2553 27
      vertex 182.245 66.4549 27
      vertex 182 68 27
    endloop
  endfacet
  facet normal -0 0 1
    outer loop
      vertex 179.5 70.5 27
      vertex 182 68 27
      vertex 181.045 70.7447 27
    endloop
  endfacet
  facet normal 0 0 1
    outer loop
      vertex 182.245 66.4549 27
      vertex 181.045 65.2553 27
      vertex 182.439 64.5451 27
    endloop
  endfacet
  facet normal 0 0 1
    outer loop
      vertex 179.5 65.5 27
      vertex 182 68 27
      vertex 179.5 70.5 27
    endloop
  endfacet
  facet normal 0 0 1
    outer loop
      vertex 182 68 27
      vertex 179.5 65.5 27
      vertex 181.045 65.2553 27
    endloop
  endfacet
  facet normal 0 0 1
    outer loop
      vertex 177 68 27
      vertex 179.5 70.5 27
      vertex 177.955 70.7447 27
    endloop
  endfacet
  facet normal 0 0 1
    outer loop
      vertex 179.5 70.5 27
      vertex 177 68 27
      vertex 179.5 65.5 27
    endloop
  endfacet
  facet normal 0 0 1
    outer loop
      vertex 179.5 65.5 27
      vertex 177 68 27
      vertex 177.955 65.2553 27
    endloop
  endfacet
  facet normal 0 0 1
    outer loop
      vertex 177.955 70.7447 27
      vertex 176.755 69.5451 27
      vertex 177 68 27
    endloop
  endfacet
  facet normal 0 0 1
    outer loop
      vertex 176.561 71.4549 27
      vertex 176.755 69.5451 27
      vertex 177.955 70.7447 27
    endloop
  endfacet
  facet normal 0 0 1
    outer loop
      vertex 176.561 71.4549 27
      vertex 176.045 70.9389 27
      vertex 176.755 69.5451 27
    endloop
  endfacet
  facet normal 0 0 1
    outer loop
      vertex 175.455 72.5611 27
      vertex 176.045 70.9389 27
      vertex 176.561 71.4549 27
    endloop
  endfacet
  facet normal 0 0 1
    outer loop
      vertex 175.455 72.5611 27
      vertex 174.939 72.0451 27
      vertex 176.045 70.9389 27
    endloop
  endfacet
  facet normal 0 0 1
    outer loop
      vertex 174.745 73.9549 27
      vertex 174.939 72.0451 27
      vertex 175.455 72.5611 27
    endloop
  endfacet
  facet normal 0 0 1
    outer loop
      vertex 173.545 72.7553 27
      vertex 174.745 73.9549 27
      vertex 174.5 75.5 27
    endloop
  endfacet
  facet normal 0 0 1
    outer loop
      vertex 174.745 73.9549 27
      vertex 173.545 72.7553 27
      vertex 174.939 72.0451 27
    endloop
  endfacet
  facet normal 0 0 1
    outer loop
      vertex 196 83 27
      vertex 192 68 27
      vertex 196 40 27
    endloop
  endfacet
  facet normal 0 0 1
    outer loop
      vertex 196 83 27
      vertex 191.755 69.5451 27
      vertex 192 68 27
    endloop
  endfacet
  facet normal 0 0 1
    outer loop
      vertex 196 83 27
      vertex 191.045 70.9389 27
      vertex 191.755 69.5451 27
    endloop
  endfacet
  facet normal 0 0 1
    outer loop
      vertex 196 83 27
      vertex 189.939 72.0451 27
      vertex 191.045 70.9389 27
    endloop
  endfacet
  facet normal 0 0 1
    outer loop
      vertex 196 83 27
      vertex 188.545 72.7553 27
      vertex 189.939 72.0451 27
    endloop
  endfacet
  facet normal -0 0 1
    outer loop
      vertex 184.255 77.0451 27
      vertex 188.545 72.7553 27
      vertex 196 83 27
    endloop
  endfacet
  facet normal 0 0 1
    outer loop
      vertex 188.545 72.7553 27
      vertex 184.255 77.0451 27
      vertex 187 73 27
    endloop
  endfacet
  facet normal 0 0 1
    outer loop
      vertex 187 73 27
      vertex 184.5 75.5 27
      vertex 185.455 72.7553 27
    endloop
  endfacet
  facet normal 0 0 1
    outer loop
      vertex 187 73 27
      vertex 184.255 77.0451 27
      vertex 184.5 75.5 27
    endloop
  endfacet
  facet normal 0 0 1
    outer loop
      vertex 196 83 27
      vertex 183.545 78.4389 27
      vertex 184.255 77.0451 27
    endloop
  endfacet
  facet normal 0 0 1
    outer loop
      vertex 196 83 27
      vertex 182.439 79.5451 27
      vertex 183.545 78.4389 27
    endloop
  endfacet
  facet normal 0 0 1
    outer loop
      vertex 196 83 27
      vertex 181.045 80.2553 27
      vertex 182.439 79.5451 27
    endloop
  endfacet
  facet normal 0 0 1
    outer loop
      vertex 196 83 27
      vertex 179.5 80.5 27
      vertex 181.045 80.2553 27
    endloop
  endfacet
  facet normal 0 0 1
    outer loop
      vertex 172 73 27
      vertex 174.5 75.5 27
      vertex 174.745 77.0451 27
    endloop
  endfacet
  facet normal 0 0 1
    outer loop
      vertex 174.5 75.5 27
      vertex 172 73 27
      vertex 173.545 72.7553 27
    endloop
  endfacet
  facet normal 0 0 1
    outer loop
      vertex 153 83 27
      vertex 174.745 77.0451 27
      vertex 175.455 78.4389 27
    endloop
  endfacet
  facet normal 0 0 1
    outer loop
      vertex 174.745 77.0451 27
      vertex 170.455 72.7553 27
      vertex 172 73 27
    endloop
  endfacet
  facet normal 0 0 1
    outer loop
      vertex 174.745 77.0451 27
      vertex 153 83 27
      vertex 170.455 72.7553 27
    endloop
  endfacet
  facet normal 0 0 1
    outer loop
      vertex 153 83 27
      vertex 175.455 78.4389 27
      vertex 176.561 79.5451 27
    endloop
  endfacet
  facet normal 0 0 1
    outer loop
      vertex 170.455 72.7553 27
      vertex 153 83 27
      vertex 169.061 72.0451 27
    endloop
  endfacet
  facet normal 0 0 1
    outer loop
      vertex 167.245 69.5451 27
      vertex 153 83 27
      vertex 167 68 27
    endloop
  endfacet
  facet normal 0 0 1
    outer loop
      vertex 167.955 70.9389 27
      vertex 153 83 27
      vertex 167.245 69.5451 27
    endloop
  endfacet
  facet normal 0 0 1
    outer loop
      vertex 169.061 72.0451 27
      vertex 153 83 27
      vertex 167.955 70.9389 27
    endloop
  endfacet
  facet normal 0 0 1
    outer loop
      vertex 177.955 80.2553 27
      vertex 153 83 27
      vertex 176.561 79.5451 27
    endloop
  endfacet
  facet normal 0 0 1
    outer loop
      vertex 179.5 80.5 27
      vertex 153 83 27
      vertex 177.955 80.2553 27
    endloop
  endfacet
  facet normal -0 0 1
    outer loop
      vertex 153 83 27
      vertex 179.5 80.5 27
      vertex 196 83 27
    endloop
  endfacet
  facet normal -0 0 1
    outer loop
      vertex 191.755 66.4549 27
      vertex 196 40 27
      vertex 192 68 27
    endloop
  endfacet
  facet normal -0 0 1
    outer loop
      vertex 191.045 65.0611 27
      vertex 196 40 27
      vertex 191.755 66.4549 27
    endloop
  endfacet
  facet normal -0 0 1
    outer loop
      vertex 189.939 63.9549 27
      vertex 196 40 27
      vertex 191.045 65.0611 27
    endloop
  endfacet
  facet normal -0 0 1
    outer loop
      vertex 188.545 63.2447 27
      vertex 196 40 27
      vertex 189.939 63.9549 27
    endloop
  endfacet
  facet normal 0 0 1
    outer loop
      vertex 184.255 58.9549 27
      vertex 188.545 63.2447 27
      vertex 187 63 27
    endloop
  endfacet
  facet normal 0 0 1
    outer loop
      vertex 184.5 60.5 27
      vertex 187 63 27
      vertex 185.455 63.2447 27
    endloop
  endfacet
  facet normal 0 0 1
    outer loop
      vertex 187 63 27
      vertex 184.5 60.5 27
      vertex 184.255 58.9549 27
    endloop
  endfacet
  facet normal 0 0 1
    outer loop
      vertex 188.545 63.2447 27
      vertex 184.255 58.9549 27
      vertex 196 40 27
    endloop
  endfacet
  facet normal -0 0 1
    outer loop
      vertex 183.545 57.5611 27
      vertex 196 40 27
      vertex 184.255 58.9549 27
    endloop
  endfacet
  facet normal -0 0 1
    outer loop
      vertex 182.439 56.4549 27
      vertex 196 40 27
      vertex 183.545 57.5611 27
    endloop
  endfacet
  facet normal -0 0 1
    outer loop
      vertex 181.045 55.7447 27
      vertex 196 40 27
      vertex 182.439 56.4549 27
    endloop
  endfacet
  facet normal -0 0 1
    outer loop
      vertex 179.5 55.5 27
      vertex 196 40 27
      vertex 181.045 55.7447 27
    endloop
  endfacet
  facet normal 0 0 1
    outer loop
      vertex 177.955 55.7447 27
      vertex 196 40 27
      vertex 179.5 55.5 27
    endloop
  endfacet
  facet normal 0 0 1
    outer loop
      vertex 153 40 27
      vertex 177.955 55.7447 27
      vertex 176.561 56.4549 27
    endloop
  endfacet
  facet normal -0 0 1
    outer loop
      vertex 172 63 27
      vertex 174.5 60.5 27
      vertex 173.545 63.2447 27
    endloop
  endfacet
  facet normal 0 0 1
    outer loop
      vertex 174.5 60.5 27
      vertex 172 63 27
      vertex 174.745 58.9549 27
    endloop
  endfacet
  facet normal 0 0 1
    outer loop
      vertex 170.455 63.2447 27
      vertex 174.745 58.9549 27
      vertex 172 63 27
    endloop
  endfacet
  facet normal 0 0 1
    outer loop
      vertex 174.745 58.9549 27
      vertex 170.455 63.2447 27
      vertex 175.455 57.5611 27
    endloop
  endfacet
  facet normal 0 0 1
    outer loop
      vertex 169.061 63.9549 27
      vertex 175.455 57.5611 27
      vertex 170.455 63.2447 27
    endloop
  endfacet
  facet normal 0 0 1
    outer loop
      vertex 153 40 27
      vertex 175.455 57.5611 27
      vertex 169.061 63.9549 27
    endloop
  endfacet
  facet normal 0 0 1
    outer loop
      vertex 153 83 27
      vertex 167.245 66.4549 27
      vertex 167 68 27
    endloop
  endfacet
  facet normal 0 0 1
    outer loop
      vertex 153 40 27
      vertex 167.245 66.4549 27
      vertex 153 83 27
    endloop
  endfacet
  facet normal 0 0 1
    outer loop
      vertex 177.955 55.7447 27
      vertex 153 40 27
      vertex 196 40 27
    endloop
  endfacet
  facet normal 0 0 1
    outer loop
      vertex 175.455 57.5611 27
      vertex 153 40 27
      vertex 176.561 56.4549 27
    endloop
  endfacet
  facet normal 0 0 1
    outer loop
      vertex 167.955 65.0611 27
      vertex 153 40 27
      vertex 169.061 63.9549 27
    endloop
  endfacet
  facet normal 0 0 1
    outer loop
      vertex 167.245 66.4549 27
      vertex 153 40 27
      vertex 167.955 65.0611 27
    endloop
  endfacet
  facet normal -0 0 1
    outer loop
      vertex 184.255 73.9549 27
      vertex 185.455 72.7553 27
      vertex 184.5 75.5 27
    endloop
  endfacet
  facet normal 0 0 1
    outer loop
      vertex 184.255 73.9549 27
      vertex 184.061 72.0451 27
      vertex 185.455 72.7553 27
    endloop
  endfacet
  facet normal -0 0 1
    outer loop
      vertex 183.545 72.5611 27
      vertex 184.061 72.0451 27
      vertex 184.255 73.9549 27
    endloop
  endfacet
  facet normal 0 0 1
    outer loop
      vertex 183.545 72.5611 27
      vertex 182.955 70.9389 27
      vertex 184.061 72.0451 27
    endloop
  endfacet
  facet normal -0 0 1
    outer loop
      vertex 182.439 71.4549 27
      vertex 182.955 70.9389 27
      vertex 183.545 72.5611 27
    endloop
  endfacet
  facet normal 0 0 1
    outer loop
      vertex 182.439 71.4549 27
      vertex 182.245 69.5451 27
      vertex 182.955 70.9389 27
    endloop
  endfacet
  facet normal -0 0 1
    outer loop
      vertex 181.045 70.7447 27
      vertex 182.245 69.5451 27
      vertex 182.439 71.4549 27
    endloop
  endfacet
  facet normal 0 0 1
    outer loop
      vertex 182.245 69.5451 27
      vertex 181.045 70.7447 27
      vertex 182 68 27
    endloop
  endfacet
  facet normal -0.987688 -0.156437 0
    outer loop
      vertex 177 68 25
      vertex 176.755 69.5451 27
      vertex 176.755 69.5451 25
    endloop
  endfacet
  facet normal -0.987688 -0.156437 0
    outer loop
      vertex 176.755 69.5451 27
      vertex 177 68 25
      vertex 177 68 27
    endloop
  endfacet
  facet normal 0.156436 -0.987688 0
    outer loop
      vertex 170.455 72.7553 25
      vertex 172 73 27
      vertex 170.455 72.7553 27
    endloop
  endfacet
  facet normal 0.156436 -0.987688 0
    outer loop
      vertex 172 73 27
      vertex 170.455 72.7553 25
      vertex 172 73 25
    endloop
  endfacet
  facet normal -0.453994 -0.891005 0
    outer loop
      vertex 173.545 72.7553 25
      vertex 174.939 72.0451 27
      vertex 173.545 72.7553 27
    endloop
  endfacet
  facet normal -0.453994 -0.891005 -0
    outer loop
      vertex 174.939 72.0451 27
      vertex 173.545 72.7553 25
      vertex 174.939 72.0451 25
    endloop
  endfacet
  facet normal -0.891009 -0.453986 0
    outer loop
      vertex 176.755 69.5451 25
      vertex 176.045 70.9389 27
      vertex 176.045 70.9389 25
    endloop
  endfacet
  facet normal -0.891009 -0.453986 0
    outer loop
      vertex 176.045 70.9389 27
      vertex 176.755 69.5451 25
      vertex 176.755 69.5451 27
    endloop
  endfacet
  facet normal -0.156436 -0.987688 0
    outer loop
      vertex 172 73 25
      vertex 173.545 72.7553 27
      vertex 172 73 27
    endloop
  endfacet
  facet normal -0.156436 -0.987688 -0
    outer loop
      vertex 173.545 72.7553 27
      vertex 172 73 25
      vertex 173.545 72.7553 25
    endloop
  endfacet
  facet normal 0.891009 -0.453986 0
    outer loop
      vertex 167.245 69.5451 27
      vertex 167.955 70.9389 25
      vertex 167.955 70.9389 27
    endloop
  endfacet
  facet normal 0.891009 -0.453986 0
    outer loop
      vertex 167.955 70.9389 25
      vertex 167.245 69.5451 27
      vertex 167.245 69.5451 25
    endloop
  endfacet
  facet normal 0.987688 -0.156437 0
    outer loop
      vertex 167 68 27
      vertex 167.245 69.5451 25
      vertex 167.245 69.5451 27
    endloop
  endfacet
  facet normal 0.987688 -0.156437 0
    outer loop
      vertex 167.245 69.5451 25
      vertex 167 68 27
      vertex 167 68 25
    endloop
  endfacet
  facet normal 0.45399 -0.891007 0
    outer loop
      vertex 169.061 72.0451 25
      vertex 170.455 72.7553 27
      vertex 169.061 72.0451 27
    endloop
  endfacet
  facet normal 0.45399 -0.891007 0
    outer loop
      vertex 170.455 72.7553 27
      vertex 169.061 72.0451 25
      vertex 170.455 72.7553 25
    endloop
  endfacet
  facet normal 0.156434 0.987688 -0
    outer loop
      vertex 172 63 25
      vertex 170.455 63.2447 27
      vertex 172 63 27
    endloop
  endfacet
  facet normal 0.156434 0.987688 0
    outer loop
      vertex 170.455 63.2447 27
      vertex 172 63 25
      vertex 170.455 63.2447 25
    endloop
  endfacet
  facet normal 0.891008 0.453988 0
    outer loop
      vertex 167.955 65.0611 27
      vertex 167.245 66.4549 25
      vertex 167.245 66.4549 27
    endloop
  endfacet
  facet normal 0.891008 0.453988 0
    outer loop
      vertex 167.245 66.4549 25
      vertex 167.955 65.0611 27
      vertex 167.955 65.0611 25
    endloop
  endfacet
  facet normal -0.707102 -0.707112 0
    outer loop
      vertex 174.939 72.0451 25
      vertex 176.045 70.9389 27
      vertex 174.939 72.0451 27
    endloop
  endfacet
  facet normal -0.707102 -0.707112 -0
    outer loop
      vertex 176.045 70.9389 27
      vertex 174.939 72.0451 25
      vertex 176.045 70.9389 25
    endloop
  endfacet
  facet normal 0.987688 0.156436 0
    outer loop
      vertex 167.245 66.4549 27
      vertex 167 68 25
      vertex 167 68 27
    endloop
  endfacet
  facet normal 0.987688 0.156436 0
    outer loop
      vertex 167 68 25
      vertex 167.245 66.4549 27
      vertex 167.245 66.4549 25
    endloop
  endfacet
  facet normal 0.707107 -0.707107 0
    outer loop
      vertex 167.955 70.9389 27
      vertex 169.061 72.0451 25
      vertex 169.061 72.0451 27
    endloop
  endfacet
  facet normal 0.707107 -0.707107 0
    outer loop
      vertex 169.061 72.0451 25
      vertex 167.955 70.9389 27
      vertex 167.955 70.9389 25
    endloop
  endfacet
  facet normal -0.453994 0.891005 0
    outer loop
      vertex 174.939 63.9549 25
      vertex 173.545 63.2447 27
      vertex 174.939 63.9549 27
    endloop
  endfacet
  facet normal -0.453994 0.891005 0
    outer loop
      vertex 173.545 63.2447 27
      vertex 174.939 63.9549 25
      vertex 173.545 63.2447 25
    endloop
  endfacet
  facet normal -0.987688 0.156436 0
    outer loop
      vertex 176.755 66.4549 25
      vertex 177 68 27
      vertex 177 68 25
    endloop
  endfacet
  facet normal -0.987688 0.156436 0
    outer loop
      vertex 177 68 27
      vertex 176.755 66.4549 25
      vertex 176.755 66.4549 27
    endloop
  endfacet
  facet normal -0.156434 0.987688 0
    outer loop
      vertex 173.545 63.2447 25
      vertex 172 63 27
      vertex 173.545 63.2447 27
    endloop
  endfacet
  facet normal -0.156434 0.987688 0
    outer loop
      vertex 172 63 27
      vertex 173.545 63.2447 25
      vertex 172 63 25
    endloop
  endfacet
  facet normal 0.707108 0.707106 0
    outer loop
      vertex 169.061 63.9549 27
      vertex 167.955 65.0611 25
      vertex 167.955 65.0611 27
    endloop
  endfacet
  facet normal 0.707108 0.707106 0
    outer loop
      vertex 167.955 65.0611 25
      vertex 169.061 63.9549 27
      vertex 169.061 63.9549 25
    endloop
  endfacet
  facet normal -0.707103 0.70711 0
    outer loop
      vertex 176.045 65.0611 25
      vertex 174.939 63.9549 27
      vertex 176.045 65.0611 27
    endloop
  endfacet
  facet normal -0.707103 0.70711 0
    outer loop
      vertex 174.939 63.9549 27
      vertex 176.045 65.0611 25
      vertex 174.939 63.9549 25
    endloop
  endfacet
  facet normal 0.45399 0.891007 -0
    outer loop
      vertex 170.455 63.2447 25
      vertex 169.061 63.9549 27
      vertex 170.455 63.2447 27
    endloop
  endfacet
  facet normal 0.45399 0.891007 0
    outer loop
      vertex 169.061 63.9549 27
      vertex 170.455 63.2447 25
      vertex 169.061 63.9549 25
    endloop
  endfacet
  facet normal -0.891008 0.453988 0
    outer loop
      vertex 176.045 65.0611 25
      vertex 176.755 66.4549 27
      vertex 176.755 66.4549 25
    endloop
  endfacet
  facet normal -0.891008 0.453988 0
    outer loop
      vertex 176.755 66.4549 27
      vertex 176.045 65.0611 25
      vertex 176.045 65.0611 27
    endloop
  endfacet
  facet normal -0.987688 -0.156437 0
    outer loop
      vertex 192 68 25
      vertex 191.755 69.5451 27
      vertex 191.755 69.5451 25
    endloop
  endfacet
  facet normal -0.987688 -0.156437 0
    outer loop
      vertex 191.755 69.5451 27
      vertex 192 68 25
      vertex 192 68 27
    endloop
  endfacet
  facet normal -0.156436 -0.987688 0
    outer loop
      vertex 187 73 25
      vertex 188.545 72.7553 27
      vertex 187 73 27
    endloop
  endfacet
  facet normal -0.156436 -0.987688 -0
    outer loop
      vertex 188.545 72.7553 27
      vertex 187 73 25
      vertex 188.545 72.7553 25
    endloop
  endfacet
  facet normal 0.987688 0.156436 0
    outer loop
      vertex 182.245 66.4549 27
      vertex 182 68 25
      vertex 182 68 27
    endloop
  endfacet
  facet normal 0.987688 0.156436 0
    outer loop
      vertex 182 68 25
      vertex 182.245 66.4549 27
      vertex 182.245 66.4549 25
    endloop
  endfacet
  facet normal -0.453994 0.891005 0
    outer loop
      vertex 189.939 63.9549 25
      vertex 188.545 63.2447 27
      vertex 189.939 63.9549 27
    endloop
  endfacet
  facet normal -0.453994 0.891005 0
    outer loop
      vertex 188.545 63.2447 27
      vertex 189.939 63.9549 25
      vertex 188.545 63.2447 25
    endloop
  endfacet
  facet normal -0.156434 0.987688 0
    outer loop
      vertex 188.545 63.2447 25
      vertex 187 63 27
      vertex 188.545 63.2447 27
    endloop
  endfacet
  facet normal -0.156434 0.987688 0
    outer loop
      vertex 187 63 27
      vertex 188.545 63.2447 25
      vertex 187 63 25
    endloop
  endfacet
  facet normal -0.891009 -0.453986 0
    outer loop
      vertex 191.755 69.5451 25
      vertex 191.045 70.9389 27
      vertex 191.045 70.9389 25
    endloop
  endfacet
  facet normal -0.891009 -0.453986 0
    outer loop
      vertex 191.045 70.9389 27
      vertex 191.755 69.5451 25
      vertex 191.755 69.5451 27
    endloop
  endfacet
  facet normal 0.156436 -0.987688 0
    outer loop
      vertex 185.455 72.7553 25
      vertex 187 73 27
      vertex 185.455 72.7553 27
    endloop
  endfacet
  facet normal 0.156436 -0.987688 0
    outer loop
      vertex 187 73 27
      vertex 185.455 72.7553 25
      vertex 187 73 25
    endloop
  endfacet
  facet normal 0.45399 -0.891007 0
    outer loop
      vertex 184.061 72.0451 25
      vertex 185.455 72.7553 27
      vertex 184.061 72.0451 27
    endloop
  endfacet
  facet normal 0.45399 -0.891007 0
    outer loop
      vertex 185.455 72.7553 27
      vertex 184.061 72.0451 25
      vertex 185.455 72.7553 25
    endloop
  endfacet
  facet normal 0.891008 0.453988 0
    outer loop
      vertex 182.955 65.0611 27
      vertex 182.245 66.4549 25
      vertex 182.245 66.4549 27
    endloop
  endfacet
  facet normal 0.891008 0.453988 0
    outer loop
      vertex 182.245 66.4549 25
      vertex 182.955 65.0611 27
      vertex 182.955 65.0611 25
    endloop
  endfacet
  facet normal 0.156434 0.987688 -0
    outer loop
      vertex 187 63 25
      vertex 185.455 63.2447 27
      vertex 187 63 27
    endloop
  endfacet
  facet normal 0.156434 0.987688 0
    outer loop
      vertex 185.455 63.2447 27
      vertex 187 63 25
      vertex 185.455 63.2447 25
    endloop
  endfacet
  facet normal -0.707102 -0.707112 0
    outer loop
      vertex 189.939 72.0451 25
      vertex 191.045 70.9389 27
      vertex 189.939 72.0451 27
    endloop
  endfacet
  facet normal -0.707102 -0.707112 -0
    outer loop
      vertex 191.045 70.9389 27
      vertex 189.939 72.0451 25
      vertex 191.045 70.9389 25
    endloop
  endfacet
  facet normal -0.453994 -0.891005 0
    outer loop
      vertex 188.545 72.7553 25
      vertex 189.939 72.0451 27
      vertex 188.545 72.7553 27
    endloop
  endfacet
  facet normal -0.453994 -0.891005 -0
    outer loop
      vertex 189.939 72.0451 27
      vertex 188.545 72.7553 25
      vertex 189.939 72.0451 25
    endloop
  endfacet
  facet normal 0.987688 -0.156437 0
    outer loop
      vertex 182 68 27
      vertex 182.245 69.5451 25
      vertex 182.245 69.5451 27
    endloop
  endfacet
  facet normal 0.987688 -0.156437 0
    outer loop
      vertex 182.245 69.5451 25
      vertex 182 68 27
      vertex 182 68 25
    endloop
  endfacet
  facet normal 0.707107 -0.707107 0
    outer loop
      vertex 182.955 70.9389 27
      vertex 184.061 72.0451 25
      vertex 184.061 72.0451 27
    endloop
  endfacet
  facet normal 0.707107 -0.707107 0
    outer loop
      vertex 184.061 72.0451 25
      vertex 182.955 70.9389 27
      vertex 182.955 70.9389 25
    endloop
  endfacet
  facet normal 0.891009 -0.453986 0
    outer loop
      vertex 182.245 69.5451 27
      vertex 182.955 70.9389 25
      vertex 182.955 70.9389 27
    endloop
  endfacet
  facet normal 0.891009 -0.453986 0
    outer loop
      vertex 182.955 70.9389 25
      vertex 182.245 69.5451 27
      vertex 182.245 69.5451 25
    endloop
  endfacet
  facet normal -0.707103 0.70711 0
    outer loop
      vertex 191.045 65.0611 25
      vertex 189.939 63.9549 27
      vertex 191.045 65.0611 27
    endloop
  endfacet
  facet normal -0.707103 0.70711 0
    outer loop
      vertex 189.939 63.9549 27
      vertex 191.045 65.0611 25
      vertex 189.939 63.9549 25
    endloop
  endfacet
  facet normal -0.987688 0.156436 0
    outer loop
      vertex 191.755 66.4549 25
      vertex 192 68 27
      vertex 192 68 25
    endloop
  endfacet
  facet normal -0.987688 0.156436 0
    outer loop
      vertex 192 68 27
      vertex 191.755 66.4549 25
      vertex 191.755 66.4549 27
    endloop
  endfacet
  facet normal 0.707108 0.707106 0
    outer loop
      vertex 184.061 63.9549 27
      vertex 182.955 65.0611 25
      vertex 182.955 65.0611 27
    endloop
  endfacet
  facet normal 0.707108 0.707106 0
    outer loop
      vertex 182.955 65.0611 25
      vertex 184.061 63.9549 27
      vertex 184.061 63.9549 25
    endloop
  endfacet
  facet normal 0.45399 0.891007 -0
    outer loop
      vertex 185.455 63.2447 25
      vertex 184.061 63.9549 27
      vertex 185.455 63.2447 27
    endloop
  endfacet
  facet normal 0.45399 0.891007 0
    outer loop
      vertex 184.061 63.9549 27
      vertex 185.455 63.2447 25
      vertex 184.061 63.9549 25
    endloop
  endfacet
  facet normal -0.891008 0.453988 0
    outer loop
      vertex 191.045 65.0611 25
      vertex 191.755 66.4549 27
      vertex 191.755 66.4549 25
    endloop
  endfacet
  facet normal -0.891008 0.453988 0
    outer loop
      vertex 191.755 66.4549 27
      vertex 191.045 65.0611 25
      vertex 191.045 65.0611 27
    endloop
  endfacet
  facet normal -0.987688 -0.156437 0
    outer loop
      vertex 184.5 75.5 25
      vertex 184.255 77.0451 27
      vertex 184.255 77.0451 25
    endloop
  endfacet
  facet normal -0.987688 -0.156437 0
    outer loop
      vertex 184.255 77.0451 27
      vertex 184.5 75.5 25
      vertex 184.5 75.5 27
    endloop
  endfacet
  facet normal -0.156436 -0.987688 0
    outer loop
      vertex 179.5 80.5 25
      vertex 181.045 80.2553 27
      vertex 179.5 80.5 27
    endloop
  endfacet
  facet normal -0.156436 -0.987688 -0
    outer loop
      vertex 181.045 80.2553 27
      vertex 179.5 80.5 25
      vertex 181.045 80.2553 25
    endloop
  endfacet
  facet normal 0.987688 0.156436 0
    outer loop
      vertex 174.745 73.9549 27
      vertex 174.5 75.5 25
      vertex 174.5 75.5 27
    endloop
  endfacet
  facet normal 0.987688 0.156436 0
    outer loop
      vertex 174.5 75.5 25
      vertex 174.745 73.9549 27
      vertex 174.745 73.9549 25
    endloop
  endfacet
  facet normal -0.45399 0.891007 0
    outer loop
      vertex 182.439 71.4549 25
      vertex 181.045 70.7447 27
      vertex 182.439 71.4549 27
    endloop
  endfacet
  facet normal -0.45399 0.891007 0
    outer loop
      vertex 181.045 70.7447 27
      vertex 182.439 71.4549 25
      vertex 181.045 70.7447 25
    endloop
  endfacet
  facet normal -0.156436 0.987688 0
    outer loop
      vertex 181.045 70.7447 25
      vertex 179.5 70.5 27
      vertex 181.045 70.7447 27
    endloop
  endfacet
  facet normal -0.156436 0.987688 0
    outer loop
      vertex 179.5 70.5 27
      vertex 181.045 70.7447 25
      vertex 179.5 70.5 25
    endloop
  endfacet
  facet normal -0.891009 -0.453986 0
    outer loop
      vertex 184.255 77.0451 25
      vertex 183.545 78.4389 27
      vertex 183.545 78.4389 25
    endloop
  endfacet
  facet normal -0.891009 -0.453986 0
    outer loop
      vertex 183.545 78.4389 27
      vertex 184.255 77.0451 25
      vertex 184.255 77.0451 27
    endloop
  endfacet
  facet normal 0.156436 -0.987688 0
    outer loop
      vertex 177.955 80.2553 25
      vertex 179.5 80.5 27
      vertex 177.955 80.2553 27
    endloop
  endfacet
  facet normal 0.156436 -0.987688 0
    outer loop
      vertex 179.5 80.5 27
      vertex 177.955 80.2553 25
      vertex 179.5 80.5 25
    endloop
  endfacet
  facet normal 0.45399 -0.891007 0
    outer loop
      vertex 176.561 79.5451 25
      vertex 177.955 80.2553 27
      vertex 176.561 79.5451 27
    endloop
  endfacet
  facet normal 0.45399 -0.891007 0
    outer loop
      vertex 177.955 80.2553 27
      vertex 176.561 79.5451 25
      vertex 177.955 80.2553 25
    endloop
  endfacet
  facet normal 0.891008 0.453988 0
    outer loop
      vertex 175.455 72.5611 27
      vertex 174.745 73.9549 25
      vertex 174.745 73.9549 27
    endloop
  endfacet
  facet normal 0.891008 0.453988 0
    outer loop
      vertex 174.745 73.9549 25
      vertex 175.455 72.5611 27
      vertex 175.455 72.5611 25
    endloop
  endfacet
  facet normal 0.156436 0.987688 -0
    outer loop
      vertex 179.5 70.5 25
      vertex 177.955 70.7447 27
      vertex 179.5 70.5 27
    endloop
  endfacet
  facet normal 0.156436 0.987688 0
    outer loop
      vertex 177.955 70.7447 27
      vertex 179.5 70.5 25
      vertex 177.955 70.7447 25
    endloop
  endfacet
  facet normal -0.707102 -0.707112 0
    outer loop
      vertex 182.439 79.5451 25
      vertex 183.545 78.4389 27
      vertex 182.439 79.5451 27
    endloop
  endfacet
  facet normal -0.707102 -0.707112 -0
    outer loop
      vertex 183.545 78.4389 27
      vertex 182.439 79.5451 25
      vertex 183.545 78.4389 25
    endloop
  endfacet
  facet normal -0.453994 -0.891005 0
    outer loop
      vertex 181.045 80.2553 25
      vertex 182.439 79.5451 27
      vertex 181.045 80.2553 27
    endloop
  endfacet
  facet normal -0.453994 -0.891005 -0
    outer loop
      vertex 182.439 79.5451 27
      vertex 181.045 80.2553 25
      vertex 182.439 79.5451 25
    endloop
  endfacet
  facet normal 0.987688 -0.156437 0
    outer loop
      vertex 174.5 75.5 27
      vertex 174.745 77.0451 25
      vertex 174.745 77.0451 27
    endloop
  endfacet
  facet normal 0.987688 -0.156437 0
    outer loop
      vertex 174.745 77.0451 25
      vertex 174.5 75.5 27
      vertex 174.5 75.5 25
    endloop
  endfacet
  facet normal 0.707107 -0.707107 0
    outer loop
      vertex 175.455 78.4389 27
      vertex 176.561 79.5451 25
      vertex 176.561 79.5451 27
    endloop
  endfacet
  facet normal 0.707107 -0.707107 0
    outer loop
      vertex 176.561 79.5451 25
      vertex 175.455 78.4389 27
      vertex 175.455 78.4389 25
    endloop
  endfacet
  facet normal 0.891009 -0.453986 0
    outer loop
      vertex 174.745 77.0451 27
      vertex 175.455 78.4389 25
      vertex 175.455 78.4389 27
    endloop
  endfacet
  facet normal 0.891009 -0.453986 0
    outer loop
      vertex 175.455 78.4389 25
      vertex 174.745 77.0451 27
      vertex 174.745 77.0451 25
    endloop
  endfacet
  facet normal -0.707104 0.707109 0
    outer loop
      vertex 183.545 72.5611 25
      vertex 182.439 71.4549 27
      vertex 183.545 72.5611 27
    endloop
  endfacet
  facet normal -0.707104 0.707109 0
    outer loop
      vertex 182.439 71.4549 27
      vertex 183.545 72.5611 25
      vertex 182.439 71.4549 25
    endloop
  endfacet
  facet normal -0.987688 0.156436 0
    outer loop
      vertex 184.255 73.9549 25
      vertex 184.5 75.5 27
      vertex 184.5 75.5 25
    endloop
  endfacet
  facet normal -0.987688 0.156436 0
    outer loop
      vertex 184.5 75.5 27
      vertex 184.255 73.9549 25
      vertex 184.255 73.9549 27
    endloop
  endfacet
  facet normal 0.707109 0.707104 0
    outer loop
      vertex 176.561 71.4549 27
      vertex 175.455 72.5611 25
      vertex 175.455 72.5611 27
    endloop
  endfacet
  facet normal 0.707109 0.707104 0
    outer loop
      vertex 175.455 72.5611 25
      vertex 176.561 71.4549 27
      vertex 176.561 71.4549 25
    endloop
  endfacet
  facet normal 0.453986 0.891009 -0
    outer loop
      vertex 177.955 70.7447 25
      vertex 176.561 71.4549 27
      vertex 177.955 70.7447 27
    endloop
  endfacet
  facet normal 0.453986 0.891009 0
    outer loop
      vertex 176.561 71.4549 27
      vertex 177.955 70.7447 25
      vertex 176.561 71.4549 25
    endloop
  endfacet
  facet normal -0.891008 0.453988 0
    outer loop
      vertex 183.545 72.5611 25
      vertex 184.255 73.9549 27
      vertex 184.255 73.9549 25
    endloop
  endfacet
  facet normal -0.891008 0.453988 0
    outer loop
      vertex 184.255 73.9549 27
      vertex 183.545 72.5611 25
      vertex 183.545 72.5611 27
    endloop
  endfacet
  facet normal -0.987688 -0.156436 0
    outer loop
      vertex 184.5 60.5 25
      vertex 184.255 62.0451 27
      vertex 184.255 62.0451 25
    endloop
  endfacet
  facet normal -0.987688 -0.156436 0
    outer loop
      vertex 184.255 62.0451 27
      vertex 184.5 60.5 25
      vertex 184.5 60.5 27
    endloop
  endfacet
  facet normal -0.156436 -0.987688 0
    outer loop
      vertex 179.5 65.5 25
      vertex 181.045 65.2553 27
      vertex 179.5 65.5 27
    endloop
  endfacet
  facet normal -0.156436 -0.987688 -0
    outer loop
      vertex 181.045 65.2553 27
      vertex 179.5 65.5 25
      vertex 181.045 65.2553 25
    endloop
  endfacet
  facet normal 0.987688 0.156436 0
    outer loop
      vertex 174.745 58.9549 27
      vertex 174.5 60.5 25
      vertex 174.5 60.5 27
    endloop
  endfacet
  facet normal 0.987688 0.156436 0
    outer loop
      vertex 174.5 60.5 25
      vertex 174.745 58.9549 27
      vertex 174.745 58.9549 25
    endloop
  endfacet
  facet normal -0.453994 0.891005 0
    outer loop
      vertex 182.439 56.4549 25
      vertex 181.045 55.7447 27
      vertex 182.439 56.4549 27
    endloop
  endfacet
  facet normal -0.453994 0.891005 0
    outer loop
      vertex 181.045 55.7447 27
      vertex 182.439 56.4549 25
      vertex 181.045 55.7447 25
    endloop
  endfacet
  facet normal -0.156434 0.987688 0
    outer loop
      vertex 181.045 55.7447 25
      vertex 179.5 55.5 27
      vertex 181.045 55.7447 27
    endloop
  endfacet
  facet normal -0.156434 0.987688 0
    outer loop
      vertex 179.5 55.5 27
      vertex 181.045 55.7447 25
      vertex 179.5 55.5 25
    endloop
  endfacet
  facet normal -0.891008 -0.453987 0
    outer loop
      vertex 184.255 62.0451 25
      vertex 183.545 63.4389 27
      vertex 183.545 63.4389 25
    endloop
  endfacet
  facet normal -0.891008 -0.453987 0
    outer loop
      vertex 183.545 63.4389 27
      vertex 184.255 62.0451 25
      vertex 184.255 62.0451 27
    endloop
  endfacet
  facet normal 0.156436 -0.987688 0
    outer loop
      vertex 177.955 65.2553 25
      vertex 179.5 65.5 27
      vertex 177.955 65.2553 27
    endloop
  endfacet
  facet normal 0.156436 -0.987688 0
    outer loop
      vertex 179.5 65.5 27
      vertex 177.955 65.2553 25
      vertex 179.5 65.5 25
    endloop
  endfacet
  facet normal 0.45399 -0.891007 0
    outer loop
      vertex 176.561 64.5451 25
      vertex 177.955 65.2553 27
      vertex 176.561 64.5451 27
    endloop
  endfacet
  facet normal 0.45399 -0.891007 0
    outer loop
      vertex 177.955 65.2553 27
      vertex 176.561 64.5451 25
      vertex 177.955 65.2553 25
    endloop
  endfacet
  facet normal 0.987688 -0.156436 0
    outer loop
      vertex 174.5 60.5 27
      vertex 174.745 62.0451 25
      vertex 174.745 62.0451 27
    endloop
  endfacet
  facet normal 0.987688 -0.156436 0
    outer loop
      vertex 174.745 62.0451 25
      vertex 174.5 60.5 27
      vertex 174.5 60.5 25
    endloop
  endfacet
  facet normal 0.891008 0.453987 0
    outer loop
      vertex 175.455 57.5611 27
      vertex 174.745 58.9549 25
      vertex 174.745 58.9549 27
    endloop
  endfacet
  facet normal 0.891008 0.453987 0
    outer loop
      vertex 174.745 58.9549 25
      vertex 175.455 57.5611 27
      vertex 175.455 57.5611 25
    endloop
  endfacet
  facet normal 0.156434 0.987688 -0
    outer loop
      vertex 179.5 55.5 25
      vertex 177.955 55.7447 27
      vertex 179.5 55.5 27
    endloop
  endfacet
  facet normal 0.156434 0.987688 0
    outer loop
      vertex 177.955 55.7447 27
      vertex 179.5 55.5 25
      vertex 177.955 55.7447 25
    endloop
  endfacet
  facet normal -0.707102 -0.707112 0
    outer loop
      vertex 182.439 64.5451 25
      vertex 183.545 63.4389 27
      vertex 182.439 64.5451 27
    endloop
  endfacet
  facet normal -0.707102 -0.707112 -0
    outer loop
      vertex 183.545 63.4389 27
      vertex 182.439 64.5451 25
      vertex 183.545 63.4389 25
    endloop
  endfacet
  facet normal -0.453994 -0.891005 0
    outer loop
      vertex 181.045 65.2553 25
      vertex 182.439 64.5451 27
      vertex 181.045 65.2553 27
    endloop
  endfacet
  facet normal -0.453994 -0.891005 -0
    outer loop
      vertex 182.439 64.5451 27
      vertex 181.045 65.2553 25
      vertex 182.439 64.5451 25
    endloop
  endfacet
  facet normal 0.707107 -0.707107 0
    outer loop
      vertex 175.455 63.4389 27
      vertex 176.561 64.5451 25
      vertex 176.561 64.5451 27
    endloop
  endfacet
  facet normal 0.707107 -0.707107 0
    outer loop
      vertex 176.561 64.5451 25
      vertex 175.455 63.4389 27
      vertex 175.455 63.4389 25
    endloop
  endfacet
  facet normal 0.891008 -0.453987 0
    outer loop
      vertex 174.745 62.0451 27
      vertex 175.455 63.4389 25
      vertex 175.455 63.4389 27
    endloop
  endfacet
  facet normal 0.891008 -0.453987 0
    outer loop
      vertex 175.455 63.4389 25
      vertex 174.745 62.0451 27
      vertex 174.745 62.0451 25
    endloop
  endfacet
  facet normal -0.707103 0.70711 0
    outer loop
      vertex 183.545 57.5611 25
      vertex 182.439 56.4549 27
      vertex 183.545 57.5611 27
    endloop
  endfacet
  facet normal -0.707103 0.70711 0
    outer loop
      vertex 182.439 56.4549 27
      vertex 183.545 57.5611 25
      vertex 182.439 56.4549 25
    endloop
  endfacet
  facet normal -0.987688 0.156436 0
    outer loop
      vertex 184.255 58.9549 25
      vertex 184.5 60.5 27
      vertex 184.5 60.5 25
    endloop
  endfacet
  facet normal -0.987688 0.156436 0
    outer loop
      vertex 184.5 60.5 27
      vertex 184.255 58.9549 25
      vertex 184.255 58.9549 27
    endloop
  endfacet
  facet normal 0.707108 0.707106 0
    outer loop
      vertex 176.561 56.4549 27
      vertex 175.455 57.5611 25
      vertex 175.455 57.5611 27
    endloop
  endfacet
  facet normal 0.707108 0.707106 0
    outer loop
      vertex 175.455 57.5611 25
      vertex 176.561 56.4549 27
      vertex 176.561 56.4549 25
    endloop
  endfacet
  facet normal 0.45399 0.891007 -0
    outer loop
      vertex 177.955 55.7447 25
      vertex 176.561 56.4549 27
      vertex 177.955 55.7447 27
    endloop
  endfacet
  facet normal 0.45399 0.891007 0
    outer loop
      vertex 176.561 56.4549 27
      vertex 177.955 55.7447 25
      vertex 176.561 56.4549 25
    endloop
  endfacet
  facet normal -0.891008 0.453987 0
    outer loop
      vertex 183.545 57.5611 25
      vertex 184.255 58.9549 27
      vertex 184.255 58.9549 25
    endloop
  endfacet
  facet normal -0.891008 0.453987 0
    outer loop
      vertex 184.255 58.9549 27
      vertex 183.545 57.5611 25
      vertex 183.545 57.5611 27
    endloop
  endfacet
  facet normal -1 0 0
    outer loop
      vertex 153 40 25
      vertex 153 83 27
      vertex 153 83 25
    endloop
  endfacet
  facet normal -1 -0 0
    outer loop
      vertex 153 83 27
      vertex 153 40 25
      vertex 153 40 27
    endloop
  endfacet
  facet normal 0 1 -0
    outer loop
      vertex 159 83 21
      vertex 158 83 25
      vertex 159 83 25
    endloop
  endfacet
  facet normal 0 1 0
    outer loop
      vertex 158 83 25
      vertex 159 83 21
      vertex 158 83 21
    endloop
  endfacet
  facet normal 0 1 0
    outer loop
      vertex 159 83 25
      vertex 196 83 27
      vertex 196 83 25
    endloop
  endfacet
  facet normal 0 1 0
    outer loop
      vertex 196 83 27
      vertex 159 83 25
      vertex 153 83 27
    endloop
  endfacet
  facet normal 0 1 -0
    outer loop
      vertex 158 83 25
      vertex 153 83 27
      vertex 159 83 25
    endloop
  endfacet
  facet normal 0 1 0
    outer loop
      vertex 153 83 27
      vertex 158 83 25
      vertex 153 83 25
    endloop
  endfacet
  facet normal 0 -1 0
    outer loop
      vertex 153 40 25
      vertex 196 40 27
      vertex 153 40 27
    endloop
  endfacet
  facet normal 0 -1 -0
    outer loop
      vertex 196 40 27
      vertex 153 40 25
      vertex 196 40 25
    endloop
  endfacet
  facet normal 1 -0 0
    outer loop
      vertex 196 40 27
      vertex 196 83 25
      vertex 196 83 27
    endloop
  endfacet
  facet normal 1 0 0
    outer loop
      vertex 196 83 25
      vertex 196 40 27
      vertex 196 40 25
    endloop
  endfacet
endsolid OpenSCAD_Model
